<?xml version="1.0" encoding="utf-8"?>
<!-- Generator: Adobe Illustrator 19.0.0, SVG Export Plug-In . SVG Version: 6.00 Build 0)  -->
<svg version="1.2" baseProfile="tiny" xmlns="http://www.w3.org/2000/svg" xmlns:xlink="http://www.w3.org/1999/xlink" x="0px"
	 y="0px" viewBox="0 0 283.5 283.5" xml:space="preserve">
<g id="图层_2" display="none">
	<path id="XMLID_127_" display="inline" fill-rule="evenodd" fill="#F39D45" d="M141.7,255.1c62.5,0,113.4-50.9,113.4-113.4
		c0-62.5-50.9-113.4-113.4-113.4c-62.4,0-113.4,50.9-113.4,113.4C28.3,204.2,79.3,255.1,141.7,255.1z"/>
	<path id="XMLID_126_" display="inline" fill-rule="evenodd" fill="#FBE7B0" d="M28.3,141.7c0-62.6,50.8-113.4,113.4-113.4
		s113.4,50.8,113.4,113.4H28.3z"/>
	<g id="XMLID_270_" display="inline">
		<rect id="XMLID_125_" x="173" y="93.4" fill-rule="evenodd" fill="#EA5762" width="16.1" height="4.4"/>
		<rect id="XMLID_124_" x="97.3" y="93.4" fill-rule="evenodd" fill="#EA5762" width="16.1" height="4.4"/>
		<rect id="XMLID_123_" x="142.3" y="99.5" fill-rule="evenodd" fill="#5A5657" width="0.5" height="4.3"/>
		<path id="XMLID_122_" fill-rule="evenodd" fill="#EA5762" d="M165.6,76.3h-11h-11.7h-21.5c-4.4,0-8.1,3.6-8.1,8l0,18.5
			c0,1.4,1.2,2.6,2.6,2.6c1.1,0,2-0.7,2.4-1.6h7.8l0.4,0l0.4,0h15.6v-4.3h-18.1c0,0,0.1-11.7,0.1-14.1l18.5,0v0l20.7,0
			c0,2.6,0.2,14.1,0.2,14.1l-20.9,0v4.3h17.7l0.4,0l0.4,0h7.4c0.4,0.9,1.3,1.6,2.4,1.6c1.1,0,2-0.7,2.4-1.6h0.1v-0.3
			c0.1-0.2,0.1-0.4,0.1-0.7V84.3C173.7,79.9,170,76.3,165.6,76.3z"/>
		<path id="XMLID_121_" fill-rule="evenodd" fill="#5EA4CD" d="M93.3,97.1H71.6c-2.3,0-4.1,1.8-4.1,4.1v21.4v60.3V203
			c0,2.3,1.8,4.1,4.1,4.1h20.1h50.7h49.4h20.1c2.3,0,4.1-1.8,4.1-4.1v-20.1v-61.6v-20.1c0-2.3-1.8-4.1-4.1-4.1h-20.1h-49.4v0H93.3z"
			/>
		<path id="XMLID_120_" fill-rule="evenodd" fill="#EA5762" d="M88.1,98.2c0-0.4,0-0.7,0-1.1H70.7c-1.8,0-3.3,1.5-3.3,3.3l0,17
			c0.4,0,0.9,0.1,1.3,0.1C79.4,117.5,88.1,108.8,88.1,98.2z"/>
		<path id="XMLID_119_" fill-rule="evenodd" fill="#EA5762" d="M216,117.7v-17.1c0-1.9-1.6-3.5-3.5-3.5h-17.1
			C195.4,108.5,204.6,117.7,216,117.7z"/>
		<path id="XMLID_118_" fill-rule="evenodd" fill="#EA5762" d="M216,203.6v-17.1c-11.4,0-20.6,9.2-20.6,20.6h17.1
			C214.4,207.1,216,205.6,216,203.6z"/>
		<path id="XMLID_117_" fill-rule="evenodd" fill="#EA5762" d="M67.5,186.5v17.1c0,1.9,1.6,3.5,3.5,3.5h17.1
			C88.1,195.8,78.8,186.5,67.5,186.5z"/>
		<rect id="XMLID_116_" x="101" y="97.1" fill-rule="evenodd" fill="#EA5762" width="8.8" height="110"/>
		<rect id="XMLID_115_" x="177.2" y="97.1" fill-rule="evenodd" fill="#EA5762" width="8.9" height="110"/>
		<rect id="XMLID_114_" x="93.1" y="145.7" fill-rule="evenodd" fill="#4E4D4D" width="25.2" height="15.3"/>
		<rect id="XMLID_113_" x="169" y="145.7" fill-rule="evenodd" fill="#4E4D4D" width="25.2" height="15.2"/>
	</g>
</g>
<g id="图层_1">
	<path id="XMLID_69_" fill-rule="evenodd" fill="#EA5762" d="M142.3,255.1c62.5,0,113.4-50.9,113.4-113.4
		c0-62.5-50.9-113.4-113.4-113.4C79.9,28.3,29,79.3,29,141.7C29,204.2,79.9,255.1,142.3,255.1z"/>
	<path id="XMLID_68_" fill-rule="evenodd" fill="#F8C9CD" d="M29,141.7C29,79.1,79.7,28.3,142.3,28.3s113.4,50.8,113.4,113.4H29z"/>
	<g id="XMLID_64_">
		<path id="XMLID_67_" fill-rule="evenodd" fill="#5EA4CD" d="M104.4,16.8c10.3,1.1,21.3,16,23.4,45.9c2.1,29.9-3.8,36.1,4.1,66.8
			c7.9,30.8,19.2,57.5-6.9,64.6c-26.1,7.2-29.2-5.7-43.6-58C67.5,85,53.2,72.9,60.8,47.6C68.2,23.4,90.7,15.4,104.4,16.8z"/>
		<path id="XMLID_66_" fill-rule="evenodd" fill="#428DB9" d="M103.2,27.9c8.8,0.9,18.1,13.6,19.9,38.9c1.8,25.3-3.2,30.6,3.5,56.7
			c6.7,26.1,16.2,48.7-5.8,54.8c-22.2,6.1-24.8-4.8-36.9-49.1c-11.9-43.4-24-53.6-17.5-75.1C72.4,33.5,91.6,26.6,103.2,27.9z"/>
		<path id="XMLID_65_" fill-rule="evenodd" fill="#F5BB1F" d="M97.5,147.6c4.1-4.8-3.7-9.9-11.3-16.3c-7.2-6.1-11.6-12.3-12.5-21.1
			c-0.8-8.1,8.2-29.2,15.6-39c7.4-9.8,9.4-17,24.5-1.5c15.1,15.5,21.5,26.5,18.3,38.3c-3.2,11.8-16.3,31.5-9.7,35.1
			c6.6,3.6,13.9-14.6,13.9-35.9c0-25.9-13.8-51.2-32.1-57.3c-6.7-2.2-2.8-9-7.4-8.3c-4.8,0.7-0.5,8.1-3,9.4
			c-12.8,6.9-27.2,40.8-24.5,57C72.7,127.6,90.1,156.2,97.5,147.6z"/>
	</g>
	<path id="XMLID_63_" fill-rule="evenodd" fill="#428DB9" d="M139.4,157.9c-1.3,2.1-2.8,4.4-4.5,6.8c-8,11.4-16.3,21.8-21.3,31.3
		c3.3,0,7.1-0.6,11.5-1.8C142.6,189.3,143.2,175.7,139.4,157.9z"/>
	<g id="XMLID_59_">
		<path id="XMLID_62_" fill-rule="evenodd" fill="#5EA4CD" d="M202.3,70.6c-10-2.6-25.6,7.5-38.1,34.7
			c-12.5,27.2-9.2,35.1-27.4,61.1c-18.2,26-38.2,47-16.3,62.9c21.9,15.9,29.4,5,61.2-38.9c31.2-43,48.8-49.2,50.6-75.6
			C233.9,89.6,215.6,74.1,202.3,70.6z"/>
		<path id="XMLID_61_" fill-rule="evenodd" fill="#428DB9" d="M199.6,81.4c-8.5-2.2-21.7,6.3-32.3,29.4
			c-10.6,23.1-7.8,29.7-23.2,51.8c-15.4,22.1-32.4,39.9-13.8,53.3c18.6,13.5,24.9,4.2,51.9-33c26.4-36.4,41.4-41.7,42.9-64.1
			C226.4,97.5,210.9,84.4,199.6,81.4z"/>
		<path id="XMLID_60_" fill-rule="evenodd" fill="#F5BB1F" d="M162.7,195.4c-2.2-5.9,7-7.9,16.4-11.3c8.9-3.2,15.2-7.4,19.1-15.4
			c3.7-7.3,2.6-30.2-0.9-42c-3.5-11.8-2.8-19.2-22.4-10c-19.6,9.2-29.5,17.2-30.6,29.3c-1.1,12.1,4.2,35.2-3.3,36.2
			c-7.4,1-7.9-18.6-0.4-38.5c9.1-24.2,31-43.1,50.2-42.3c7.1,0.3,5.8-7.4,9.8-5.2c4.3,2.3-2.4,7.7-0.5,9.8
			c9.5,10.9,11.1,47.7,2.8,61.9C192.9,185.5,166.6,206.1,162.7,195.4z"/>
	</g>
	<g id="XMLID_1_">
	</g>
	<g id="XMLID_2_">
	</g>
	<g id="XMLID_3_">
	</g>
	<g id="XMLID_4_">
	</g>
	<g id="XMLID_5_">
	</g>
	<g id="XMLID_6_">
	</g>
</g>
</svg>
