<?xml version="1.0" encoding="utf-8"?>
<!-- Generator: Adobe Illustrator 19.0.0, SVG Export Plug-In . SVG Version: 6.00 Build 0)  -->
<svg version="1.2" baseProfile="tiny" xmlns="http://www.w3.org/2000/svg" xmlns:xlink="http://www.w3.org/1999/xlink" x="0px"
	 y="0px" viewBox="0 0 283.5 283.5" xml:space="preserve">
<g id="图层_2">
	<path id="XMLID_127_" fill-rule="evenodd" fill="#F39D45" d="M141.7,255.1c62.5,0,113.4-50.9,113.4-113.4
		c0-62.5-50.9-113.4-113.4-113.4c-62.4,0-113.4,50.9-113.4,113.4C28.3,204.2,79.3,255.1,141.7,255.1z"/>
	<path id="XMLID_126_" fill-rule="evenodd" fill="#FBE7B0" d="M28.3,141.7c0-62.6,50.8-113.4,113.4-113.4s113.4,50.8,113.4,113.4
		H28.3z"/>
	<g id="XMLID_270_">
		<rect id="XMLID_125_" x="173" y="93.4" fill-rule="evenodd" fill="#EA5762" width="16.1" height="4.4"/>
		<rect id="XMLID_124_" x="97.3" y="93.4" fill-rule="evenodd" fill="#EA5762" width="16.1" height="4.4"/>
		<rect id="XMLID_123_" x="142.3" y="99.5" fill-rule="evenodd" fill="#5A5657" width="0.5" height="4.3"/>
		<path id="XMLID_122_" fill-rule="evenodd" fill="#EA5762" d="M165.6,76.3h-11h-11.7h-21.5c-4.4,0-8.1,3.6-8.1,8l0,18.5
			c0,1.4,1.2,2.6,2.6,2.6c1.1,0,2-0.7,2.4-1.6h7.8l0.4,0l0.4,0h15.6v-4.3h-18.1c0,0,0.1-11.7,0.1-14.1l18.5,0v0l20.7,0
			c0,2.6,0.2,14.1,0.2,14.1l-20.9,0v4.3h17.7l0.4,0l0.4,0h7.4c0.4,0.9,1.3,1.6,2.4,1.6c1.1,0,2-0.7,2.4-1.6h0.1v-0.3
			c0.1-0.2,0.1-0.4,0.1-0.7V84.3C173.7,79.9,170,76.3,165.6,76.3z"/>
		<path id="XMLID_121_" fill-rule="evenodd" fill="#5EA4CD" d="M93.3,97.1H71.6c-2.3,0-4.1,1.8-4.1,4.1v21.4v60.3V203
			c0,2.3,1.8,4.1,4.1,4.1h20.1h50.7h49.4h20.1c2.3,0,4.1-1.8,4.1-4.1v-20.1v-61.6v-20.1c0-2.3-1.8-4.1-4.1-4.1h-20.1h-49.4v0H93.3z"
			/>
		<path id="XMLID_120_" fill-rule="evenodd" fill="#EA5762" d="M88.1,98.2c0-0.4,0-0.7,0-1.1H70.7c-1.8,0-3.3,1.5-3.3,3.3l0,17
			c0.4,0,0.9,0.1,1.3,0.1C79.4,117.5,88.1,108.8,88.1,98.2z"/>
		<path id="XMLID_119_" fill-rule="evenodd" fill="#EA5762" d="M216,117.7v-17.1c0-1.9-1.6-3.5-3.5-3.5h-17.1
			C195.4,108.5,204.6,117.7,216,117.7z"/>
		<path id="XMLID_118_" fill-rule="evenodd" fill="#EA5762" d="M216,203.6v-17.1c-11.4,0-20.6,9.2-20.6,20.6h17.1
			C214.4,207.1,216,205.6,216,203.6z"/>
		<path id="XMLID_117_" fill-rule="evenodd" fill="#EA5762" d="M67.5,186.5v17.1c0,1.9,1.6,3.5,3.5,3.5h17.1
			C88.1,195.8,78.8,186.5,67.5,186.5z"/>
		<rect id="XMLID_116_" x="101" y="97.1" fill-rule="evenodd" fill="#EA5762" width="8.8" height="110"/>
		<rect id="XMLID_115_" x="177.2" y="97.1" fill-rule="evenodd" fill="#EA5762" width="8.9" height="110"/>
		<rect id="XMLID_114_" x="93.1" y="145.7" fill-rule="evenodd" fill="#4E4D4D" width="25.2" height="15.3"/>
		<rect id="XMLID_113_" x="169" y="145.7" fill-rule="evenodd" fill="#4E4D4D" width="25.2" height="15.2"/>
	</g>
</g>
<g id="图层_1">
	<g id="XMLID_1_">
	</g>
	<g id="XMLID_2_">
	</g>
	<g id="XMLID_3_">
	</g>
	<g id="XMLID_4_">
	</g>
	<g id="XMLID_5_">
	</g>
	<g id="XMLID_6_">
	</g>
</g>
</svg>
