<?xml version="1.0" standalone="no"?><!DOCTYPE svg PUBLIC "-//W3C//DTD SVG 1.1//EN" "http://www.w3.org/Graphics/SVG/1.1/DTD/svg11.dtd"><svg t="1530599746504" class="icon" style="" viewBox="0 0 1024 1024" version="1.1" xmlns="http://www.w3.org/2000/svg" p-id="3321" xmlns:xlink="http://www.w3.org/1999/xlink" width="64" height="64"><defs><style type="text/css"></style></defs><path d="M425.854 346.332c0 47.576 38.57 86.146 86.146 86.146 47.581 0 86.152-38.571 86.152-86.146a86.15 86.15 0 0 0-43.078-74.61 86.15 86.15 0 0 0-129.22 74.61z m0 0M883.108 810.208c-13.257-13.251-33.136-26.507-59.645-33.136-19.881-6.624-53.016-13.252-79.525-13.252h-6.622c-13.256 0-19.88 13.252-19.88 26.509 0 13.252 13.252 26.507 26.502 26.507h26.51c46.387 6.623 72.896 19.881 79.524 33.132 6.626 6.629 13.252 13.257 13.252 19.879 0 13.256-26.51 33.138-86.148 46.389-66.268 19.884-159.042 26.509-258.446 26.509-106.033 0-192.18-6.625-258.447-26.509-72.896-19.88-92.775-39.76-92.775-46.389 0-13.25 6.623-19.879 13.251-26.501 13.256-6.629 33.137-13.258 66.267-19.887h33.138c13.251 0 26.507-13.251 26.507-26.502 0-13.256-6.628-19.885-19.879-26.509h-6.628c-59.64 0-99.404 13.253-125.912 26.509-26.509 19.879-39.76 39.76-39.76 72.89 0 26.509 13.251 46.389 39.76 66.272 19.88 13.253 46.389 26.51 86.152 33.132 66.267 19.879 165.671 26.509 271.698 26.509 112.655 0 205.436-6.63 271.703-26.509 39.76-6.622 66.269-19.879 86.147-33.132 26.508-19.884 39.758-39.764 39.758-66.272-0.001-26.501-6.622-46.388-26.502-59.639z m0 0" fill="#01a862" p-id="3322"></path><path d="M472.241 830.088c13.252 13.258 26.508 19.88 39.76 19.88 13.256 0 33.137-6.622 39.765-19.88 53.011-72.896 99.399-139.163 159.043-238.568 66.268-106.026 106.026-198.801 106.026-258.445 0-79.525-33.131-159.043-86.146-212.059C671.044 61.377 598.153 28.24 518.63 28.24h-13.257c-79.519 0-152.415 33.137-212.06 92.776-59.639 59.644-92.774 139.162-86.146 212.059 0 59.644 39.758 152.419 106.032 258.445 59.639 106.034 106.027 172.3 159.042 238.568zM273.434 333.075c0-66.268 26.508-119.284 72.896-165.671 46.388-46.387 106.032-72.896 165.671-72.896 59.645 0 119.284 26.509 165.671 72.896 46.389 46.387 72.897 99.403 72.897 165.671 0 33.136-19.881 86.146-59.64 165.671-39.765 72.896-92.776 152.418-165.673 251.818 0 6.627-6.627 6.627-13.256 6.627-6.628 0-13.252 0-13.252-6.627-139.162-192.173-225.314-351.222-225.314-417.489z m0 0" fill="#01a862" p-id="3323"></path></svg>