<?xml version="1.0" encoding="utf-8"?>
<!-- Generator: Adobe Illustrator 19.0.0, SVG Export Plug-In . SVG Version: 6.00 Build 0)  -->
<svg version="1.2" baseProfile="tiny" xmlns="http://www.w3.org/2000/svg" xmlns:xlink="http://www.w3.org/1999/xlink" x="0px"
	 y="0px" viewBox="0 0 283.5 283.5" xml:space="preserve">
<g id="图层_2">
	<path id="XMLID_127_" fill-rule="evenodd" fill="#F39D45" d="M141.7,255.1c62.5,0,113.4-50.9,113.4-113.4
		c0-62.5-50.9-113.4-113.4-113.4c-62.4,0-113.4,50.9-113.4,113.4C28.3,204.2,79.3,255.1,141.7,255.1z"/>
	<path id="XMLID_126_" fill-rule="evenodd" fill="#FBE7B0" d="M28.3,141.7c0-62.6,50.8-113.4,113.4-113.4s113.4,50.8,113.4,113.4
		H28.3z"/>
	<g id="XMLID_270_">
		<rect id="XMLID_125_" x="173" y="93.4" fill-rule="evenodd" fill="#EA5762" width="16.1" height="4.4"/>
		<rect id="XMLID_124_" x="97.3" y="93.4" fill-rule="evenodd" fill="#EA5762" width="16.1" height="4.4"/>
		<rect id="XMLID_123_" x="142.3" y="99.5" fill-rule="evenodd" fill="#5A5657" width="0.5" height="4.3"/>
		<path id="XMLID_122_" fill-rule="evenodd" fill="#EA5762" d="M165.6,76.3h-11h-11.7h-21.5c-4.4,0-8.1,3.6-8.1,8l0,18.5
			c0,1.4,1.2,2.6,2.6,2.6c1.1,0,2-0.7,2.4-1.6h7.8l0.4,0l0.4,0h15.6v-4.3h-18.1c0,0,0.1-11.7,0.1-14.1l18.5,0v0l20.7,0
			c0,2.6,0.2,14.1,0.2,14.1l-20.9,0v4.3h17.7l0.4,0l0.4,0h7.4c0.4,0.9,1.3,1.6,2.4,1.6c1.1,0,2-0.7,2.4-1.6h0.1v-0.3
			c0.1-0.2,0.1-0.4,0.1-0.7V84.3C173.7,79.9,170,76.3,165.6,76.3z"/>
		<path id="XMLID_121_" fill-rule="evenodd" fill="#5EA4CD" d="M93.3,97.1H71.6c-2.3,0-4.1,1.8-4.1,4.1v21.4v60.3V203
			c0,2.3,1.8,4.1,4.1,4.1h20.1h50.7h49.4h20.1c2.3,0,4.1-1.8,4.1-4.1v-20.1v-61.6v-20.1c0-2.3-1.8-4.1-4.1-4.1h-20.1h-49.4v0H93.3z"
			/>
		<path id="XMLID_120_" fill-rule="evenodd" fill="#EA5762" d="M88.1,98.2c0-0.4,0-0.7,0-1.1H70.7c-1.8,0-3.3,1.5-3.3,3.3l0,17
			c0.4,0,0.9,0.1,1.3,0.1C79.4,117.5,88.1,108.8,88.1,98.2z"/>
		<path id="XMLID_119_" fill-rule="evenodd" fill="#EA5762" d="M216,117.7v-17.1c0-1.9-1.6-3.5-3.5-3.5h-17.1
			C195.4,108.5,204.6,117.7,216,117.7z"/>
		<path id="XMLID_118_" fill-rule="evenodd" fill="#EA5762" d="M216,203.6v-17.1c-11.4,0-20.6,9.2-20.6,20.6h17.1
			C214.4,207.1,216,205.6,216,203.6z"/>
		<path id="XMLID_117_" fill-rule="evenodd" fill="#EA5762" d="M67.5,186.5v17.1c0,1.9,1.6,3.5,3.5,3.5h17.1
			C88.1,195.8,78.8,186.5,67.5,186.5z"/>
		<rect id="XMLID_116_" x="101" y="97.1" fill-rule="evenodd" fill="#EA5762" width="8.8" height="110"/>
		<rect id="XMLID_115_" x="177.2" y="97.1" fill-rule="evenodd" fill="#EA5762" width="8.9" height="110"/>
		<rect id="XMLID_114_" x="93.1" y="145.7" fill-rule="evenodd" fill="#4E4D4D" width="25.2" height="15.3"/>
		<rect id="XMLID_113_" x="169" y="145.7" fill-rule="evenodd" fill="#4E4D4D" width="25.2" height="15.2"/>
	</g>
</g>
<g id="图层_1">
	<circle id="XMLID_174_" fill-rule="evenodd" fill="#F39D45" cx="141.7" cy="141.7" r="113.4"/>
	<path id="XMLID_173_" fill-rule="evenodd" fill="#FBE7B0" d="M28.3,141.7c0-62.6,50.8-113.4,113.4-113.4
		c62.6,0,113.4,50.8,113.4,113.4H28.3z"/>
	<g id="XMLID_1_">
		<g id="XMLID_279_">
			<path id="XMLID_172_" fill-rule="evenodd" fill="#EA5762" d="M27.9,60.5c35.9,15.1,156.5,81.2,173.8,94.1
				c17.3,12.9,8.9,37.5,4.6,47.2c-4.3,9.6-16.9,7.3-9.6-9c7.3-16.3,9.8-25.8-1.2-31.9C184.5,154.8,34.6,78,24,73
				C13.5,67.9,20.9,56.9,27.9,60.5z"/>
			<path id="XMLID_171_" fill-rule="evenodd" fill="#EA5762" d="M231.8,151.3c-35.2-16.6-165.1-62-186.2-66.2
				c-21.2-4.2-33.8,18.5-38.1,28.2c-4.3,9.6,5.9,17.4,13.2,1.1C27.9,98,33.2,89.8,45,93.9c11.8,4.1,169.2,64.1,180,68.6
				C235.9,166.9,239.1,154,231.8,151.3z"/>
			<path id="XMLID_283_" fill-rule="evenodd" fill="#EA5762" d="M175.3,203c17.9,2.3,26.9-5.6,34.4-16.5c10.4-15.2,13-21,18.2-20.5
				c3.8,0.4,6.2-3,7.9-7.4c1.7-4.4,1.7-5-3.2-9.3c-4.1-3.6-30.5-18.2-49.7-24.9c-2.4-0.9-5-1.6-7.6-2.3v4.9
				c18.1,5.6,36.6,15.9,40.2,21.1c6.9,9.7-6.8,35.6-20,45.5c-5.2,3.9-12.5,5.1-20.3,4.4V203z M127.8,109.9
				c-6.4-2.7-29.4-21.3-47.3-31.1c-5.1-2.8-11.1-5.6-17.2-8.2v5.6c17.9,7.2,39.7,20,42.5,32.5c3.7,16.2-24.2,39.4-41.1,39.8
				c-0.5,0-0.9,0-1.4,0v4.7c14.8,0.6,24.6-7.1,28.5-10.2c10.1-8,14.8-23.1,29-16.8c14.2,6.3,6.5,19.8,7.3,32.6
				c0.4,7.2,1.4,29.6,30.5,40c6.3,2.3,11.8,3.6,16.7,4.2v-5c-12.9-1.2-26.9-7.5-33.5-15.3c-11-12.8-12.5-49,2-57.2
				c7-3.9,19.2-2.4,31.5,1.4V122C159.4,117.7,140.7,115.3,127.8,109.9z M63.3,70.6c-15.1-6.5-30.7-11.7-34.6-12.1
				c-6.5-0.7-6.9-0.3-9,3.9c-2.2,4.2-3.1,8.2-0.3,10.8c3.9,3.6,1.4,9.3-3,27.2c-4,16.3-2.6,31.2,25.1,46.1
				c8.2,4.4,15.4,6.2,21.8,6.5v-4.7c-16.4-0.5-41.2-16.1-42.7-32.7c-1.5-16.5,8.6-43.9,20.5-45.3c3.7-0.4,12.4,1.8,22.2,5.8V70.6z"
				/>
			<path id="XMLID_280_" fill-rule="evenodd" fill="#63A1C6" d="M41.1,70.4c10.6-1.2,60.3,18.9,64.8,38.3
				c3.7,16.2-24.2,39.4-41.1,39.8c-16.4,0.4-42.6-15.6-44.1-32.7C19.1,99.2,29.2,71.7,41.1,70.4L41.1,70.4z M215.5,148
				c-6.2-8.7-54.4-32.2-71.8-22.5c-14.6,8.1-13.1,44.4-2,57.2c10.7,12.4,40.1,21.2,53.8,10.9C208.8,183.6,222.5,157.8,215.5,148z"/>
		</g>
		<g id="XMLID_275_">
			<path id="XMLID_165_" fill-rule="evenodd" fill="#97CAE8" d="M133.3,155.8l81.5-8.7c0.3,0.3,0.5,0.6,0.7,0.9
				c2.6,3.6,2.3,9.5,0.3,15.9l-79.5,8.5C134.6,167.4,133.5,161.6,133.3,155.8z"/>
			<path id="XMLID_164_" fill-rule="evenodd" fill="#97CAE8" d="M134.3,141.4l61.1-6.5c4.9,2.4,9.3,4.8,12.8,7.1l-75,8
				C133.4,147,133.7,144.2,134.3,141.4z"/>
			<path id="XMLID_163_" fill-rule="evenodd" fill="#97CAE8" d="M139.5,179.5l73.2-7.8c-1.5,3.1-3.3,6.1-5.3,9l-60.7,6.5
				c-1.9-1.4-3.5-2.9-4.9-4.5C140.9,181.7,140.2,180.7,139.5,179.5z"/>
		</g>
		<g id="XMLID_271_">
			<path id="XMLID_162_" fill-rule="evenodd" fill="#97CAE8" d="M21.3,103.3l75.2-8c4.9,4.3,8.3,8.8,9.3,13.3
				c0.2,0.8,0.3,1.7,0.3,2.6l-84.6,9c-0.5-1.5-0.8-3-1-4.6C20.3,112,20.5,107.7,21.3,103.3z"/>
			<path id="XMLID_161_" fill-rule="evenodd" fill="#97CAE8" d="M25.3,88.6L78,83c4.2,2.2,8.2,4.6,11.9,7.2l-67.4,7.2
				C23.3,94.4,24.2,91.4,25.3,88.6z"/>
			<path id="XMLID_160_" fill-rule="evenodd" fill="#97CAE8" d="M25.2,127.3l79.4-8.5c-1.2,3-3.1,6.1-5.4,9L32.4,135
				C29.6,132.6,27.2,130,25.2,127.3z"/>
		</g>
	</g>
	<g id="XMLID_2_">
	</g>
	<g id="XMLID_3_">
	</g>
	<g id="XMLID_4_">
	</g>
	<g id="XMLID_5_">
	</g>
	<g id="XMLID_6_">
	</g>
	<g id="XMLID_7_">
	</g>
</g>
</svg>
