<?xml version="1.0" standalone="no"?><!DOCTYPE svg PUBLIC "-//W3C//DTD SVG 1.1//EN" "http://www.w3.org/Graphics/SVG/1.1/DTD/svg11.dtd"><svg t="1531980026038" class="icon" style="" viewBox="0 0 1024 1024" version="1.1" xmlns="http://www.w3.org/2000/svg" p-id="6052" xmlns:xlink="http://www.w3.org/1999/xlink" width="64" height="64"><defs><style type="text/css"></style></defs><path d="M637.440837 165.311395c3.398179 6.796357 7.695875 12.793143 12.793143 17.890411 5.097268 5.097268 11.393893 7.695875 18.889875 7.695875H819.543232v-16.391214c0-4.097804-0.699625-8.895232-1.998928-14.29234-1.39925-5.497054-4.997322-12.093518-10.794215-19.989286-5.796893-7.895768-14.192393-17.390679-25.086554-28.684625-10.894161-11.293947-25.586286-25.086554-43.976429-41.477769-17.09084-14.991965-31.183286-27.085483-42.477233-36.280554-11.293947-9.195072-20.788857-16.391215-28.684625-21.488482-7.795822-5.097268-14.492232-8.3955-19.989286-9.694804-5.497054-1.39925-11.293947-1.998929-17.390679-1.998928h-1.998929v125.832555c0 4.797429 0.899518 10.794214 2.598608 17.890411 1.699089 7.096197 4.297696 14.092447 7.695875 20.98875z m-11.194 602.177242H242.752384c-17.690518 0-32.782429-6.096732-45.07584-18.390144-12.293411-12.293411-18.390143-27.285375-18.390143-45.07584 0-17.690518 6.096732-32.882375 18.390143-45.575572 12.293411-12.59325 27.285375-18.889875 45.07584-18.889875h383.394506c17.790465 0 32.882375 6.296625 45.575572 18.889875 12.59325 12.59325 18.889875 27.785108 18.889876 45.575572 0 12.993036-3.797964 24.886661-11.293947 35.780822l140.024948-145.322109V256.1627H670.023373c-19.089768 0-35.480983-4.297696-49.173644-12.793143-13.692661-8.495447-24.686768-19.089768-33.282161-31.683018-8.495447-12.59325-14.792072-26.485804-18.889875-41.477769-4.097804-14.991965-6.096732-28.984465-6.096732-41.9775V0.499732H171.19074c-15.69159 0-30.683554 4.297696-45.07584 12.793143C111.822561 21.788322 99.029418 32.382643 87.735471 44.975894 76.441525 57.66909 67.646239 71.761537 61.149721 87.453126S51.454917 118.13668 51.454917 132.528966v696.426725c0 17.09084 4.397643 33.582001 13.292875 49.673376 8.895232 15.991429 19.989286 30.183822 33.282162 42.477233 13.292875 12.293411 27.585215 22.188107 42.976965 29.684089 15.39175 7.495982 29.484197 11.293947 42.477232 11.293947H465.73287l198.393664-206.589271c-10.294482 7.895768-22.887732 11.993572-37.879697 11.993572zM197.776491 402.984006c12.293411-12.59325 27.285375-18.889875 45.07584-18.889875h383.394506c17.790465 0 32.882375 6.296625 45.575572 18.889875 12.59325 12.59325 18.889875 27.785108 18.889875 45.575572 0 17.690518-6.296625 32.782429-18.889875 45.07584-12.59325 12.293411-27.785108 18.390143-45.575572 18.390143H242.752384c-17.690518 0-32.782429-6.096732-45.07584-18.390143-12.293411-12.293411-18.390143-27.285375-18.390143-45.07584 0-17.690518 6.196679-32.882375 18.49009-45.575572z m770.586976 269.555522c-4.097804-9.594857-10.094589-18.590036-17.890411-27.085483-7.795822-8.495447-15.191857-14.492232-21.988215-17.890411-6.096732-3.398179-13.9925-5.597-23.587357-6.69641-9.594857-0.999464-18.390143 2.198821-26.585751 9.694803-3.398179 2.698554-7.695875 6.496518-12.793143 11.293947-5.097268 4.797429-9.694804 8.895232-13.792607 12.293411l86.953394 85.95393c1.998929-1.39925 4.397643-3.398179 7.196143-6.096732 1.998929-1.998929 4.397643-4.597536 7.196143-7.695876 2.698554-3.098339 5.796893-6.296625 9.195071-9.694803 7.495982-7.495982 10.894161-15.39175 10.194536-23.487411-0.799571-9.195072-2.598607-16.591107-4.097803-20.588965zM718.797231 785.978726c-12.293411 12.293411-24.586822 24.686768-36.880233 37.379965-12.293411 12.59325-23.587357 24.08709-33.781893 34.281626L609.35589 896.519478c-6.796357 6.796357-12.293411 14.692125-16.391215 23.487411-1.39925 2.698554-3.198286 7.895768-5.597 15.39175-2.398714 7.495982-4.897375 15.491697-7.695875 24.08709-2.698554 8.495447-5.097268 16.890947-7.196143 25.086554-1.998929 8.195607-3.398179 14.29234-4.097803 18.390143-1.39925 8.195607-0.699625 13.9925 1.998928 17.390679 2.698554 3.398179 8.195607 4.397643 16.391215 3.098339 4.097804-0.699625 10.194536-1.998929 18.390143-4.097804 8.195607-2.098875 16.691054-4.397643 25.586286-7.196143 8.895232-2.698554 17.590572-5.597 26.086018-8.695339 8.495447-3.098339 14.792072-5.597 18.889875-7.695875 4.097804-2.098875 8.195607-4.597536 12.293411-7.695875 4.097804-3.098339 7.895768-5.996786 11.293947-8.69534 0.699625-0.699625 4.297696-4.397643 10.694268-11.293946 6.496518-6.796357 14.492232-14.991965 24.08709-24.586822l169.709038-169.709038-85.95393-85.95393c-36.780286 35.980715-69.662662 68.763144-99.046912 98.147394z m0 0" fill="#ffffff" p-id="6053"></path></svg>