<?xml version="1.0" standalone="no"?><!DOCTYPE svg PUBLIC "-//W3C//DTD SVG 1.1//EN" "http://www.w3.org/Graphics/SVG/1.1/DTD/svg11.dtd"><svg t="1530599942137" class="icon" style="" viewBox="0 0 1024 1024" version="1.1" xmlns="http://www.w3.org/2000/svg" p-id="4676" xmlns:xlink="http://www.w3.org/1999/xlink" width="64" height="64"><defs><style type="text/css"></style></defs><path d="M512 290.816c-78.336 0-141.824-67.584-141.824-150.016 0-54.784 76.288-73.728 141.824-73.728s141.824 19.456 141.824 73.728c0 82.432-63.488 150.016-141.824 150.016z m-1.024-178.688c-50.176 0-84.992 14.336-84.992 27.136 0 48.64 38.4 88.064 84.992 88.064 47.104 0 84.992-39.424 84.992-88.064 0-8.704-14.848-14.848-20.992-17.408-16.384-6.144-39.936-9.728-64-9.728z" fill="#01a862" p-id="4677"></path><path d="M512 956.928c-104.96 0-203.264-17.92-276.48-50.176-87.552-38.912-134.144-95.232-134.144-163.84 0-268.8 184.32-487.936 410.624-487.936s410.624 219.136 410.624 487.936c0 146.944-212.992 214.016-410.624 214.016z m5.12-635.904c-189.952 0-344.576 182.784-344.576 408.064 0 103.936 173.056 158.208 344.576 158.208 171.008 0 344.576-54.272 344.576-158.208 0-225.28-154.624-408.064-344.576-408.064z" fill="#01a862" p-id="4678"></path><path d="M644.096 649.728c11.776 0 20.992 9.728 20.992 20.992s-9.728 20.992-20.992 20.992h-105.984v102.912c0 11.776-9.728 20.992-20.992 20.992s-20.992-9.728-20.992-20.992v-102.912h-105.984c-11.776 0-20.992-9.728-20.992-20.992s9.728-20.992 20.992-20.992h105.984v-45.568h-105.984c-11.776 0-20.992-9.728-20.992-20.992s9.728-20.992 20.992-20.992h97.28l-102.912-107.008c-8.192-8.192-7.68-22.016 0.512-30.208 8.192-8.192 22.016-7.68 30.208 0.512l101.888 105.984 104.96-104.96c8.192-8.192 21.504-8.192 30.208 0 8.192 8.192 8.192 21.504 0 30.208l-105.984 105.472h98.304c11.776 0 20.992 9.728 20.992 20.992s-9.728 20.992-20.992 20.992h-105.984v45.568h105.472z" fill="#01a862" p-id="4679"></path></svg>