<?xml version="1.0" standalone="no"?><!DOCTYPE svg PUBLIC "-//W3C//DTD SVG 1.1//EN" "http://www.w3.org/Graphics/SVG/1.1/DTD/svg11.dtd"><svg t="1530771723972" class="icon" style="" viewBox="0 0 1024 1024" version="1.1" xmlns="http://www.w3.org/2000/svg" p-id="2144" xmlns:xlink="http://www.w3.org/1999/xlink" width="64" height="64"><defs><style type="text/css"></style></defs><path d="M668.98 992.379c-0.377 0-0.755-0.002-1.133-0.006-30.673-0.06-61.531-12.846-80.611-33.405l-9.524-10.137c-16.566-15.437-40.331-24.255-65.396-24.255h-0.417c-26.219 0.103-50.619 9.544-68.83 26.605l-6.98 7.699c-22.729 24.546-58.563 33.255-82.343 33.255-11.295 0-21.934-1.767-31.626-5.255-2.996-1.066-22.746-8.488-65.179-33.059-36.311-21.02-53.821-34.122-59.663-38.779l-0.817-0.676c-31.59-27.014-45.703-74.947-33.612-114.054l4.192-14.097c10.184-50.273-20.087-100.264-69.394-114.521l-10.211-2.243c-38.666-8.809-73.09-44.445-81.009-83.469-1.236-4.522-2.303-11.884-3.22-28.16C2.429 543.984 2 527.389 2 511.096c0-40.256 2.365-65.542 4.48-75.563 7.078-38.338 41.641-73.852 80.689-82.786l15.048-3.502c22.698-7.566 41.625-23.174 53.38-44.051l0.118-0.206c12.721-22.189 16.367-48.025 10.304-72.842l-3.302-10.411c-5.8-18.723-5.729-40.439 0.2-61.146 5.951-20.784 17.414-39.199 32.281-51.851l0.338-0.284c5.745-4.749 23.201-18.162 61.12-40.089C298.242 44.276 317.969 36.763 321.5 35.5c10.154-3.645 21.138-5.501 32.602-5.501 24.687 0 59.112 8.743 81.767 33.274l10.585 11.31c15.016 13.787 39.129 21.82 64.713 21.607 26.715-0.256 51.619-9.31 68.518-24.876l7.496-8.21c29.842-32.137 81.252-39.434 113.712-27.925l0.415 0.151c5.15 1.91 25.054 9.926 64.928 32.89 35.275 20.462 55.67 35.055 63.516 42.317 29.24 25.304 42.369 72.869 30.566 111.147l-4.373 14.486a98.32 98.32 0 0 0 11.236 68.801c12.583 21.829 32.648 37.493 58.083 45.369l10.303 2.302c19.158 4.405 37.928 15.487 52.853 31.204 14.277 15.036 24.151 33.383 27.987 51.912 1.209 4.399 2.215 11.331 3.157 25.471 0.665 9.953 1.463 26.624 1.498 49.526 0 35.133-1.872 64.213-4.921 77.143-6.982 36.977-41.961 72.512-80.276 81.338l-13.327 3.194c-23.46 7.439-43.067 23.276-55.281 44.673-12.651 22.198-16.268 48.045-10.207 72.858l3.596 11.482c11.026 40.6-1.49 83.372-32.659 111.627l-0.918 0.798c-5.528 4.626-22.505 17.768-60.657 39.843-38.339 22.109-58.115 30.35-64.841 32.867l-0.322 0.12a94.234 94.234 0 0 1-32.269 5.681zM512.306 863.123c40.975 0 80.422 15.184 108.329 41.719l1.22 1.228 10.399 11.07c7.505 8.114 22.23 13.781 35.806 13.781l0.435 0.004c3.937 0.031 7.882-0.595 11.617-1.936 3.361-1.271 19.908-7.936 55.561-28.497 34.175-19.775 48.563-30.995 51.504-33.387 13.486-12.53 18.94-31.216 14.304-49.038l-3.806-12.238c-10.253-40.533-4.5-82.857 16.201-119.182 20.155-35.306 52.639-61.308 91.48-73.237l1.86-0.508 14.81-3.548c16.205-3.699 31.727-21.137 33.775-33.108l0.275-1.613 0.345-1.22c0.729-3.531 3.189-23.124 3.189-62.619-0.045-30.144-1.536-50.202-2.387-57.414l-0.096-0.195-0.751-4.224c-2.815-15.801-18.932-32.803-34.514-36.423l-12.207-2.727-1.054-0.316c-41.205-12.362-73.934-37.89-94.649-73.824-19.852-34.386-26.193-74.722-17.847-113.562l0.264-1.225 5.215-17.273c4.953-15.992-2.633-38.656-12.214-46.757l-1.461-1.315c-1.122-0.965-14.257-11.981-52.42-34.119-36.134-20.81-52.705-27.402-55.328-28.396-11.329-3.878-36.195-0.66-47.866 11.807l-8.8 9.641-0.817 0.773c-58.226 55.086-162.626 56.719-219.038 3.428l-1.333-1.34-11.548-12.34c-8.185-8.893-24.634-13.547-36.651-13.547-4.428 0-8.317 0.623-11.886 1.905-0.205 0.074-16.477 6.009-54.777 28.195-35.001 20.239-49.577 31.668-52.567 34.116-11.885 10.263-18.17 32.513-13.48 47.805l3.992 12.764c10.274 40.566 4.482 82.903-16.302 119.218-19.584 34.719-51.268 60.527-89.233 72.68l-1.188 0.381-17.676 4.114c-13.592 3.109-31.377 18.726-34.106 34.237l-0.291 1.45c-0.206 1.145-3.135 18.273-3.135 62.782 0 27.998 1.342 50.587 2.258 58.001l0.194 0.454 0.617 3.511c2.78 15.835 18.867 32.839 34.462 36.447l12.464 2.79c81.307 22.788 131.143 105.314 113.455 187.881l-0.251 1.172-5.071 17.044c-4.836 15.506 1.772 37.78 14.446 48.939 3.62 2.839 18.752 14.224 51.706 33.3 36.516 21.147 53.374 27.731 54.916 28.317l0.295 0.097-0.05-0.007c2.962 1.072 6.715 1.638 10.854 1.638 11.933 0 28.981-4.717 37.166-13.462l8.14-8.982 0.789-0.753c29.715-28.441 69.425-44.195 111.818-44.361 0.205 0.004 0.427 0.004 0.639 0.004z" fill="#ffffff" p-id="2145"></path><path d="M511.591 719.959c-115.96 0-210.3-94.34-210.3-210.3s94.34-210.3 210.3-210.3 210.3 94.34 210.3 210.3-94.34 210.3-210.3 210.3z m0-359.148c-82.076 0-148.848 66.773-148.848 148.848s66.773 148.848 148.848 148.848 148.848-66.773 148.848-148.848-66.772-148.848-148.848-148.848z" fill="#ffffff" p-id="2146"></path></svg>