<?xml version="1.0" standalone="no"?><!DOCTYPE svg PUBLIC "-//W3C//DTD SVG 1.1//EN" "http://www.w3.org/Graphics/SVG/1.1/DTD/svg11.dtd"><svg t="1527748194678" class="icon" style="" viewBox="0 0 1024 1024" version="1.1" xmlns="http://www.w3.org/2000/svg" p-id="842" xmlns:xlink="http://www.w3.org/1999/xlink" width="64" height="64"><defs><style type="text/css"></style></defs><path d="M897.024 403.456c43.008 22.528 71.68 65.536 71.68 114.688v206.848c0 71.68-59.392 129.024-135.168 129.024h-4.096V962.56L634.88 854.016h-92.16c-30.72 0-61.44-10.24-83.968-28.672l83.968-57.344H716.8c92.16 0 176.128-67.584 176.128-176.128v-188.416h4.096z" fill="#DAE9FF" p-id="843"></path><path d="M270.336 720.896h-59.392c-71.68 0-131.072-59.392-131.072-131.072V251.904c0-71.68 59.392-131.072 131.072-131.072h499.712c71.68 0 131.072 59.392 131.072 131.072v339.968c0 71.68-57.344 131.072-131.072 131.072H532.48" fill="#FFFFFF" p-id="844"></path><path d="M245.76 245.76h430.08c22.528 0 40.96 18.432 40.96 40.96v286.72c0 22.528-18.432 40.96-40.96 40.96H245.76c-22.528 0-40.96-18.432-40.96-40.96V286.72c0-22.528 18.432-40.96 40.96-40.96z" fill="#DAE9FF" p-id="845"></path><path d="M378.88 389.12c-16.384 0-30.72-14.336-30.72-30.72s14.336-30.72 30.72-30.72 30.72 14.336 30.72 30.72-14.336 30.72-30.72 30.72z m143.36 0c-16.384 0-30.72-14.336-30.72-30.72s14.336-30.72 30.72-30.72 30.72 14.336 30.72 30.72-14.336 30.72-30.72 30.72zM389.12 471.04c0-12.288 8.192-20.48 20.48-20.48s20.48 8.192 20.48 20.48 8.192 20.48 20.48 20.48 20.48-8.192 20.48-20.48 8.192-20.48 20.48-20.48 20.48 8.192 20.48 20.48c0 34.816-26.624 61.44-61.44 61.44s-61.44-26.624-61.44-61.44z" fill="#3988FF" p-id="846"></path><path d="M710.656 120.832H210.944c-71.68 0-131.072 59.392-131.072 131.072v339.968c0 71.68 59.392 131.072 131.072 131.072h100.352v-61.44h-98.304c-38.912 0-69.632-30.72-69.632-69.632V251.904c0-38.912 30.72-69.632 69.632-69.632h499.712c38.912 0 69.632 30.72 69.632 69.632v339.968c0 38.912-30.72 69.632-69.632 69.632h-194.56l-157.696 102.4-36.864 24.576 32.768 49.152 176.128-114.688h178.176c71.68 0 131.072-59.392 131.072-131.072V251.904c0-71.68-59.392-131.072-131.072-131.072z" fill="#3889FF" p-id="847"></path></svg>