<?xml version="1.0" encoding="utf-8"?>
<!-- Generator: Adobe Illustrator 19.0.0, SVG Export Plug-In . SVG Version: 6.00 Build 0)  -->
<svg version="1.2" baseProfile="tiny" id="图层_1"
	 xmlns="http://www.w3.org/2000/svg" xmlns:xlink="http://www.w3.org/1999/xlink" x="0px" y="0px" viewBox="0 0 283.5 283.5"
	 xml:space="preserve">
<g id="XMLID_10636_">
	<g id="XMLID_10672_">
		<path id="XMLID_10674_" fill="#2F3340" d="M264.3,188L188,264.3c-25.6,25.6-67,25.6-92.6,0L19.2,188c-25.6-25.6-25.6-67,0-92.6
			l76.3-76.3c25.6-25.6,67-25.6,92.6,0l76.3,76.3C289.9,121,289.9,162.5,264.3,188z"/>
	</g>
	<g id="XMLID_10645_">
		<linearGradient id="XMLID_8_" gradientUnits="userSpaceOnUse" x1="139.3624" y1="52.7746" x2="145.9442" y2="79.102">
			<stop  offset="0" style="stop-color:#A26A4E"/>
			<stop  offset="1" style="stop-color:#E7B293"/>
		</linearGradient>
		<path id="XMLID_10671_" fill="url(#XMLID_8_)" d="M129,74.8c0,0,7.2-0.2,7.9-8.2c0.5-5.4,0.4-10.9,0.4-10.9l16.6,0.3
			c0,0-5.5,18.3,7.3,20.9c0,0-6.1,13.4-18.5,10.2C130.3,83.9,129,74.8,129,74.8z"/>
		<path id="XMLID_10670_" fill="#E7B293" d="M168.7,174.9l10.2,6.6c0,0,2.7,2,4.3,5.9c1.6,3.9,19.8,38.1,30.2,52c0,0,3.4,6-4.3,6.3
			c0,0-5.7-11.1-16.4-20c-10.7-8.9-13.2-13.7-15.2-21.9c-1.9-8.2-16.8-9.4-16.8-9.4L168.7,174.9z"/>
		<path id="XMLID_10669_" fill="#E7B293" d="M111.5,192.8c0,0-5.4,15.7-7.8,15.6c-7.4-0.3-8-4.3-21.6,1.2c-12.1,4.9-17.6,2.7-19,3.2
			c-1.4,0.5-5.6,4.2-2.2,7.4c0,0,23.8-1,32.2-0.7c3.7,0.1,7,0.6,7,0.6s3,0.9,4.9,0.9c4.9,0,19.7-15,22.6-19.4L111.5,192.8z"/>
		<path id="XMLID_10668_" fill="#E7B293" d="M95.2,97.6c0,0-0.7,1.8-5.6,3.9c-4.9,2.1-14,8.1-21.3,18.1c-7.3,10-14.3,13-14.6,13.4
			c-0.3,0.4-4.9,7.2,7.2,2.1c0,0,24.4-11,30.3-18.4c7-8.7,19.5-11.3,19.5-11.3L95.2,97.6z"/>
		<linearGradient id="XMLID_9_" gradientUnits="userSpaceOnUse" x1="133.4151" y1="176.581" x2="105.9984" y2="196.4203">
			<stop  offset="0" style="stop-color:#999999"/>
			<stop  offset="0.3183" style="stop-color:#BBBBBE"/>
			<stop  offset="0.4305" style="stop-color:#C9C9CA"/>
			<stop  offset="0.6477" style="stop-color:#DFDFE0"/>
			<stop  offset="0.844" style="stop-color:#EDEDED"/>
			<stop  offset="1" style="stop-color:#F1F2F1"/>
		</linearGradient>
		<path id="XMLID_10667_" fill="url(#XMLID_9_)" d="M109.9,172.3c0,0,0.1,17-1,24.7c0,0,6.7,4,18.5,5.1l11.1-22.5L109.9,172.3z"/>
		<path id="XMLID_10666_" fill="#F1F2F1" d="M111.1,154.7c0,0-1.2,1.4-3,5c-1.8,3.6-0.2,26.8,12.6,29.3c4,0.8,40.7,7.5,40.7,7.5
			l8.3-21.3l-17.5-8.9l2.3-7L111.1,154.7z"/>
		<polygon id="XMLID_10665_" fill="#CFCFCF" points="154.5,159.1 148.3,158.5 149.6,164.6 152.2,166.2 		"/>
		<path id="XMLID_10664_" fill="#E7B293" d="M161.2,95.7l6.5,3.3c0,0,3.1,1.1,3.9,6.3c0.7,4.6,15.8,7.1,22.7,15
			c5.3,6.1,7.5,4.1,9.8,4.7c4.6,1.2-16.1-24.4-25.5-28.6c-1.8-0.8-8.2-11-8.2-11L161.2,95.7z"/>
		<path id="XMLID_10663_" fill="#B52326" d="M170.6,78.9c-3.6-1.6-12.9-4.7-12.9-4.7s-0.3-0.1-0.9-0.3c-1.2,2.7-2.2,8.1-9.5,8.3
			c-8.1,0.3-13.3-6.5-14.3-9.1c-10.6,1.9-16.8,4.6-18.8,5.9c-4.2,2.6-19,18.6-19,18.6s1.4,8.3,5.7,11.5l11.9-4.6
			c0,0,1.6,30.3-1.8,50.2l43.4,4.5c0,0,9.3-27.9,14.9-53.7c0,0,1.5,0.5,3,1.8c0,0,5.5-2.2,6.4-11.7
			C178.8,95.6,174.2,80.5,170.6,78.9z"/>
		<path id="XMLID_10662_" fill="#F1F2F1" d="M209.2,245.7c7.7-0.3,4.3-6.3,4.3-6.3c-5.9-7.8-14.2-22-20.6-33.7l-12.1,6.8
			c2.2,4,5.7,7.9,12,13.2C203.5,234.6,209.2,245.7,209.2,245.7z"/>
		<g id="XMLID_10657_">
			<path id="XMLID_10661_" fill="#170E21" d="M237.1,237.3l-0.3-1.1l-24.9,16.3c0,0,0.2,0.6,0.9,1c0.3-0.1,0.7-0.2,1.1-0.3l0.7,1.2
				l1.9-0.9l-0.4-1.3c0.6-0.3,1.3-0.6,2-1l0.7,1.2l1.9-0.9l-0.5-1.4c2-1.1,4.1-2.3,6.2-3.6l0.9,1.1l1.7-1.1l-0.6-1.3
				c0.6-0.4,1.1-0.8,1.7-1.1l1,1.1l1.7-1.2l-0.7-1.3c0.4-0.3,0.9-0.7,1.2-1l1.2,1l1.5-1.5l-0.9-1.2
				C236,239.1,236.7,238.1,237.1,237.3z"/>
			<path id="XMLID_10660_" fill="#B52326" d="M206.3,243.5l-0.1-0.5c-0.2-0.6,0.4-1.1,1-1c0.6,0.2,1.3,0.4,1.7,0.4
				c0.9,0,3.4-0.1,3.7-4.9c0-0.5,0.5-0.8,0.9-0.7c2.5,0.4,10,1,20.9-2.7c0.4-0.1,0.8-0.1,1.2,0c1,0.3,2.4,1.3,0.1,4.2
				c-3.2,4.1-9.8,7-12.3,8.4c-2.5,1.5-7.9,5.1-10.9,5.7C209.3,253,206.3,243.5,206.3,243.5z"/>
			<path id="XMLID_10659_" fill="#170E21" d="M224,236.6c-0.9,0.1-1.8,0.2-2.7,0.3l1.4,10.6l2.5-1.1L224,236.6z"/>
			<path id="XMLID_10658_" fill="#170E21" d="M227.6,244.7c0.8-0.4,1.6-0.9,2.5-1.4l-1.2-7.6c-0.9,0.2-1.8,0.4-2.6,0.6L227.6,244.7z
				"/>
		</g>
		<path id="XMLID_10656_" fill="#E7B293" d="M192.3,117.6c0,0,1.3,0.8,2.5,4c1.2,3.2-2.5,8.7,0.4,9.5c5.1,1.5,3,7.3,10.8,2
			c1.8-1.2,0.3-5.4-0.6-7.6c-0.8-2.3-4.6-7.2-4.6-7.2S192.4,111.4,192.3,117.6z"/>
		<path id="XMLID_10655_" fill="#E7B293" d="M62.4,131.8c0,0,0.4-0.5-0.8,2.6s0.8,10-2.2,10.8c-5.1,1.5-3,7.3-10.8,2
			c-1.8-1.2-0.3-5.4,0.6-7.6c0.8-2.3,4.6-7.2,4.6-7.2S59.8,127.2,62.4,131.8z"/>
		<path id="XMLID_10654_" fill="#E7B293" d="M160.9,38.1l1,9.3l-0.5,0.8l3.8,6.2c0,0-1.9,1.2-3.3,0.9l0.4,2l-1.7,0.7l0.9,0.8
			l-1.1,1.3l0.4,8.3c0,0-1.2,1.3-4,0.9c-2.8-0.5-11.7-4.9-11.7-4.9l-2.1-6.8c-7.9-5-4.5-19.5,0.3-19.5H160.9z"/>
		<path id="XMLID_10653_" fill="#3D332E" d="M141.3,58.1l-5,6.9l-1.1-4.3c0,0-12.9-15.5,0-25.7c5.8-13.1,28.1-0.2,33.9-1.8
			c-1.2,2.7-8.3,8.4-11.4,8c-3.8-0.5-8.2-0.7-8.8,0.7c-1.5,3.6-0.4,9.2-0.4,9.2l-1.7,1.1l-1.6-4.2c0,0-4.3-1.3-4.8,3
			c-0.5,3.6,2.2,4.8,2.7,6.5L141.3,58.1z"/>
		<path id="XMLID_10652_" fill="#F1F2F1" d="M82.2,209.6c-12.1,4.9-17.6,2.7-19,3.2c-1.4,0.5-5.6,4.2-2.2,7.4c0,0,23.8-1,32.2-0.7
			c0.6,0,1.2,0,1.8,0.1c-0.8-4.2-1.4-9.5-1.7-12.8C90.8,206.8,87.4,207.5,82.2,209.6z"/>
		<g id="XMLID_10647_">
			<path id="XMLID_10651_" fill="#170E21" d="M48.7,238.3l1.1,0.5l4.2-29.1c0,0-0.6-0.2-1.4,0c-0.1,0.2-0.3,0.6-0.5,1.1l-1.4-0.3
				l-0.6,2l1.2,0.5c-0.2,0.7-0.4,1.4-0.6,2.1l-1.4-0.2l-0.6,2l1.4,0.6c-0.5,2.2-1,4.6-1.4,7l-1.4-0.1l-0.3,2l1.4,0.4
				c-0.1,0.7-0.2,1.3-0.2,2h-1.4l-0.2,2l1.5,0.3c0,0.5-0.1,1.1-0.1,1.6l-1.5,0.3l0.1,2l1.4,0.1C48.1,236.4,48.3,237.5,48.7,238.3z"
				/>
			<path id="XMLID_10650_" fill="#B52326" d="M64.1,211.4l0.5,0.2c0.5,0.3,0.6,1,0.1,1.4c-0.6,0.3-1.1,0.7-1.3,1
				c-0.6,0.7-2.1,2.6,1.2,6c0.3,0.3,0.3,0.8-0.1,1.1c-1.9,1.6-7.3,6.7-11.6,17.2c-0.2,0.4-0.4,0.7-0.8,0.9c-0.9,0.5-2.5,0.9-3.2-2.7
				c-1-5,1.2-11.8,1.8-14.6c0.5-2.8,1.3-9.2,2.9-11.8C55.2,207.5,64.1,211.4,64.1,211.4z"/>
			<path id="XMLID_10649_" fill="#170E21" d="M57.7,229.1c0.5-0.8,1-1.5,1.5-2.2l-8.7-5.9l-0.8,2.6L57.7,229.1z"/>
			<path id="XMLID_10648_" fill="#170E21" d="M49.4,226.5c-0.2,0.9-0.4,1.8-0.6,2.8l6.4,4c0.4-0.8,0.9-1.6,1.3-2.3L49.4,226.5z"/>
		</g>
		<path id="XMLID_10646_" fill="#F1F2F1" d="M157.3,103.9l-12.2-1.3l-1.9,11.8l-11.6-1.1l-1.4,11.1l11.5,1.3l-1.6,11.2
			c0,0,8.4,1,11.8,1.3l1.9-11.9l7,0.4l2.1-10.6l-7.2-0.7L157.3,103.9z"/>
	</g>
	<g id="XMLID_10637_">
		<path id="XMLID_10644_" fill="#F1F2F1" d="M229.3,173.5c1.9,9.6-4.4,18.9-14,20.8c-9.6,1.9-18.9-4.4-20.8-14
			c-1.9-9.6,4.4-18.9,14-20.8C218.1,157.6,227.4,163.9,229.3,173.5z"/>
		<polygon id="XMLID_10643_" fill="#221F20" points="212.4,171.5 208.7,178.4 213.9,183.4 220.8,179.9 219.3,172.4 		"/>
		<path id="XMLID_10642_" fill="#221F20" d="M200.9,163.3l0.3,3.2l7.3-0.6l3.2-4.7l-3.9-1.6c0,0-1.7,0.2-3.6,1.3
			C202.1,162,200.9,163.3,200.9,163.3z"/>
		<path id="XMLID_10641_" fill="#221F20" d="M197.9,173.3l-3.5,3.3c0,0,0.4,3.8,1.2,7.2c0,0,2.6,1.5,4.4,1.7c0,0,1-4.7,1.8-6.2
			C201.7,179.4,198.6,174.7,197.9,173.3z"/>
		<path id="XMLID_10640_" fill="#221F20" d="M206.4,193.7c0,0-0.6-2.1-0.7-2.6c0,0,5.2-0.7,6.7-1.3c0,0,3.4,2,4.6,2.4
			c0,0-1.3,1.4-2.5,2.2C214.4,194.4,209.3,195,206.4,193.7z"/>
		<path id="XMLID_10639_" fill="#221F20" d="M228.6,178.3c0,0-0.9,2.8-3.1,4.4c0,0-0.5,3.7-1.7,5.8c0,0,0.4,0,1.5-0.4
			c0,0,0.8-1,2.3-4c1.4-2.9,1.3-4,1.3-4L228.6,178.3z"/>
		<path id="XMLID_10638_" fill="#221F20" d="M219.4,162.6c0,0,1.8,1.8,3.4,5.3c0,0,3.2,1.4,4.4,2.5c0,0-0.1-1.2-0.9-3.4
			c0,0-3.1-4-4.8-4.9C221.6,162.1,220.7,162.2,219.4,162.6z"/>
	</g>
</g>
<g id="XMLID_1_">
</g>
<g id="XMLID_2_">
</g>
<g id="XMLID_3_">
</g>
<g id="XMLID_4_">
</g>
<g id="XMLID_5_">
</g>
<g id="XMLID_6_">
</g>
</svg>
