<?xml version="1.0" standalone="no"?><!DOCTYPE svg PUBLIC "-//W3C//DTD SVG 1.1//EN" "http://www.w3.org/Graphics/SVG/1.1/DTD/svg11.dtd"><svg t="1526539568572" class="icon" style="" viewBox="0 0 1024 1024" version="1.1" xmlns="http://www.w3.org/2000/svg" p-id="1545" xmlns:xlink="http://www.w3.org/1999/xlink" width="64" height="64"><defs><style type="text/css"></style></defs><path d="M799.4 672.2m-145 0a145 145 0 1 0 290 0 145 145 0 1 0-290 0Z" fill="#29A3EC" p-id="1546"></path><path d="M799.4 827.2c-62.5 0-118.5-37.2-142.8-94.7-2.1-5.1 0.2-11 5.3-13.1 5.1-2.2 11 0.2 13.1 5.3 21.2 50.1 70 82.5 124.4 82.5 74.4 0 135-60.6 135-135s-60.6-135-135-135-135 60.6-135 135c0 5.5-4.5 10-10 10s-10-4.5-10-10c0-85.5 69.5-155 155-155s155 69.5 155 155-69.5 155-155 155z" fill="#5A3392" p-id="1547"></path><path d="M655.5 700.6m-10 0a10 10 0 1 0 20 0 10 10 0 1 0-20 0Z" fill="#5A3392" p-id="1548"></path><path d="M513.1 482.5m-140.1 0a140.1 140.1 0 1 0 280.2 0 140.1 140.1 0 1 0-280.2 0Z" fill="#EE746C" p-id="1549"></path><path d="M513.1 632.6c-82.8 0-150.1-67.3-150.1-150.1s67.3-150.1 150.1-150.1 150.1 67.3 150.1 150.1-67.3 150.1-150.1 150.1z m0-280.2c-71.7 0-130.1 58.4-130.1 130.1s58.4 130.1 130.1 130.1 130.1-58.4 130.1-130.1-58.4-130.1-130.1-130.1z" fill="#5A3392" p-id="1550"></path><path d="M226.7 672.2m-145 0a145 145 0 1 0 290 0 145 145 0 1 0-290 0Z" fill="#29A3EC" p-id="1551"></path><path d="M226.7 672.2m-114.9 0a114.9 114.9 0 1 0 229.8 0 114.9 114.9 0 1 0-229.8 0Z" fill="#3CDEF6" p-id="1552"></path><path d="M226.7 827.2c-62.5 0-118.5-37.2-142.8-94.7-2.1-5.1 0.2-11 5.3-13.1 5.1-2.2 11 0.2 13.1 5.3 21.2 50.1 70 82.5 124.4 82.5 74.4 0 135-60.6 135-135s-60.6-135-135-135-135 60.6-135 135c0 5.5-4.5 10-10 10s-10-4.5-10-10c0-85.5 69.5-155 155-155s155 69.5 155 155-69.5 155-155 155z" fill="#5A3392" p-id="1553"></path><path d="M689 332.1S660.6 551.7 457.2 420c-204.8-132.7-336.7-3.3-336.7-3.3v98.1c30.3-20.5 66.8-32.4 106.1-32.4 104.8 0 189.8 85 189.8 189.8h193.2c0-104.8 85-189.8 189.8-189.8 13.1 0 25.9 1.3 38.3 3.9 0 0-35.3-153.1-148.7-154.2z" fill="#EE746C" p-id="1554"></path><path d="M609.6 682.2H416.4c-5.5 0-10-4.5-10-10 0-99.1-80.7-179.8-179.8-179.8-36.1 0-70.8 10.6-100.5 30.7-3.1 2.1-7 2.3-10.3 0.6-3.3-1.7-5.3-5.1-5.3-8.8v-98.1c0-2.7 1.1-5.3 3-7.1 1.4-1.4 35.5-34.4 96-50.6 35.4-9.5 72.5-11.3 110.3-5.3 46.9 7.4 95 26.9 142.9 58 60 38.9 109.5 49.8 146.9 32.5 57.5-26.6 69.4-112.5 69.5-113.3 0.7-5 4.9-8.7 9.9-8.7h0.1c50 0.5 93.4 29 125.4 82.4 23.5 39.3 32.6 78 33 79.6 0.8 3.3-0.2 6.8-2.6 9.2-2.4 2.4-5.9 3.5-9.2 2.8-11.7-2.4-23.9-3.7-36.2-3.7-99.1 0-179.8 80.7-179.8 179.8-0.1 5.3-4.6 9.8-10.1 9.8z m-183.4-20h173.7c5.2-105.5 92.7-189.8 199.6-189.8 8.2 0 16.3 0.5 24.3 1.5-4.6-14.3-13.1-37-26.7-59.5-26.7-44.4-60.2-68.5-99.7-71.8-1.9 9.5-5.8 25.4-12.9 42.9-15.2 37.2-38.2 63.7-66.4 76.8-44.1 20.4-100 9-166.3-33.8-45.5-29.5-91-48-135.1-55-35-5.6-69.3-3.9-102 4.9-45.7 12.3-75.1 35.1-84.1 42.9V497c29.3-16.1 62.2-24.6 96.1-24.6 106.7 0 194.2 84.3 199.5 189.8z" fill="#5A3392" p-id="1555"></path><path d="M226.6 764.1c-24.1 0-46.8-9.2-64-25.9-4-3.9-4-10.2-0.2-14.1 3.9-4 10.2-4 14.1-0.2 13.4 13.1 31.2 20.3 50 20.3 20.6 0 40.3-8.9 53.9-24.3 3.7-4.1 10-4.5 14.1-0.9 4.1 3.7 4.5 10 0.9 14.1-17.3 19.7-42.4 31-68.8 31z" fill="#FFFFFF" p-id="1556"></path><path d="M799.4 672.2m-114.9 0a114.9 114.9 0 1 0 229.8 0 114.9 114.9 0 1 0-229.8 0Z" fill="#3CDEF6" p-id="1557"></path><path d="M799.4 764.1c-24.1 0-46.8-9.2-64-25.9-4-3.9-4-10.2-0.2-14.1 3.9-4 10.2-4 14.1-0.2 13.4 13.1 31.2 20.3 50 20.3 20.6 0 40.3-8.9 53.9-24.3 3.7-4.1 10-4.5 14.1-0.9 4.1 3.7 4.5 10 0.9 14.1-17.3 19.7-42.4 31-68.8 31z" fill="#FFFFFF" p-id="1558"></path><path d="M226.7 682.2c-2.6 0-5.1-1-7.1-2.9-3.9-3.9-3.9-10.2 0-14.1l124.3-124.4c3.9-3.9 10.2-3.9 14.1 0 3.9 3.9 3.9 10.2 0 14.1L233.8 679.3c-2 1.9-4.5 2.9-7.1 2.9zM799.5 682.2c-2.6 0-5.1-1-7.1-2.9L668 555c-3.9-3.9-3.9-10.2 0-14.1s10.2-3.9 14.1 0l124.4 124.3c3.9 3.9 3.9 10.2 0 14.1-1.9 1.9-4.4 2.9-7 2.9z" fill="#5A3392" p-id="1559"></path><path d="M83.8 700.6m-10 0a10 10 0 1 0 20 0 10 10 0 1 0-20 0Z" fill="#5A3392" p-id="1560"></path><path d="M457.2 430.5c-20.8-13.9-41.2-24.4-60.6-33-14.9 22.3-23.6 49.1-23.6 77.9 0 77.4 62.7 140.1 140.1 140.1s140.1-62.7 140.1-140.1c0-13.1-1.8-23.2-5.2-35.3-43.5 42.4-105.3 47.7-190.8-9.6z" fill="#FB9761" p-id="1561"></path><path d="M571.2 625.6h-58.1c-5.5 0-10-4.5-10-10s4.5-10 10-10h58.1c5.5 0 10 4.5 10 10s-4.5 10-10 10z" fill="#FFFFFF" p-id="1562"></path></svg>