<?xml version="1.0" encoding="utf-8"?>
<!-- Generator: Adobe Illustrator 19.0.0, SVG Export Plug-In . SVG Version: 6.00 Build 0)  -->
<svg version="1.2" baseProfile="tiny" xmlns="http://www.w3.org/2000/svg" xmlns:xlink="http://www.w3.org/1999/xlink" x="0px"
	 y="0px" viewBox="0 0 283.5 283.5" xml:space="preserve">
<g id="图层_2" display="none">
	<path id="XMLID_127_" display="inline" fill-rule="evenodd" fill="#F39D45" d="M141.7,255.1c62.5,0,113.4-50.9,113.4-113.4
		c0-62.5-50.9-113.4-113.4-113.4c-62.4,0-113.4,50.9-113.4,113.4C28.3,204.2,79.3,255.1,141.7,255.1z"/>
	<path id="XMLID_126_" display="inline" fill-rule="evenodd" fill="#FBE7B0" d="M28.3,141.7c0-62.6,50.8-113.4,113.4-113.4
		s113.4,50.8,113.4,113.4H28.3z"/>
	<g id="XMLID_270_" display="inline">
		<rect id="XMLID_125_" x="173" y="93.4" fill-rule="evenodd" fill="#EA5762" width="16.1" height="4.4"/>
		<rect id="XMLID_124_" x="97.3" y="93.4" fill-rule="evenodd" fill="#EA5762" width="16.1" height="4.4"/>
		<rect id="XMLID_123_" x="142.3" y="99.5" fill-rule="evenodd" fill="#5A5657" width="0.5" height="4.3"/>
		<path id="XMLID_122_" fill-rule="evenodd" fill="#EA5762" d="M165.6,76.3h-11h-11.7h-21.5c-4.4,0-8.1,3.6-8.1,8l0,18.5
			c0,1.4,1.2,2.6,2.6,2.6c1.1,0,2-0.7,2.4-1.6h7.8l0.4,0l0.4,0h15.6v-4.3h-18.1c0,0,0.1-11.7,0.1-14.1l18.5,0v0l20.7,0
			c0,2.6,0.2,14.1,0.2,14.1l-20.9,0v4.3h17.7l0.4,0l0.4,0h7.4c0.4,0.9,1.3,1.6,2.4,1.6c1.1,0,2-0.7,2.4-1.6h0.1v-0.3
			c0.1-0.2,0.1-0.4,0.1-0.7V84.3C173.7,79.9,170,76.3,165.6,76.3z"/>
		<path id="XMLID_121_" fill-rule="evenodd" fill="#5EA4CD" d="M93.3,97.1H71.6c-2.3,0-4.1,1.8-4.1,4.1v21.4v60.3V203
			c0,2.3,1.8,4.1,4.1,4.1h20.1h50.7h49.4h20.1c2.3,0,4.1-1.8,4.1-4.1v-20.1v-61.6v-20.1c0-2.3-1.8-4.1-4.1-4.1h-20.1h-49.4v0H93.3z"
			/>
		<path id="XMLID_120_" fill-rule="evenodd" fill="#EA5762" d="M88.1,98.2c0-0.4,0-0.7,0-1.1H70.7c-1.8,0-3.3,1.5-3.3,3.3l0,17
			c0.4,0,0.9,0.1,1.3,0.1C79.4,117.5,88.1,108.8,88.1,98.2z"/>
		<path id="XMLID_119_" fill-rule="evenodd" fill="#EA5762" d="M216,117.7v-17.1c0-1.9-1.6-3.5-3.5-3.5h-17.1
			C195.4,108.5,204.6,117.7,216,117.7z"/>
		<path id="XMLID_118_" fill-rule="evenodd" fill="#EA5762" d="M216,203.6v-17.1c-11.4,0-20.6,9.2-20.6,20.6h17.1
			C214.4,207.1,216,205.6,216,203.6z"/>
		<path id="XMLID_117_" fill-rule="evenodd" fill="#EA5762" d="M67.5,186.5v17.1c0,1.9,1.6,3.5,3.5,3.5h17.1
			C88.1,195.8,78.8,186.5,67.5,186.5z"/>
		<rect id="XMLID_116_" x="101" y="97.1" fill-rule="evenodd" fill="#EA5762" width="8.8" height="110"/>
		<rect id="XMLID_115_" x="177.2" y="97.1" fill-rule="evenodd" fill="#EA5762" width="8.9" height="110"/>
		<rect id="XMLID_114_" x="93.1" y="145.7" fill-rule="evenodd" fill="#4E4D4D" width="25.2" height="15.3"/>
		<rect id="XMLID_113_" x="169" y="145.7" fill-rule="evenodd" fill="#4E4D4D" width="25.2" height="15.2"/>
	</g>
</g>
<g id="图层_1">
	<circle id="XMLID_112_" fill-rule="evenodd" fill="#EA5762" cx="141.7" cy="141.1" r="113.4"/>
	<path id="XMLID_111_" fill-rule="evenodd" fill="#F8C9CD" d="M28.3,141.1c0-62.6,50.8-113.4,113.4-113.4
		c62.6,0,113.4,50.8,113.4,113.4H28.3z"/>
	<g id="XMLID_216_">
		<path id="XMLID_110_" fill-rule="evenodd" fill="#F39D45" d="M141,69.5L141,69.5c1.8,0,3.3,1.5,3.3,3.3v130.8
			c0,1.8-1.5,3.3-3.3,3.3h0c-1.8,0-3.3-1.5-3.3-3.3V72.8C137.8,71,139.2,69.5,141,69.5z"/>
		<g id="XMLID_229_">
			<path id="XMLID_109_" fill-rule="evenodd" fill="#63A1C6" d="M73.9,107.9c-12.6,5.3-31,0.7-33.6-11.6c-0.1-1.5-0.2-3.1-0.2-4.7
				c0-41.7,38.3-76.2,88.1-81.6c-31.6,7.7-55.5,41.5-55.5,82.1C72.6,97.5,73.1,102.8,73.9,107.9z"/>
			<path id="XMLID_108_" fill-rule="evenodd" fill="#63A1C6" d="M146.2,9.2c13.1,6.5,23.2,41.2,23.2,83.1c0,8.1-0.4,16-1.1,23.4
				c-9.4,14.1-43.1,14.1-53.1,0c-0.7-7.4-1.1-15.3-1.1-23.4c0-42,10.1-76.8,23.3-83.1C140.2,9,142.9,9,146.2,9.2z"/>
			<path id="XMLID_107_" fill-rule="evenodd" fill="#63A1C6" d="M209.6,107.9c12.6,5.3,31,0.7,33.6-11.6c0.1-1.5,0.2-3.1,0.2-4.7
				c0-41.7-38.3-76.2-88.1-81.6c31.6,7.7,55.5,41.5,55.5,82.1C210.8,97.5,210.4,102.8,209.6,107.9z"/>
		</g>
		<g id="XMLID_226_">
			<path id="XMLID_106_" fill-rule="evenodd" fill="#F39D45" d="M115.2,115.7c-8.7,8.2-37.3,6.2-41.3-7.8
				c-0.8-5.1-1.2-10.4-1.2-15.7c0-41.2,24.5-75.4,56.8-82.4c1.3-0.3,6.1-0.5,7.8-0.5c-13.2,6.4-23.2,41.2-23.2,83.1
				C114.1,100.4,114.5,108.3,115.2,115.7z"/>
			<path id="XMLID_105_" fill-rule="evenodd" fill="#F39D45" d="M168.3,115.7c8.7,8.2,37.3,6.2,41.3-7.8c0.8-5.1,1.2-10.4,1.2-15.7
				c0-41.2-24.5-75.4-56.8-82.4c-1.3-0.3-6.1-0.5-7.8-0.5c13.2,6.4,23.2,41.2,23.2,83.1C169.4,100.4,169,108.3,168.3,115.7z"/>
		</g>
		<g id="XMLID_223_">
			<path id="XMLID_104_" fill-rule="evenodd" fill="#FBE7B0" d="M76.9,63.3c8.3-27.5,28.3-48.3,52.6-53.6c1.3-0.3,6.1-0.5,7.8-0.5
				c-11,5.4-19.8,30.3-22.4,62.7C101,70.2,88.2,67.3,76.9,63.3z"/>
			<path id="XMLID_103_" fill-rule="evenodd" fill="#FBE7B0" d="M206.6,63.3C198.3,35.8,178.3,15,154,9.7c-1.3-0.3-6.1-0.5-7.8-0.5
				c11,5.4,19.8,30.3,22.4,62.7C182.4,70.2,195.3,67.3,206.6,63.3z"/>
		</g>
		<g id="XMLID_219_">
			<path id="XMLID_102_" fill-rule="evenodd" fill="#97CAE8" d="M52.8,51.8C68,29.5,95.6,13.6,128.1,10
				C104.4,15.8,85,36.3,76.9,63.3C67.7,60.1,59.6,56.2,52.8,51.8z"/>
			<path id="XMLID_101_" fill-rule="evenodd" fill="#97CAE8" d="M146.2,9.2c10.9,5.4,19.7,30.4,22.4,62.7c-8.6,1-17.6,1.6-26.8,1.6
				c-9.2,0-18.2-0.6-26.8-1.6c2.7-32.5,11.5-57.5,22.5-62.8C140.2,9,142.9,9,146.2,9.2z"/>
			<path id="XMLID_100_" fill-rule="evenodd" fill="#97CAE8" d="M230.7,51.8c-15.2-22.3-42.9-38.2-75.4-41.8
				c23.7,5.8,43.1,26.2,51.3,53.3C215.8,60.1,223.9,56.2,230.7,51.8z"/>
		</g>
		<path id="XMLID_99_" fill-rule="evenodd" fill="#F39D45" d="M141,0L141,0c1.8,0,3.3,1.5,3.3,3.3v5.5c0,1.8-1.5,3.3-3.3,3.3h0
			c-1.8,0-3.3-1.5-3.3-3.3V3.3C137.8,1.5,139.2,0,141,0z"/>
		<ellipse id="XMLID_98_" fill-rule="evenodd" fill="#F39D45" cx="141" cy="10.7" rx="8.6" ry="1.7"/>
	</g>
	<g id="XMLID_198_">
		<path id="XMLID_97_" fill-rule="evenodd" fill="#FBE7B0" d="M194.3,126.9c-26.9,34.1-53.8,68.2-80.7,102.3
			c-2.7,3.4-5.4,6.9-8.2,10.3c-2.6,3.3-8.2-0.2-5.5-3.6c26.9-34.1,53.8-68.2,80.7-102.3c2.7-3.4,5.4-6.9,8.2-10.3
			C191.3,120,196.9,123.6,194.3,126.9z"/>
		<path id="XMLID_96_" fill-rule="evenodd" fill="#FBE7B0" d="M161.2,158c6.2,19.8,12.5,39.7,18.7,59.6c1.3,4.1-5.2,5.5-6.4,1.5
			c-6.2-19.8-12.5-39.7-18.7-59.5C153.5,155.4,159.9,153.9,161.2,158z"/>
		<path id="XMLID_95_" fill-rule="evenodd" fill="#FBE7B0" d="M161.2,158.2C161.3,158.5,161.1,157.9,161.2,158.2
			c-1.9-2.8-7.7-1.2-4.9,6.2c-0.1-0.4-1.4-4.4-1.5-4.8C153.3,155.1,160,153.5,161.2,158.2z"/>
		<path id="XMLID_94_" fill-rule="evenodd" fill="#FBE7B0" d="M106.9,188.5c0,0,1-1.6,4.2-0.6l5.3,1.9l-3.2,5.6l-5.4-2
			C107.8,193.4,105.1,191.4,106.9,188.5z"/>
		<path id="XMLID_93_" fill-rule="evenodd" fill="#FBE7B0" d="M193,122.3c1.8,0.8,2.6,2.8,1.5,4.2c-24.6,33.8-51.8,65.7-77.7,98.6
			c-3.8,4.9-7.7,9.7-11.5,14.6c-1.2,1.6-3.3,1.4-4.7,0.5L193,122.3z"/>
		<path id="XMLID_92_" fill-rule="evenodd" fill="#FBE7B0" d="M235.4,143.9c-15.7-2.8-31.4-5.6-47.1-8.4c-4-0.7-3.8-7.3,0.3-6.6
			c15.7,2.8,31.4,5.6,47.1,8.4C239.7,138.1,239.4,144.7,235.4,143.9z"/>
		<path id="XMLID_91_" fill-rule="evenodd" fill="#FBE7B0" d="M238.3,142.3c-0.2,1.6-1.3,2.9-3.2,2.5c-15.6-3.1-31.3-6.2-46.9-9.3
			c-1.8-0.4-2.7-1.9-2.8-3.4L238.3,142.3z"/>
		<path id="XMLID_90_" fill-rule="evenodd" fill="#FBE7B0" d="M157.4,245.4c-15-5.4-30-10.9-45-16.3c-0.9-0.3-1.4-0.6-2.3-1.1
			c-2.3-1.2,0.7-6.4,3.7-5.3c15,5.4,30,10.9,45,16.3C162.7,240.3,160.4,246.5,157.4,245.4z"/>
		<path id="XMLID_89_" fill-rule="evenodd" fill="#FBE7B0" d="M160.3,244.2c-0.8,1.4-1.4,2.7-3.3,2c-14.9-5.7-29.8-11.4-44.7-17.1
			c-0.8-0.3-2.4-0.7-2.1-1.1c0.4-0.6,0.9-1.2,1.7-2.1L160.3,244.2z"/>
		<path id="XMLID_88_" fill-rule="evenodd" fill="#91AD44" d="M198.9,129.4c0,0-12.5,5.2-21.1,33.2c0,0-12.9,31.9-49.1,31.7
			l32.2,11.3c0,0,36,7,51.8-36.6c0,0,4.8-22.5,20.2-32.1L198.9,129.4z"/>
		<path id="XMLID_87_" fill-rule="evenodd" fill="#91AD44" d="M151.6,202.3c0,0-5-2.6-6.4,1.3c0,0-0.2,3,4.9,4.8l-37.2-13.2
			c0,0-1.5-1.5-0.6-3.5c0,0,0.6-2.9,5.3-1.7L151.6,202.3z"/>
		<path id="XMLID_86_" fill-rule="evenodd" fill="#FBE7B0" d="M243.5,137.9c-26.9,34.5-53.8,68.9-80.7,103.4
			c-4,5.1-8,10.2-11.9,15.3c-2.6,3.3-8.1-0.2-5.5-3.6c26.9-34.4,53.8-68.9,80.7-103.4c4-5.1,8-10.2,11.9-15.3
			C240.6,131,246.1,134.6,243.5,137.9z"/>
		<path id="XMLID_85_" fill-rule="evenodd" fill="#FBE7B0" d="M242.9,133.9c1.6,0.8,2.5,2.7,1.1,4.5c-27,34.3-54.1,68.7-81.1,103
			c-4,5.1-8,10.2-12,15.2c-1.3,1.6-3.3,1.6-4.7,0.7L242.9,133.9z"/>
		<path id="XMLID_84_" fill-rule="evenodd" fill="#FBE7B0" d="M225.3,236.1c-5.9-20.3-11.8-40.6-17.7-60.8c-1.2-4.1,5.2-5.5,6.4-1.5
			c5.9,20.3,11.8,40.6,17.7,60.8C232.9,238.7,226.4,240.2,225.3,236.1z"/>
		<path id="XMLID_83_" fill-rule="evenodd" fill="#FBE7B0" d="M235,241.5c-29.2-11.4-58.4-22.8-87.7-34.2c-3.9-1.5-1.9-7.8,2-6.3
			c29.2,11.4,58.5,22.8,87.7,34.2C241,236.7,239,243,235,241.5z"/>
		<path id="XMLID_82_" fill-rule="evenodd" fill="#FBE7B0" d="M239,239.5c-0.5,1.5-2,2.7-4,1.9c-29.2-11.4-58.5-22.8-87.7-34.1
			c-1.9-0.7-2.4-2.6-2-4.1L239,239.5z"/>
	</g>
	<g id="XMLID_1_">
	</g>
	<g id="XMLID_2_">
	</g>
	<g id="XMLID_3_">
	</g>
	<g id="XMLID_4_">
	</g>
	<g id="XMLID_5_">
	</g>
	<g id="XMLID_6_">
	</g>
</g>
</svg>
