<?xml version="1.0" encoding="utf-8"?>
<!-- Generator: Adobe Illustrator 19.0.0, SVG Export Plug-In . SVG Version: 6.00 Build 0)  -->
<svg version="1.2" baseProfile="tiny" xmlns="http://www.w3.org/2000/svg" xmlns:xlink="http://www.w3.org/1999/xlink" x="0px"
	 y="0px" viewBox="0 0 283.5 283.5" xml:space="preserve">
<g id="图层_2" display="none">
	<path id="XMLID_127_" display="inline" fill-rule="evenodd" fill="#F39D45" d="M141.7,255.1c62.5,0,113.4-50.9,113.4-113.4
		c0-62.5-50.9-113.4-113.4-113.4c-62.4,0-113.4,50.9-113.4,113.4C28.3,204.2,79.3,255.1,141.7,255.1z"/>
	<path id="XMLID_126_" display="inline" fill-rule="evenodd" fill="#FBE7B0" d="M28.3,141.7c0-62.6,50.8-113.4,113.4-113.4
		s113.4,50.8,113.4,113.4H28.3z"/>
	<g id="XMLID_270_" display="inline">
		<rect id="XMLID_125_" x="173" y="93.4" fill-rule="evenodd" fill="#EA5762" width="16.1" height="4.4"/>
		<rect id="XMLID_124_" x="97.3" y="93.4" fill-rule="evenodd" fill="#EA5762" width="16.1" height="4.4"/>
		<rect id="XMLID_123_" x="142.3" y="99.5" fill-rule="evenodd" fill="#5A5657" width="0.5" height="4.3"/>
		<path id="XMLID_122_" fill-rule="evenodd" fill="#EA5762" d="M165.6,76.3h-11h-11.7h-21.5c-4.4,0-8.1,3.6-8.1,8l0,18.5
			c0,1.4,1.2,2.6,2.6,2.6c1.1,0,2-0.7,2.4-1.6h7.8l0.4,0l0.4,0h15.6v-4.3h-18.1c0,0,0.1-11.7,0.1-14.1l18.5,0v0l20.7,0
			c0,2.6,0.2,14.1,0.2,14.1l-20.9,0v4.3h17.7l0.4,0l0.4,0h7.4c0.4,0.9,1.3,1.6,2.4,1.6c1.1,0,2-0.7,2.4-1.6h0.1v-0.3
			c0.1-0.2,0.1-0.4,0.1-0.7V84.3C173.7,79.9,170,76.3,165.6,76.3z"/>
		<path id="XMLID_121_" fill-rule="evenodd" fill="#5EA4CD" d="M93.3,97.1H71.6c-2.3,0-4.1,1.8-4.1,4.1v21.4v60.3V203
			c0,2.3,1.8,4.1,4.1,4.1h20.1h50.7h49.4h20.1c2.3,0,4.1-1.8,4.1-4.1v-20.1v-61.6v-20.1c0-2.3-1.8-4.1-4.1-4.1h-20.1h-49.4v0H93.3z"
			/>
		<path id="XMLID_120_" fill-rule="evenodd" fill="#EA5762" d="M88.1,98.2c0-0.4,0-0.7,0-1.1H70.7c-1.8,0-3.3,1.5-3.3,3.3l0,17
			c0.4,0,0.9,0.1,1.3,0.1C79.4,117.5,88.1,108.8,88.1,98.2z"/>
		<path id="XMLID_119_" fill-rule="evenodd" fill="#EA5762" d="M216,117.7v-17.1c0-1.9-1.6-3.5-3.5-3.5h-17.1
			C195.4,108.5,204.6,117.7,216,117.7z"/>
		<path id="XMLID_118_" fill-rule="evenodd" fill="#EA5762" d="M216,203.6v-17.1c-11.4,0-20.6,9.2-20.6,20.6h17.1
			C214.4,207.1,216,205.6,216,203.6z"/>
		<path id="XMLID_117_" fill-rule="evenodd" fill="#EA5762" d="M67.5,186.5v17.1c0,1.9,1.6,3.5,3.5,3.5h17.1
			C88.1,195.8,78.8,186.5,67.5,186.5z"/>
		<rect id="XMLID_116_" x="101" y="97.1" fill-rule="evenodd" fill="#EA5762" width="8.8" height="110"/>
		<rect id="XMLID_115_" x="177.2" y="97.1" fill-rule="evenodd" fill="#EA5762" width="8.9" height="110"/>
		<rect id="XMLID_114_" x="93.1" y="145.7" fill-rule="evenodd" fill="#4E4D4D" width="25.2" height="15.3"/>
		<rect id="XMLID_113_" x="169" y="145.7" fill-rule="evenodd" fill="#4E4D4D" width="25.2" height="15.2"/>
	</g>
</g>
<g id="图层_1">
	<circle id="XMLID_36_" fill-rule="evenodd" fill="#63A1C6" cx="125.8" cy="141.7" r="113.4"/>
	<path id="XMLID_35_" fill-rule="evenodd" fill="#97CAE8" d="M12.5,141.7c0-62.6,50.8-113.4,113.4-113.4
		c62.6,0,113.4,50.8,113.4,113.4H12.5z"/>
	<g id="XMLID_57_">
		<path id="XMLID_34_" fill-rule="evenodd" fill="#76922F" d="M181.8,57.3c27,44.3,13,102.1-31.3,129.2
			c-44.3,27-102.1,13-129.2-31.3L181.8,57.3z"/>
		<path id="XMLID_33_" fill-rule="evenodd" fill="#E3CF97" d="M175.4,61.2c24.9,40.8,12,94-28.8,118.9c-40.8,24.9-94,12-118.9-28.8
			l6.8-4.2l68-35.7l66-46.1L175.4,61.2z"/>
		<path id="XMLID_32_" fill-rule="evenodd" fill="#D24F5A" d="M168.6,65.4c22.6,37,10.9,85.3-26.1,107.9
			c-37,22.6-85.3,10.9-107.9-26.1L168.6,65.4z"/>
		<g id="XMLID_58_">
			<path id="XMLID_31_" fill-rule="evenodd" fill="#4E4D4D" d="M138.4,90.2c-0.8-2.7,7.6-6.6,8.8-2.5
				C148.4,91.7,139.1,92.8,138.4,90.2z"/>
			<path id="XMLID_30_" fill-rule="evenodd" fill="#4E4D4D" d="M148.8,114c0.7-2.7,9.9-1.8,8.9,2.3
				C156.6,120.4,148.1,116.7,148.8,114z"/>
			<path id="XMLID_29_" fill-rule="evenodd" fill="#4E4D4D" d="M127.3,98.9c1-2.6,10.1-0.8,8.6,3.2
				C134.4,106.1,126.4,101.5,127.3,98.9z"/>
			<path id="XMLID_28_" fill-rule="evenodd" fill="#4E4D4D" d="M150.7,95.7c0.8-2.7,10-1.4,8.8,2.7
				C158.2,102.5,149.9,98.3,150.7,95.7z"/>
			<path id="XMLID_27_" fill-rule="evenodd" fill="#4E4D4D" d="M91.5,151.3c-2.6,0.9-1.1,10.1,3,8.7
				C98.5,158.6,94.1,150.4,91.5,151.3z"/>
			<path id="XMLID_26_" fill-rule="evenodd" fill="#4E4D4D" d="M80.1,134.3c-2.8-0.1-4.6,9-0.4,9.2C84,143.7,82.9,134.4,80.1,134.3z
				"/>
			<path id="XMLID_25_" fill-rule="evenodd" fill="#4E4D4D" d="M69.8,144.5c-2.7-0.8-6.7,7.6-2.6,8.8
				C71.3,154.5,72.5,145.2,69.8,144.5z"/>
			<path id="XMLID_24_" fill-rule="evenodd" fill="#4E4D4D" d="M92.9,125c-2.7,0.9-1.2,10,2.9,8.7C99.8,132.4,95.6,124.1,92.9,125z"
				/>
			<path id="XMLID_23_" fill-rule="evenodd" fill="#4E4D4D" d="M65.4,134.4c-2.1-1.8-9.2,4.3-5.9,7
				C62.8,144.2,67.6,136.2,65.4,134.4z"/>
			<path id="XMLID_22_" fill-rule="evenodd" fill="#4E4D4D" d="M126,110.8c1.1-2.6,10.1-0.2,8.4,3.7
				C132.6,118.4,124.8,113.4,126,110.8z"/>
			<path id="XMLID_21_" fill-rule="evenodd" fill="#4E4D4D" d="M115.1,128.9c2.3-1.6,8.8,5.1,5.3,7.5
				C116.9,138.8,112.8,130.5,115.1,128.9z"/>
			<path id="XMLID_20_" fill-rule="evenodd" fill="#4E4D4D" d="M130.3,123.1c1.9-2,9.6,3.2,6.6,6.3
				C134,132.5,128.3,125.1,130.3,123.1z"/>
			<path id="XMLID_19_" fill-rule="evenodd" fill="#4E4D4D" d="M107.4,140.3c2.6-1,7.1,7.2,3.1,8.6
				C106.6,150.4,104.8,141.2,107.4,140.3z"/>
			<path id="XMLID_18_" fill-rule="evenodd" fill="#4E4D4D" d="M108.2,110.8c2.1-1.9,9.3,4,6.1,6.8
				C111.2,120.5,106.1,112.6,108.2,110.8z"/>
		</g>
	</g>
	<g id="XMLID_38_">
		<path id="XMLID_17_" fill-rule="evenodd" fill="#91AD44" d="M267.2,87.2c20.3,58.1-10.3,121.7-68.5,142
			C140.6,249.6,77,218.9,56.7,160.8L267.2,87.2z"/>
		<path id="XMLID_16_" fill-rule="evenodd" fill="#FBE7B0" d="M258.8,90.1c18.7,53.5-9.5,112-63,130.7c-53.5,18.7-112-9.5-130.7-63
			l10.5-3.7l93-23.3l81.3-37.6L258.8,90.1z"/>
		<path id="XMLID_15_" fill-rule="evenodd" fill="#EA5762" d="M249.9,93.2c17,48.6-8.6,101.7-57.2,118.7
			c-48.6,17-101.7-8.6-118.7-57.2L249.9,93.2z"/>
		<g id="XMLID_39_">
			<path id="XMLID_14_" fill-rule="evenodd" fill="#4E4D4D" d="M208.7,114.4c-0.2-3.3,10.5-5.8,10.9-0.7
				C219.9,118.7,208.9,117.7,208.7,114.4z"/>
			<path id="XMLID_13_" fill-rule="evenodd" fill="#4E4D4D" d="M214.8,144.7c1.5-3,12,0.3,9.7,4.9
				C222.3,154.1,213.4,147.7,214.8,144.7z"/>
			<path id="XMLID_12_" fill-rule="evenodd" fill="#4E4D4D" d="M193.7,121.8c1.8-2.8,11.9,1.6,9.2,5.9
				C200.1,131.9,191.9,124.6,193.7,121.8z"/>
			<path id="XMLID_11_" fill-rule="evenodd" fill="#4E4D4D" d="M221.6,123.9c1.6-2.9,12,0.9,9.5,5.3
				C228.6,133.6,220,126.8,221.6,123.9z"/>
			<path id="XMLID_10_" fill-rule="evenodd" fill="#4E4D4D" d="M139,173.7c-3.3,0.4-3.7,11.4,1.3,10.8
				C145.4,183.9,142.3,173.3,139,173.7z"/>
			<path id="XMLID_9_" fill-rule="evenodd" fill="#4E4D4D" d="M130.1,151.1c-3.2-0.8-7.6,9.3-2.7,10.5
				C132.3,162.9,133.3,152,130.1,151.1z"/>
			<path id="XMLID_8_" fill-rule="evenodd" fill="#4E4D4D" d="M115.6,160.3c-2.9-1.6-9.7,7.1-5.2,9.5
				C114.8,172.3,118.5,161.9,115.6,160.3z"/>
			<path id="XMLID_7_" fill-rule="evenodd" fill="#4E4D4D" d="M147.2,143.5c-3.3,0.4-3.9,11.4,1.2,10.8
				C153.4,153.8,150.5,143.2,147.2,143.5z"/>
			<path id="XMLID_6_" fill-rule="evenodd" fill="#4E4D4D" d="M113,147.6c-2-2.6-11.7,2.6-8.6,6.7C107.5,158.2,115,150.2,113,147.6z
				"/>
			<path id="XMLID_5_" fill-rule="evenodd" fill="#4E4D4D" d="M189.1,135.3c1.9-2.7,11.8,2.3,8.8,6.4
				C194.9,145.8,187.2,138,189.1,135.3z"/>
			<path id="XMLID_4_" fill-rule="evenodd" fill="#4E4D4D" d="M172,153.5c3.1-1.3,8.9,8,4.2,10C171.6,165.5,169,154.8,172,153.5z"/>
			<path id="XMLID_3_" fill-rule="evenodd" fill="#4E4D4D" d="M191.1,150.6c2.7-1.9,10.3,6.1,6.1,9
				C193,162.5,188.3,152.5,191.1,150.6z"/>
			<path id="XMLID_2_" fill-rule="evenodd" fill="#4E4D4D" d="M160.3,164.9c3.3-0.5,6.5,10.1,1.5,10.8
				C156.8,176.3,157,165.3,160.3,164.9z"/>
			<path id="XMLID_1_" fill-rule="evenodd" fill="#4E4D4D" d="M168.5,130.8c2.9-1.6,9.8,6.9,5.4,9.4
				C169.5,142.8,165.7,132.5,168.5,130.8z"/>
		</g>
	</g>
	<g id="XMLID_37_">
	</g>
	<g id="XMLID_40_">
	</g>
	<g id="XMLID_41_">
	</g>
	<g id="XMLID_42_">
	</g>
	<g id="XMLID_43_">
	</g>
	<g id="XMLID_44_">
	</g>
</g>
</svg>
