<?xml version="1.0" encoding="utf-8"?>
<!-- Generator: Adobe Illustrator 19.0.0, SVG Export Plug-In . SVG Version: 6.00 Build 0)  -->
<svg version="1.2" baseProfile="tiny" xmlns="http://www.w3.org/2000/svg" xmlns:xlink="http://www.w3.org/1999/xlink" x="0px"
	 y="0px" viewBox="0 0 283.5 283.5" xml:space="preserve">
<g id="图层_2" display="none">
	<path id="XMLID_127_" display="inline" fill-rule="evenodd" fill="#F39D45" d="M141.7,255.1c62.5,0,113.4-50.9,113.4-113.4
		c0-62.5-50.9-113.4-113.4-113.4c-62.4,0-113.4,50.9-113.4,113.4C28.3,204.2,79.3,255.1,141.7,255.1z"/>
	<path id="XMLID_126_" display="inline" fill-rule="evenodd" fill="#FBE7B0" d="M28.3,141.7c0-62.6,50.8-113.4,113.4-113.4
		s113.4,50.8,113.4,113.4H28.3z"/>
	<g id="XMLID_270_" display="inline">
		<rect id="XMLID_125_" x="173" y="93.4" fill-rule="evenodd" fill="#EA5762" width="16.1" height="4.4"/>
		<rect id="XMLID_124_" x="97.3" y="93.4" fill-rule="evenodd" fill="#EA5762" width="16.1" height="4.4"/>
		<rect id="XMLID_123_" x="142.3" y="99.5" fill-rule="evenodd" fill="#5A5657" width="0.5" height="4.3"/>
		<path id="XMLID_122_" fill-rule="evenodd" fill="#EA5762" d="M165.6,76.3h-11h-11.7h-21.5c-4.4,0-8.1,3.6-8.1,8l0,18.5
			c0,1.4,1.2,2.6,2.6,2.6c1.1,0,2-0.7,2.4-1.6h7.8l0.4,0l0.4,0h15.6v-4.3h-18.1c0,0,0.1-11.7,0.1-14.1l18.5,0v0l20.7,0
			c0,2.6,0.2,14.1,0.2,14.1l-20.9,0v4.3h17.7l0.4,0l0.4,0h7.4c0.4,0.9,1.3,1.6,2.4,1.6c1.1,0,2-0.7,2.4-1.6h0.1v-0.3
			c0.1-0.2,0.1-0.4,0.1-0.7V84.3C173.7,79.9,170,76.3,165.6,76.3z"/>
		<path id="XMLID_121_" fill-rule="evenodd" fill="#5EA4CD" d="M93.3,97.1H71.6c-2.3,0-4.1,1.8-4.1,4.1v21.4v60.3V203
			c0,2.3,1.8,4.1,4.1,4.1h20.1h50.7h49.4h20.1c2.3,0,4.1-1.8,4.1-4.1v-20.1v-61.6v-20.1c0-2.3-1.8-4.1-4.1-4.1h-20.1h-49.4v0H93.3z"
			/>
		<path id="XMLID_120_" fill-rule="evenodd" fill="#EA5762" d="M88.1,98.2c0-0.4,0-0.7,0-1.1H70.7c-1.8,0-3.3,1.5-3.3,3.3l0,17
			c0.4,0,0.9,0.1,1.3,0.1C79.4,117.5,88.1,108.8,88.1,98.2z"/>
		<path id="XMLID_119_" fill-rule="evenodd" fill="#EA5762" d="M216,117.7v-17.1c0-1.9-1.6-3.5-3.5-3.5h-17.1
			C195.4,108.5,204.6,117.7,216,117.7z"/>
		<path id="XMLID_118_" fill-rule="evenodd" fill="#EA5762" d="M216,203.6v-17.1c-11.4,0-20.6,9.2-20.6,20.6h17.1
			C214.4,207.1,216,205.6,216,203.6z"/>
		<path id="XMLID_117_" fill-rule="evenodd" fill="#EA5762" d="M67.5,186.5v17.1c0,1.9,1.6,3.5,3.5,3.5h17.1
			C88.1,195.8,78.8,186.5,67.5,186.5z"/>
		<rect id="XMLID_116_" x="101" y="97.1" fill-rule="evenodd" fill="#EA5762" width="8.8" height="110"/>
		<rect id="XMLID_115_" x="177.2" y="97.1" fill-rule="evenodd" fill="#EA5762" width="8.9" height="110"/>
		<rect id="XMLID_114_" x="93.1" y="145.7" fill-rule="evenodd" fill="#4E4D4D" width="25.2" height="15.3"/>
		<rect id="XMLID_113_" x="169" y="145.7" fill-rule="evenodd" fill="#4E4D4D" width="25.2" height="15.2"/>
	</g>
</g>
<g id="图层_1">
	<circle id="XMLID_159_" fill-rule="evenodd" fill="#63A1C6" cx="141.7" cy="142.2" r="113.4"/>
	<path id="XMLID_158_" fill-rule="evenodd" fill="#97CAE8" d="M28.3,142.2c0-62.6,50.8-113.4,113.4-113.4
		c62.6,0,113.4,50.8,113.4,113.4H28.3z"/>
	<rect id="XMLID_157_" x="89.4" y="127.8" fill-rule="evenodd" fill="#FFFFFF" width="104.6" height="101.6"/>
	<rect id="XMLID_156_" x="95.4" y="141.3" fill-rule="evenodd" fill="#4E4D4D" width="92.6" height="64.8"/>
	<g id="XMLID_196_">
		<path id="XMLID_155_" fill-rule="evenodd" fill="#D4DF89" d="M89.4,34.4H194c7.5,0,13.6,6.1,13.6,13.6v104.6
			c0,7.5-6.1,13.6-13.6,13.6H89.4c-7.5,0-13.6-6.1-13.6-13.6V47.9C75.8,40.5,81.9,34.4,89.4,34.4z"/>
		<path id="XMLID_154_" fill-rule="evenodd" fill="#91AD44" d="M94.2,39.8h95.1c6.8,0,12.3,5.5,12.3,12.3v96.2
			c0,6.8-5.5,12.3-12.3,12.3H94.2c-6.8,0-12.3-5.5-12.3-12.3V52.2C81.9,45.4,87.4,39.8,94.2,39.8z"/>
		<rect id="XMLID_153_" x="75.8" y="53.3" fill-rule="evenodd" fill="#D4DF89" width="131.8" height="2.8"/>
		<path id="XMLID_152_" fill-rule="evenodd" fill="#D4DF89" d="M141.7,166.1c29,0,52.7-23.7,52.7-52.7c0-29-23.7-52.7-52.7-52.7
			S89,84.4,89,113.4C89,142.5,112.7,166.1,141.7,166.1z"/>
		<path id="XMLID_151_" fill-rule="evenodd" fill="#91AD44" d="M141.7,159.6c25.4,0,46.2-20.7,46.2-46.1c0-25.4-20.7-46.2-46.2-46.2
			S95.6,88,95.6,113.4C95.6,138.8,116.3,159.6,141.7,159.6z"/>
		<path id="XMLID_150_" fill-rule="evenodd" fill="#D4DF89" d="M170,45h21.3c1,0,1.9,0.8,1.9,1.9v15.8c0,1-0.8,1.9-1.9,1.9H170
			c-1,0-1.9-0.8-1.9-1.9V46.8C168.1,45.8,169,45,170,45z"/>
		<path id="XMLID_149_" fill-rule="evenodd" fill="#8FA126" d="M172.1,47.6h17c0.7,0,1.3,0.6,1.3,1.4v11.5c0,0.7-0.6,1.3-1.3,1.3
			h-17c-0.7,0-1.3-0.6-1.3-1.3V49C170.8,48.2,171.4,47.6,172.1,47.6z"/>
		<path id="XMLID_148_" fill-rule="evenodd" fill="#EA5762" d="M180.6,60.3c3.1,0,5.5-2.5,5.5-5.5c0-3.1-2.5-5.5-5.5-5.5
			s-5.5,2.5-5.5,5.5C175.1,57.8,177.6,60.3,180.6,60.3z"/>
		<path id="XMLID_147_" fill-rule="evenodd" fill="#D4DF89" d="M102.6,49.7c2.8,3.5,2.2,8.7-1.4,11.4c-3.5,2.8-8.7,2.1-11.4-1.4
			c-2.8-3.5-2.2-8.7,1.4-11.4C94.7,45.5,99.8,46.1,102.6,49.7z"/>
		<path id="XMLID_146_" fill-rule="evenodd" fill="#EA5762" d="M102.2,51.2l-6.1,3.5l1.9-6.8c1.4,0.4,2.6,1.2,3.6,2.4
			C101.9,50.6,102.1,50.9,102.2,51.2z"/>
		<path id="XMLID_145_" fill-rule="evenodd" fill="#EA5762" d="M99.7,60.8l-3.5-6.1l6.8,1.9c-0.4,1.4-1.2,2.6-2.4,3.6
			C100.2,60.5,99.9,60.6,99.7,60.8z"/>
		<path id="XMLID_144_" fill-rule="evenodd" fill="#EA5762" d="M90,58.3l6.1-3.5l-1.9,6.8c-1.4-0.4-2.6-1.2-3.6-2.4
			C90.4,58.8,90.2,58.5,90,58.3z"/>
		<path id="XMLID_143_" fill-rule="evenodd" fill="#EA5762" d="M92.6,48.6l3.5,6.1l-6.8-1.9c0.4-1.4,1.2-2.6,2.4-3.6
			C92.1,49,92.3,48.8,92.6,48.6z"/>
		<path id="XMLID_142_" fill-rule="evenodd" fill="#D4DF89" d="M119.7,51c2,2.6,1.6,6.4-1,8.4c-2.6,2-6.4,1.6-8.4-1
			c-2-2.6-1.6-6.4,1-8.4C113.9,48,117.7,48.4,119.7,51z"/>
		<path id="XMLID_141_" fill-rule="evenodd" fill="#EA5762" d="M119.4,52.1l-4.5,2.6l1.4-5c1,0.3,1.9,0.9,2.6,1.8
			C119.2,51.7,119.3,51.9,119.4,52.1z"/>
		<path id="XMLID_140_" fill-rule="evenodd" fill="#EA5762" d="M117.6,59.2l-2.6-4.5l5,1.4c-0.3,1-0.9,1.9-1.8,2.6
			C118,58.9,117.8,59.1,117.6,59.2z"/>
		<path id="XMLID_139_" fill-rule="evenodd" fill="#EA5762" d="M110.5,57.3l4.5-2.6l-1.4,5c-1-0.3-1.9-0.9-2.6-1.8
			C110.8,57.7,110.6,57.5,110.5,57.3z"/>
		<path id="XMLID_138_" fill-rule="evenodd" fill="#EA5762" d="M112.4,50.3l2.6,4.5l-5-1.4c0.3-1,0.9-1.9,1.8-2.6
			C112,50.5,112.2,50.4,112.4,50.3z"/>
		<path id="XMLID_137_" fill-rule="evenodd" fill="#D4DF89" d="M128.9,17.6h25.7c3.1,0,5.7,2.5,5.7,5.7V53c0,3.1-2.5,5.7-5.7,5.7
			h-25.7c-3.1,0-5.7-2.5-5.7-5.7V23.2C123.2,20.1,125.8,17.6,128.9,17.6z"/>
		<path id="XMLID_136_" fill-rule="evenodd" fill="#91AD44" d="M130.4,19.8H153c2.7,0,5,2.2,5,5v26.8c0,2.7-2.2,5-5,5l-22.6,0
			c-2.7,0-5-2.2-5-5V24.7C125.5,22,127.7,19.8,130.4,19.8z"/>
		<path id="XMLID_135_" fill-rule="evenodd" fill="#D4DF89" d="M130.8,22.9h21.8c1.4,0,2.6,1.2,2.6,2.6v25.3c0,1.4-1.2,2.6-2.6,2.6
			h-21.8c-1.4,0-2.6-1.2-2.6-2.6V25.5C128.3,24.1,129.4,22.9,130.8,22.9z"/>
		<path id="XMLID_134_" fill-rule="evenodd" fill="#EA5762" d="M136,30.1h11.5c0.7,0,1.4,0.6,1.4,1.4v13.3c0,0.7-0.6,1.4-1.4,1.4
			H136c-0.7,0-1.4-0.6-1.4-1.4V31.4C134.6,30.7,135.2,30.1,136,30.1z"/>
		<path id="XMLID_133_" fill-rule="evenodd" fill="#D4DF89" d="M94.5,26.8h16.8c1.3,0,2.4,1.1,2.4,2.4v2.8c0,1.3-1.1,2.4-2.4,2.4
			l-16.8,0c-1.3,0-2.4-1.1-2.4-2.4v-2.8C92,27.9,93.1,26.8,94.5,26.8z"/>
		<rect id="XMLID_132_" x="92" y="29.2" fill-rule="evenodd" fill="#91AD44" width="21.6" height="5.2"/>
		<path id="XMLID_131_" fill-rule="evenodd" fill="#F39D45" d="M141.7,144.2c17,0,30.8-13.8,30.8-30.8c0-17-13.9-30.8-30.8-30.8
			c-17,0-30.8,13.9-30.8,30.8C110.9,130.4,124.7,144.2,141.7,144.2z"/>
		<path id="XMLID_130_" fill-rule="evenodd" fill="#EA5762" d="M141.7,124.5c6.1,0,11-5,11-11c0-6.1-5-11-11-11c-6.1,0-11,5-11,11
			C130.7,119.5,135.6,124.5,141.7,124.5z"/>
		<path id="XMLID_129_" fill-rule="evenodd" fill="#FBE7B0" d="M125.8,93.3c2.4-2,6.3-4,10.1-4.8c3.8-0.9,5.2,4.5,1.2,5.3
			c-3,0.7-5.7,1.9-8,3.8C126,100.4,122.6,96,125.8,93.3z"/>
		<path id="XMLID_128_" fill-rule="evenodd" fill="#FBE7B0" d="M117.7,122c-2.5-7-1.8-14.4,1.4-20.5c2-3.7,6.7-1,4.8,2.5
			c-2.5,4.8-3.1,10.6-1.1,16.1C124.3,124.3,119,125.9,117.7,122z"/>
	</g>
	<g id="XMLID_1_">
	</g>
	<g id="XMLID_2_">
	</g>
	<g id="XMLID_3_">
	</g>
	<g id="XMLID_4_">
	</g>
	<g id="XMLID_5_">
	</g>
	<g id="XMLID_6_">
	</g>
</g>
</svg>
