<?xml version="1.0" encoding="utf-8"?>
<!-- Generator: Adobe Illustrator 19.0.0, SVG Export Plug-In . SVG Version: 6.00 Build 0)  -->
<svg version="1.2" baseProfile="tiny" id="图层_1"
	 xmlns="http://www.w3.org/2000/svg" xmlns:xlink="http://www.w3.org/1999/xlink" x="0px" y="0px" viewBox="0 0 283.5 283.5"
	 xml:space="preserve">
<g id="XMLID_10474_">
	<g id="XMLID_10510_">
		<path id="XMLID_10512_" fill="#2F3340" d="M264.3,188L188,264.3c-25.6,25.6-67,25.6-92.6,0L19.2,188c-25.6-25.6-25.6-67,0-92.6
			l76.3-76.3c25.6-25.6,67-25.6,92.6,0l76.3,76.3C289.9,121,289.9,162.5,264.3,188z"/>
	</g>
	<g id="XMLID_10483_">
		<linearGradient id="XMLID_8_" gradientUnits="userSpaceOnUse" x1="159.6799" y1="48.9401" x2="151.1866" y2="71.4473">
			<stop  offset="0" style="stop-color:#A26A4E"/>
			<stop  offset="1" style="stop-color:#E7B293"/>
		</linearGradient>
		<path id="XMLID_10509_" fill="url(#XMLID_8_)" d="M130.9,60.4c0,0,9.8,0.8,12.9-4.8c3.1-5.6,4-13.6,4-13.6l15.7,0.2
			c0,0-0.5,15.1,4.8,18c5.3,3,10.2,3.9,10.2,3.9s-15.1,13.3-29,10.7C135.5,72.4,130.9,60.4,130.9,60.4z"/>
		<path id="XMLID_10508_" fill="#E7B293" d="M187.7,66.9c0,0,14,5,15.9,6.7c1.9,1.8,12.6,25.2,16,40.8c0,0-1.3,3-5,2.4
			c0,0-9.8-17.4-13-21.3c-3.2-3.9-4.3-6.8-5.6-9.3c-1.3-2.4-10.2-2.5-10.2-2.5L187.7,66.9z"/>
		<path id="XMLID_10507_" fill="#E7B293" d="M72.3,127.6c0,0,0.4-0.5-0.8,2.7c-1.2,3.2,0.8,10-2.2,10.8c-5.1,1.5-3,7.3-10.8,2
			c-1.8-1.2-0.3-5.4,0.6-7.6c0.8-2.3,4.6-7.2,4.6-7.2S69.6,122.9,72.3,127.6z"/>
		<path id="XMLID_10506_" fill="#E7B293" d="M212.8,113.7c0,0-0.3-0.6,0.4,2.7c0.8,3.3-1.9,9.8,0.9,11c4.9,2.1,2.1,7.6,10.5,3.2
			c1.9-1,0.9-5.3,0.3-7.7c-0.6-2.4-3.8-7.6-3.8-7.6S215.9,109.3,212.8,113.7z"/>
		<path id="XMLID_10505_" fill="#E7B293" d="M100.2,161c0,0-5.6,16.3-8.8,29c0,0-4.8,8.5-6.4,14.2c-1.3,4.7-3.3,32.9-6.2,41.6
			c0,0,0.2,5.9,6.6,1.6c0,0,2-17.4,9.5-30.3c5.7-9.9,3.7-16.9,6-20.8c2.2-4,11-19.1,11-19.1L100.2,161z"/>
		<path id="XMLID_10504_" fill="#E7B293" d="M138.5,167.5c0,0,6.9,27.6,6.3,30.2c-0.6,2.6-9.2,1.8-14.6,10.2c-3.6,5.5-17,9.4-17,9.4
			s-1.8,4.8,3.8,5.9c0,0,8.1-2.1,21.8-7.7c13.7-5.6,16.9-6.6,17.6-9.7c0.7-3.2,0.3-37.1,0.3-37.1L138.5,167.5z"/>
		<path id="XMLID_10503_" fill="#F1F2F1" d="M110.7,130.6l-19.1,51.3c0,0,4.3,4.9,16.5,5.7c0,0,10.8-17.6,19.6-24.8
			c3.7,0.5,3,0.2,5.6,1.2c3,9.9,5.8,16.6,8,26c0,0,7.7,0,17.4-3.6l-1.5-46.7L110.7,130.6z"/>
		<path id="XMLID_10502_" fill="#E7B293" d="M102.9,80.9l-8.1,7.7c0,0-7.8,6.7-13.9,14.4c-6.1,7.7-12,20.4-15.2,24.4l5.3,3.8
			c0,0,9.5-11.7,14.5-15.9c5-4.2,12.6-11.3,14.5-14.5c2-3.2,9.8-8.1,9.8-8.1L102.9,80.9z"/>
		<path id="XMLID_10501_" fill="#108D43" d="M94.9,217.1c2-3.5,3.1-6.6,3.7-9.4c-6.2-0.2-10.9-1.9-13.7-3.3
			c-1.3,5.2-3.3,32.8-6.1,41.4c0,0,0.2,5.9,6.6,1.6C85.4,247.4,87.4,230,94.9,217.1z"/>
		<g id="XMLID_10496_">
			<path id="XMLID_10500_" fill="#170E21" d="M86.7,254.7H68.2l0.4,1.6c0,0,0.1,0.3,0.9,0.7c0.1,0.4,0.4,1.1,0.4,1.1s1,0.1,1.5,0
				l0.2-0.5c0.3,0.1,0.7,0.1,1.1,0.2c0.1,0.4,0.3,0.7,0.3,0.7s1,0.1,1.5,0l0.2-0.6c0.2,0,0.3,0,0.5,0c0.1,0.3,0.2,0.6,0.2,0.6
				s0.9,0.1,1.4,0L77,258c0.2,0,0.4,0,0.7,0l0.1,0.3c0.5,0.1,1.5,0,1.5,0s0.1-0.3,0.2-0.6c0.8-0.2,1.6-0.4,2.4-0.5l0.1,0.3
				c0.5,0.1,1.4,0,1.4,0s0.1-0.3,0.2-0.7c0.2,0,0.4-0.1,0.6-0.1l0.2,0.5c0.5,0.1,1.4,0,1.4,0s0.1-0.4,0.3-0.8c0.3,0,0.4-0.1,0.4-0.1
				L86.7,254.7z"/>
			<path id="XMLID_10499_" fill="#F1F2F1" d="M86.5,245.8c0-0.4-0.6-0.5-0.9-0.3c-0.2,0.1-0.5,1-0.7,1c-1.9,0.3-1.2-1.3-3.2-2.7
				c-2.1-1.4-4.3-1.1-5.4,1.1c-1.1,2.1-2.7,3.5-5.7,4.9c-2.9,1.4-4.2,4.8-0.8,6.2c3.4,1.4,10.6,0.3,12.2-0.2
				c1.6-0.4,4.3-0.5,4.6-0.8C87.1,254.7,86.4,250.5,86.5,245.8z"/>
			<path id="XMLID_10498_" fill="#170E21" d="M73.1,248.5c-0.7,0.4-1.4,0.9-2.3,1.3c4.6,0.5,7.2,5.6,7.7,6.7
				c0.8-0.1,1.5-0.2,2.1-0.3C78.8,251.1,74.9,249.2,73.1,248.5z"/>
			<path id="XMLID_10497_" fill="#170E21" d="M75.2,246.7c-0.4,0.5-0.8,0.9-1.4,1.3c5.7,1.4,8.1,8,8.1,8h0c0.1,0,0.1,0,0.2-0.1
				c0.5-0.1,1.2-0.2,1.8-0.3C81,248.8,76.9,247.1,75.2,246.7z"/>
		</g>
		<path id="XMLID_10495_" fill="#108D43" d="M130.2,207.9c-3.6,5.5-17,9.4-17,9.4s-1.8,4.8,3.8,5.9c0,0,8.1-2.1,21.8-7.7
			c2.2-0.9,4.2-1.7,5.9-2.4c-3.5-3.6-5.1-8.6-5.9-12.3C136,202.1,132.7,204,130.2,207.9z"/>
		<g id="XMLID_10490_">
			<path id="XMLID_10494_" fill="#170E21" d="M113.7,245.6l1.2,0l-8.1-28.1c0,0-0.7,0-1.2,0.5c0,0.3,0,0.7,0,1.2l-1.3,0.3l0.3,2
				l1.3,0c0.1,0.7,0.2,1.4,0.3,2.2l-1.3,0.3l0.3,2l1.5,0c0.4,2.2,1,4.6,1.6,6.9l-1.3,0.5l0.5,2l1.4-0.2c0.2,0.6,0.4,1.3,0.6,1.9
				l-1.3,0.6l0.6,1.9l1.5-0.3c0.2,0.5,0.4,1,0.6,1.5l-1.3,0.8l0.9,1.8l1.4-0.5C112.3,244.1,113,245,113.7,245.6z"/>
			<path id="XMLID_10493_" fill="#F1F2F1" d="M116.7,214.9l0.5,0c0.6,0,1,0.7,0.6,1.2c-0.4,0.5-0.7,1.1-0.8,1.4
				c-0.2,0.9-0.9,3.2,3.5,4.9c0.4,0.2,0.6,0.7,0.4,1.1c-1.1,2.2-3.9,9.1-3.5,20.4c0,0.4-0.1,0.8-0.3,1.1c-0.6,0.8-1.9,1.9-4-1.1
				c-2.9-4.2-3.7-11.2-4.4-14c-0.7-2.8-2.5-8.9-2.2-11.9C107,214.9,116.7,214.9,116.7,214.9z"/>
			<path id="XMLID_10492_" fill="#170E21" d="M118.1,233.6c0.1-0.9,0.3-1.8,0.5-2.6l-10.4-1.8l0.3,2.7L118.1,233.6z"/>
			<path id="XMLID_10491_" fill="#170E21" d="M109.5,234.6c0.2,0.9,0.4,1.8,0.6,2.7l7.5,1.1c0.1-0.9,0.1-1.8,0.2-2.6L109.5,234.6z"
				/>
		</g>
		<path id="XMLID_10489_" fill="#E7B293" d="M144.9,45l0.9,10.8l9.7,9l7.2,0.1l4.4-6.1l3.6-16c0,0,2-10.8-5.5-13.4
			C157.6,26.8,144.2,27.1,144.9,45z"/>
		<path id="XMLID_10488_" fill="#3D332E" d="M144.9,43l0.6,4.8l1.4-1l0.3-4.1l1.7-2.2v-4.2c0,0,3.4,3.5,13,4.3
			c9.5,0.8,14.8-6.1,14.8-6.1l-4.4-2.5c0,0-10.6-13.5-23.8-3.6c-6.5,0.3-6.7,6.8-6.9,8c-0.2,1.2,0.8,6,0.8,6l0.2,1.4L144.9,43z"/>
		<path id="XMLID_10487_" fill="#E7B293" d="M145.4,43.7c0,0-1.6-2.6-3.6-0.3c-2,2.3,0.9,6,0.9,6s0,1.3,0.4,1.9
			c0.7,1.2,2.9,1.2,2.9,1.2L145.4,43.7z"/>
		<g id="XMLID_10484_">
			<path id="XMLID_10486_" fill="#F1F2F1" d="M179.6,84.6l10.5-0.5c0,0,3.9-6.6,4.1-14.9c0,0-8.5-3.1-12.9-5.2
				c-2.5-1.2-4.8-2.2-11.6-3.6c-2.1,3.7-6.8,8.9-16.6,8.2c-10-0.7-13-6.4-13.8-10.2c-6.4,0.8-11.9,2-14.7,2.7
				c-8.5,1.9-25.3,22.5-25.3,22.5s3.6,8.3,9.8,11.1l11.2-10.2c0,0-0.3,7-2,17.1c9.4,2.3,30.2,6.9,49.2,8.9
				C170.6,102.4,174.7,93.5,179.6,84.6z"/>
			<path id="XMLID_10485_" fill="#108D43" d="M157.2,139.7c0,0,3.3-12.6,10.1-29.2c-19.1-2-39.8-6.6-49.2-8.9
				c-1.5,9-4,20.5-8.4,31.8C109.8,133.3,134.9,142.9,157.2,139.7z"/>
		</g>
	</g>
	<g id="XMLID_10475_">
		<path id="XMLID_10482_" fill="#F1F2F1" d="M157.1,236.1c1.9,9.6-4.4,18.9-14,20.8c-9.6,1.9-18.9-4.4-20.8-14
			c-1.9-9.6,4.4-18.9,14-20.8C145.9,220.2,155.2,226.5,157.1,236.1z"/>
		<polygon id="XMLID_10481_" fill="#221F20" points="140.3,234.1 136.5,241.1 141.7,246 148.6,242.6 147.1,235 		"/>
		<path id="XMLID_10480_" fill="#221F20" d="M128.7,226l0.3,3.2l7.3-0.6l3.2-4.7l-3.9-1.6c0,0-1.7,0.2-3.6,1.3
			C130,224.6,128.7,226,128.7,226z"/>
		<path id="XMLID_10479_" fill="#221F20" d="M125.7,235.9l-3.5,3.3c0,0,0.4,3.8,1.2,7.2c0,0,2.6,1.5,4.4,1.7c0,0,1-4.7,1.8-6.2
			C129.5,242,126.4,237.3,125.7,235.9z"/>
		<path id="XMLID_10478_" fill="#221F20" d="M134.2,256.3c0,0-0.6-2.1-0.7-2.6c0,0,5.2-0.7,6.7-1.3c0,0,3.4,2,4.6,2.4
			c0,0-1.3,1.4-2.5,2.2C142.3,257.1,137.1,257.6,134.2,256.3z"/>
		<path id="XMLID_10477_" fill="#221F20" d="M156.5,241c0,0-0.9,2.8-3.1,4.4c0,0-0.5,3.7-1.7,5.8c0,0,0.4,0,1.5-0.4c0,0,0.8-1,2.3-4
			c1.4-2.9,1.4-4,1.4-4L156.5,241z"/>
		<path id="XMLID_10476_" fill="#221F20" d="M147.3,225.2c0,0,1.8,1.8,3.4,5.3c0,0,3.2,1.4,4.4,2.5c0,0-0.1-1.2-0.9-3.4
			c0,0-3.1-4-4.8-4.9C149.5,224.7,148.5,224.8,147.3,225.2z"/>
	</g>
</g>
<g id="XMLID_1_">
</g>
<g id="XMLID_2_">
</g>
<g id="XMLID_3_">
</g>
<g id="XMLID_4_">
</g>
<g id="XMLID_5_">
</g>
<g id="XMLID_6_">
</g>
</svg>
