<?xml version="1.0" standalone="no"?><!DOCTYPE svg PUBLIC "-//W3C//DTD SVG 1.1//EN" "http://www.w3.org/Graphics/SVG/1.1/DTD/svg11.dtd"><svg t="1526539657642" class="icon" style="" viewBox="0 0 1024 1024" version="1.1" xmlns="http://www.w3.org/2000/svg" p-id="1851" xmlns:xlink="http://www.w3.org/1999/xlink" width="64" height="64"><defs><style type="text/css"></style></defs><path d="M415.3 195.8h192v128.4h-192z" fill="#EE746C" p-id="1852"></path><path d="M607.3 334.2h-192c-5.5 0-10-4.5-10-10V195.8c0-5.5 4.5-10 10-10h192c5.5 0 10 4.5 10 10v128.4c0 5.5-4.5 10-10 10z m-182-20h172V205.8h-172v108.4zM607.4 164.6H415.3c-5.5 0-10-4.5-10-10s4.5-10 10-10h192.1c5.5 0 10 4.5 10 10s-4.5 10-10 10z" fill="#5A3392" p-id="1853"></path><path d="M320.1 310h384.1v221.7H320.1z" fill="#EE746C" p-id="1854"></path><path d="M704.2 541.7H320.1c-5.5 0-10-4.5-10-10V310c0-5.5 4.5-10 10-10h384.1c5.5 0 10 4.5 10 10v221.7c0 5.5-4.5 10-10 10z m-374.1-20h364.1V320H330.1v201.7z" fill="#5A3392" p-id="1855"></path><path d="M320.1 310h384.1v110.8H320.1z" fill="#EE746C" p-id="1856"></path><path d="M704.2 430.8H320.1c-5.5 0-10-4.5-10-10V310c0-5.5 4.5-10 10-10h384.1c5.5 0 10 4.5 10 10v110.8c0 5.5-4.5 10-10 10z m-374.1-20h364.1V320H330.1v90.8z" fill="#5A3392" p-id="1857"></path><path d="M512.3 382.8v-0.6l-0.7 0.3-0.7-0.3v0.6L255.4 492.2v77c0 82.8 67.2 150 150 150H618c82.8 0 150-67.2 150-150v-77L512.3 382.8z" fill="#FB9761" p-id="1858"></path><path d="M618 729.2H405.4c-88.2 0-160-71.8-160-160v-77c0-4 2.4-7.6 6.1-9.2l252.7-108.2c0.4-0.3 0.8-0.7 1.2-1 1.9-1.2 4-1.8 6.2-1.6 2.2-0.1 4.3 0.4 6.2 1.6l1.2 0.9L771.9 483c3.7 1.6 6.1 5.2 6.1 9.2v77c0 88.2-71.8 160-160 160zM265.4 498.8v70.4c0 77.2 62.8 140 140 140H618c77.2 0 140-62.8 140-140v-70.4L511.6 393.4 265.4 498.8z" fill="#5A3392" p-id="1859"></path><path d="M512.3 432.8v-0.6l-0.7 0.3-0.7-0.3v0.6L255.4 542.2v77c0 82.8 67.2 150 150 150H618c82.8 0 150-67.2 150-150v-77L512.3 432.8z" fill="#EE746C" p-id="1860"></path><path d="M618 779.2H405.4c-88.2 0-160-71.8-160-160v-77c0-4 2.4-7.6 6.1-9.2l252.7-108.2c0.4-0.3 0.8-0.7 1.2-1 1.9-1.2 4-1.8 6.2-1.6 2.2-0.2 4.3 0.4 6.2 1.6l1.2 0.9L771.9 533c3.7 1.6 6.1 5.2 6.1 9.2v77c0 88.2-71.8 160-160 160zM265.4 548.8v70.4c0 77.2 62.8 140 140 140H618c77.2 0 140-62.8 140-140v-70.4L511.6 443.4 265.4 548.8z" fill="#5A3392" p-id="1861"></path><path d="M512.2 472.1v-0.5l-0.6 0.2-0.6-0.2v0.5L296.4 564v59.8c0 69.6 56.4 126 126 126h178.5c69.6 0 126-56.4 126-126V564l-214.7-91.9z" fill="#FB9761" p-id="1862"></path><path d="M296.4 633.8c-5.5 0-10-4.5-10-10V576c0-5.5 4.5-10 10-10s10 4.5 10 10v47.8c0 5.5-4.5 10-10 10z" fill="#FFFFFF" p-id="1863"></path><path d="M867.2 791.8c-35.9 0-67.5-15-69.5-16-0.3-0.1-0.6-0.3-0.9-0.5-0.1-0.1-11.9-7.1-30.9-10.5-25.2-4.5-50.5-0.8-75.3 11.1-19.9 9.5-51.4 19.5-88.4 12.7-20.8-3.8-34.3-11.3-36.5-12.6-2.7-1.4-55-27.8-106.1-0.3-60.8 32.7-120.6 2.4-125 0.1-2.1-1-55-25.9-106.6 0-61.7 31-122.1 1.3-124.6 0-4.9-2.5-6.9-8.5-4.4-13.4s8.5-6.9 13.4-4.4c1.1 0.5 54.4 26.2 106.6 0 61.7-31 122.1-1.3 124.7 0 0.1 0 0.2 0.1 0.2 0.1 0.5 0.3 54.1 28.1 106.2 0 62-33.3 122.7-1 125.2 0.4 0.1 0.1 0.3 0.2 0.4 0.2 0.1 0.1 11.9 7 30.9 10.4 25.2 4.4 50.5 0.6 75.3-11.2 19.9-9.5 51.4-19.5 88.4-12.6 20.1 3.8 33.4 11 36.3 12.6 4.9 2.3 65.4 29.2 105.5 0.9 4.5-3.2 10.8-2.1 13.9 2.4 3.2 4.5 2.1 10.8-2.4 13.9-17.5 12.5-37.5 16.7-56.4 16.7z" fill="#5A3392" p-id="1864"></path><path d="M867.1 832.3c-38.4 0-71.6-15.8-73.7-16.8-0.7-0.3-1.1-0.5-1.7-0.9-2.6-1.5-43.5-24.4-96.6 1.1-70.6 33.8-126.9 4-134-0.1-1.5-0.8-13.8-6.9-31.3-9.9-23.7-4.1-45.7-0.9-65.2 9.6-22.6 12.2-45.1 16.2-65.1 16.2-37 0-65.1-13.9-69.2-16-2.1-1-50.7-23.6-97.7 0-66.1 33.2-130.9 1.4-133.6 0-9.9-5-13.8-17-8.9-26.9 5-9.8 16.9-13.8 26.8-8.9 0.5 0.2 49.9 24.1 97.7 0 66.1-33.2 130.9-1.4 133.7 0 0.2 0.1 0.3 0.2 0.5 0.2 0 0 12.9 6.7 31.5 9.8 23.8 4 45.7 0.7 65.3-9.8 66.6-35.8 132-1.1 134.7 0.4 0.4 0.2 0.5 0.2 0.8 0.5 2.6 1.5 43.5 24.2 96.7-1.3 69.1-33.1 124.5-5 133.6 0.2 5.9 2.7 60.1 26.1 94.9 1.5 9-6.4 21.5-4.2 27.9 4.8 6.4 9 4.2 21.5-4.8 27.9-19.6 13.9-41.7 18.4-62.3 18.4z" fill="#3CDEF6" p-id="1865"></path><path d="M867.1 893.5c-38.4 0-71.6-15.8-73.7-16.8-0.7-0.3-1.1-0.5-1.7-0.9-2.6-1.5-43.5-24.4-96.6 1.1-70.6 33.8-126.9 4-134-0.1-1.5-0.8-13.8-6.9-31.3-9.9-23.7-4.1-45.7-0.9-65.2 9.6-22.6 12.2-45.1 16.2-65.1 16.2-37 0-65.1-13.9-69.2-16-2.1-1-50.7-23.6-97.7 0-66.1 33.2-130.9 1.4-133.6 0-9.9-5-13.8-17-8.9-26.9 5-9.8 16.9-13.8 26.8-8.9 0.5 0.2 49.9 24.1 97.7 0 66.1-33.2 130.9-1.4 133.7 0 0.2 0.1 0.3 0.2 0.5 0.2 0 0 12.9 6.7 31.5 9.8 23.8 4 45.7 0.7 65.3-9.8 66.6-35.8 132-1.1 134.7 0.4 0.4 0.2 0.5 0.2 0.8 0.5 2.6 1.5 43.5 24.2 96.7-1.3 69.1-33.1 124.5-5 133.6 0.2 5.9 2.7 60.1 26.1 94.9 1.5 9-6.4 21.5-4.2 27.9 4.8 6.4 9 4.2 21.5-4.8 27.9-19.6 13.9-41.7 18.4-62.3 18.4z" fill="#29A3EC" p-id="1866"></path><path d="M867 853.4c-35.8 0-67.2-14.9-69.2-15.9-0.3-0.1-0.6-0.3-0.9-0.5-0.1-0.1-11.9-7.1-30.9-10.5-25.2-4.5-50.5-0.8-75.3 11.1-15.3 7.3-37.6 14.9-63.9 14.9-7.8 0-16-0.7-24.5-2.2-20.8-3.8-34.3-11.3-36.5-12.6-2.7-1.4-55-27.8-106.1-0.3-60.8 32.7-120.6 2.4-125 0.1-2.1-1-55-25.9-106.6 0-61.7 31-122.1 1.3-124.6 0-4.9-2.5-6.9-8.5-4.4-13.4s8.5-6.9 13.4-4.4c1.1 0.5 54.4 26.2 106.6 0 61.7-31 122.1-1.3 124.7 0 0.1 0 0.2 0.1 0.2 0.1 0.5 0.3 54.1 28.1 106.2 0 62-33.3 122.7-1 125.2 0.4 0.1 0.1 0.3 0.2 0.4 0.2 0.1 0.1 11.9 7 30.9 10.4 25.2 4.4 50.5 0.6 75.3-11.2 19.9-9.5 51.4-19.5 88.4-12.6 20.1 3.8 33.4 11 36.3 12.6 4.9 2.3 65.2 29.1 105.3 0.8 4.5-3.2 10.8-2.1 13.9 2.4 3.2 4.5 2.1 10.8-2.4 13.9-17.6 12.5-37.7 16.7-56.5 16.7z" fill="#5A3392" p-id="1867"></path><path d="M301.3 659.8m-10 0a10 10 0 1 0 20 0 10 10 0 1 0-20 0Z" fill="#FFFFFF" p-id="1868"></path><path d="M371.4 355.4h10v20h-10zM622.6 375.4h-20.1v-20h20.1v20z m-40.2 0h-20.1v-20h20.1v20z m-40.2 0h-20.1v-20h20.1v20z m-40.2 0h-20.1v-20H502v20z m-40.2 0h-20.1v-20h20.1v20z m-40.2 0h-20.1v-20h20.1v20zM642.6 355.4h10v20h-10zM354 310.1c-5.5 0-10-4.5-10-10v-80.2c0-5.5 4.5-10 10-10s10 4.5 10 10v80.2c0 5.5-4.5 10-10 10zM667 310.1c-5.5 0-10-4.5-10-10v-80.2c0-5.5 4.5-10 10-10s10 4.5 10 10v80.2c0 5.5-4.5 10-10 10z" fill="#5A3392" p-id="1869"></path><path d="M354 175.9m-10 0a10 10 0 1 0 20 0 10 10 0 1 0-20 0Z" fill="#5A3392" p-id="1870"></path><path d="M667 175.9m-10 0a10 10 0 1 0 20 0 10 10 0 1 0-20 0Z" fill="#5A3392" p-id="1871"></path><path d="M436.6 214.3h148.5v76.5H436.6z" fill="#FB9761" p-id="1872"></path><path d="M547.9 278.4h-16.8c-5.5 0-10-4.5-10-10s4.5-10 10-10h16.8c5.5 0 10 4.5 10 10s-4.5 10-10 10z" fill="#FFFFFF" p-id="1873"></path></svg>