<?xml version="1.0" encoding="utf-8"?>
<!-- Generator: Adobe Illustrator 19.0.0, SVG Export Plug-In . SVG Version: 6.00 Build 0)  -->
<svg version="1.2" baseProfile="tiny" id="图层_1"
	 xmlns="http://www.w3.org/2000/svg" xmlns:xlink="http://www.w3.org/1999/xlink" x="0px" y="0px" viewBox="0 0 283.5 283.5"
	 xml:space="preserve">
<g id="XMLID_10310_">
	<g id="XMLID_10348_">
		<path id="XMLID_10350_" fill="#2F3340" d="M264.3,188L188,264.3c-25.6,25.6-67,25.6-92.6,0L19.2,188c-25.6-25.6-25.6-67,0-92.6
			l76.3-76.3c25.6-25.6,67-25.6,92.6,0l76.3,76.3C289.9,121,289.9,162.5,264.3,188z"/>
	</g>
	<g id="XMLID_10319_">
		<linearGradient id="XMLID_8_" gradientUnits="userSpaceOnUse" x1="159.4741" y1="51.5636" x2="158.5983" y2="66.5321">
			<stop  offset="0" style="stop-color:#A26A4E"/>
			<stop  offset="1" style="stop-color:#E7B293"/>
		</linearGradient>
		<path id="XMLID_10347_" fill="url(#XMLID_8_)" d="M136.4,60.2c0,0,9.8,0.8,12.8-4.8c3.1-5.6,4-13.6,4-13.6l15.7,0.2
			c0,0-0.9,15.7,3.7,19.7c4.6,3.9,8.4,4.6,8.4,4.6s-12.2,11-26.1,8.5C141.1,72.2,136.4,60.2,136.4,60.2z"/>
		<path id="XMLID_10346_" fill="#E7B293" d="M99.4,113.1c0,0,0.4,0.8,1.2,2.5c1.4,3.1,7.3,6.9,5.7,9.5c-2.8,4.5,2.7,7.4-6.7,8.7
			c-2.2,0.3-3.8-3.8-4.7-6.1c-0.9-2.3-1.4-8.4-1.4-8.4S94.3,111.4,99.4,113.1z"/>
		<path id="XMLID_10345_" fill="#E7B293" d="M128,78.2c-2.8-9.6-4.5-17.1-4.5-17.1c-6.5,2.5-16.3,4.6-20.3,6.2
			c-1.1,0.5-3.5,4-4.8,9.6c-1.2,5.2-2.8,11-2.8,23.3c0,13.4-1.6,18.6-1.5,19c0,0.5,1.2,8.6,6.7-3.2c0,0,2.4-13.7,8.6-25.5
			c1.5-2.8,0.5-9.2,1-11.4L128,78.2z"/>
		<path id="XMLID_10344_" fill="#E7B293" d="M136.4,174.2c0,0-4.2,16.1-6.5,16.2c-7.4,0.3-8.3-3.6-21.4,2.8
			c-11.7,5.8-17.3,4-18.7,4.7c-1.4,0.7-5.3,4.6-1.6,7.6c0,0,23.7-2.9,32.1-3.2c3.7-0.1,7.1,0,7.1,0s3.1,0.7,5,0.5
			c4.8-0.4,18.5-16.4,21-21.1L136.4,174.2z"/>
		<linearGradient id="XMLID_9_" gradientUnits="userSpaceOnUse" x1="144.0222" y1="168.5167" x2="138.6074" y2="185.8229">
			<stop  offset="0" style="stop-color:#999999"/>
			<stop  offset="0.3183" style="stop-color:#BBBBBE"/>
			<stop  offset="0.4305" style="stop-color:#C9C9CA"/>
			<stop  offset="0.6477" style="stop-color:#DFDFE0"/>
			<stop  offset="0.844" style="stop-color:#EDEDED"/>
			<stop  offset="1" style="stop-color:#F1F2F1"/>
		</linearGradient>
		<path id="XMLID_10343_" fill="url(#XMLID_9_)" d="M133.2,153.8c0,0,1.4,17,0.9,24.7c0,0,7,3.4,18.9,3.7l9.4-23.3L133.2,153.8z"/>
		<path id="XMLID_10342_" fill="#0F6AA8" d="M108.4,193.2c-11.7,5.8-17.3,4-18.7,4.7c-1.4,0.7-5.3,4.6-1.6,7.6
			c0,0,23.7-2.9,32.1-3.2c0.6,0,1.2,0,1.8,0c-1.1-4.2-2.1-9.4-2.7-12.7C116.8,189.7,113.5,190.7,108.4,193.2z"/>
		<path id="XMLID_10341_" fill="#E7B293" d="M170.2,169.1l6.3,10.4c0,0,1.5,3,1.3,7.2c-0.2,4.2,1.2,42.9,4.5,60c0,0,0.5,6.9-6.6,3.8
			c0,0-0.3-12.5-6-25.2c-5.7-12.7-5.9-18.1-4.1-26.3c1.8-8.2-11-15.8-11-15.8L170.2,169.1z"/>
		<path id="XMLID_10340_" fill="#F1F2F1" d="M122.9,133.7c0,0-2.2,7.8-2.8,11.8c-0.9,6.1,3.3,15,14.9,21c4,2.1,23.6,23.4,23.6,23.4
			l18.3-9.8l-18.2-36.8l1.3-6.5L122.9,133.7z"/>
		<path id="XMLID_10339_" fill="#E7B293" d="M206.6,91.7c-2-3.3-6.5-9.5-6.5-9.5l-11.2,8.5l8.6,5.1
			C197.5,95.8,203.8,95.8,206.6,91.7z"/>
		<path id="XMLID_10338_" fill="#0F6AA8" d="M175.8,250.5c7.1,3.1,6.6-3.8,6.6-3.8c-1.9-9.6-3.1-26-3.9-39.3l-13.9,0.8
			c0.2,4.5,1.7,9.5,5.1,17.1C175.5,238,175.8,250.5,175.8,250.5z"/>
		<g id="XMLID_10333_">
			<path id="XMLID_10337_" fill="#170E21" d="M205.4,255.4l0.2-1.2l-30.6,3.5c0,0,0,0.7,0.4,1.4c0.3,0.1,0.7,0.1,1.2,0.2l0.1,1.4
				l2.1,0.1l0.2-1.3c0.7,0,1.5,0,2.4,0l0.1,1.4l2.1,0.1l0.2-1.5c2.3-0.1,4.9-0.2,7.5-0.4l0.4,1.4l2.1-0.2l0-1.5
				c0.7-0.1,1.4-0.2,2.1-0.3l0.4,1.4l2.1-0.3l-0.1-1.5c0.6-0.1,1.1-0.2,1.6-0.4l0.7,1.4l2-0.7l-0.3-1.5
				C203.7,256.5,204.7,256,205.4,255.4z"/>
			<path id="XMLID_10336_" fill="#F2D126" d="M173.7,247.1l0.1-0.5c0.1-0.6,0.9-0.9,1.4-0.4c0.5,0.5,1.1,1,1.4,1.1
				c0.9,0.4,3.2,1.4,5.7-2.8c0.2-0.4,0.8-0.5,1.2-0.2c2.1,1.5,9,5.5,20.8,7.1c0.4,0.1,0.8,0.2,1.1,0.5c0.8,0.7,1.7,2.2-1.8,3.9
				c-4.8,2.3-12.3,1.9-15.3,2.1c-3,0.2-9.7,1.1-12.8,0.2C172.3,257.1,173.7,247.1,173.7,247.1z"/>
			<path id="XMLID_10335_" fill="#0F6AA8" d="M193.5,248.9c-0.9-0.3-1.8-0.6-2.6-0.9l-3.4,10.3l2.9,0.1L193.5,248.9z"/>
			<path id="XMLID_10334_" fill="#0F6AA8" d="M193.3,257.9c0.9,0,1.9-0.1,3-0.2l2.2-7.5c-1-0.2-1.9-0.4-2.7-0.7L193.3,257.9z"/>
		</g>
		<g id="XMLID_10328_">
			<path id="XMLID_10332_" fill="#170E21" d="M82.3,228.5l1.2,0.2l-4.7-30.5c0,0-0.7,0-1.3,0.4c-0.1,0.3-0.1,0.7-0.2,1.2l-1.4,0.2
				l0,2.1l1.3,0.1c0,0.7,0,1.5,0,2.4l-1.4,0.2l0,2.1l1.5,0.1c0.1,2.3,0.4,4.9,0.7,7.4l-1.4,0.4l0.3,2.1l1.5-0.1
				c0.1,0.7,0.2,1.4,0.4,2.1l-1.4,0.5l0.4,2.1l1.5-0.1c0.1,0.6,0.3,1.1,0.4,1.6l-1.4,0.8l0.7,2l1.5-0.4
				C81.2,226.8,81.7,227.8,82.3,228.5z"/>
			<path id="XMLID_10331_" fill="#F2D126" d="M89.4,196.5l0.5,0.1c0.6,0.1,0.9,0.8,0.5,1.3c-0.5,0.5-0.9,1.1-1,1.4
				c-0.3,0.9-1.3,3.3,3,5.6c0.4,0.2,0.5,0.8,0.3,1.2c-1.4,2.2-5.1,9.2-6.2,21.1c0,0.4-0.2,0.8-0.5,1.2c-0.7,0.8-2.2,1.8-3.9-1.6
				c-2.5-4.7-2.4-12.2-2.7-15.2c-0.3-3-1.5-9.6-0.7-12.8C79.4,195.5,89.4,196.5,89.4,196.5z"/>
			<path id="XMLID_10330_" fill="#0F6AA8" d="M88.4,216.3c0.3-1,0.5-1.8,0.8-2.7l-10.4-3l0,2.9L88.4,216.3z"/>
			<path id="XMLID_10329_" fill="#0F6AA8" d="M79.4,216.5c0.1,0.9,0.2,1.9,0.3,3l7.6,1.9c0.2-1,0.4-1.9,0.6-2.7L79.4,216.5z"/>
		</g>
		<path id="XMLID_10327_" fill="#E7B293" d="M193.4,111.1c0,0-1.2,2.8-4,4.1c-2.8,1.3-5.8,3.7-5.3,6c0.5,2.2,0.3,4.5,0.3,4.5
			s3.6,1.4,6.9,2c3.7,0.6,6-0.8,6.3-1.2c0.4-0.5,0.6-1.6,0.5-5.4c-0.1-3.7,0.4-5.9,0.4-8C198.5,111,194.9,109.5,193.4,111.1z"/>
		<path id="XMLID_10326_" fill="#E7B293" d="M196.3,95.1c0,0-0.9,1.2-2.4,4.9c-1.3,3.1,0.4,10.5-3.4,17.3c-1.4,2.5,0.6,4.7,3.9,6.1
			c3.3,1.4,2.4-2.5,3.4-5.4c1-2.9,9.1-17.2,9.8-21.7c0.5-3.1-1.4-5.5-1.4-5.5S200.4,93.4,196.3,95.1z"/>
		<path id="XMLID_10325_" fill="#E7B293" d="M151.2,42.3l1.9,10.6l10.9,8.8l7.1-0.7l2.6-5.7l3.2-14.5c0,0,1.6-11.4-5.8-13.9
			C163.7,24.4,150.6,24.7,151.2,42.3z"/>
		<path id="XMLID_10324_" fill="#3D332E" d="M151.3,40.4l0.6,4.7l1.4-1l0.3-4l1.6-2.1v-4.1c0,0,3.4,3.4,12.7,4.2
			c9.4,0.8,16.1-5.1,16.1-5.1l-5.9-3.3c0,0-10.4-13.3-23.4-3.5c-6.4,0.3-6.6,6.7-6.8,7.9c-0.2,1.2,0.7,5.9,0.7,5.9l0.2,1.4
			L151.3,40.4z"/>
		<path id="XMLID_10323_" fill="#E7B293" d="M151.7,41c0,0-1.6-2.6-3.5-0.3c-1.9,2.2,0.9,5.9,0.9,5.9s0,1.3,0.4,1.9
			c0.7,1.1,3.1,1,3.1,1L151.7,41z"/>
		<g id="XMLID_10320_">
			<path id="XMLID_10322_" fill="#0F6AA8" d="M188.9,91.2c0,0,7.7,0.6,11.7-8.3c0,0-11-18-14.6-19.6c-3.6-1.6-13.5-4.6-14.1-4.8
				c-1.4,3.6-4,6.2-11.3,6.4c-8.1,0.3-11.6-6.3-12.6-8.8c-8.2,0.6-12.3,0.1-14.5,1c-5.7,2.2-16.7,6.4-16.7,6.4s-4.1,6.7,2.2,15.3
				l11.9,0.6l-3,20.5c11.9,1.3,30.3,3.5,45.3,6.2c3.1-7.5,6.2-14.7,8.2-19.9C181.4,86.2,184.3,87.9,188.9,91.2z"/>
			<path id="XMLID_10321_" fill="#F2D126" d="M122.9,133.7l37.1,3.1c0,0,6.9-15.7,13.2-30.8c-15-2.7-33.3-4.9-45.3-6.2L122.9,133.7z
				"/>
		</g>
	</g>
	<g id="XMLID_10311_">
		<path id="XMLID_10318_" fill="#F1F2F1" d="M220.6,216.6c1.9,9.6-4.4,18.9-14,20.8c-9.6,1.9-18.9-4.4-20.8-14
			c-1.9-9.6,4.4-18.9,14-20.8C209.4,200.7,218.7,207,220.6,216.6z"/>
		<polygon id="XMLID_10317_" fill="#221F20" points="203.8,214.6 200,221.6 205.2,226.5 212.1,223.1 210.7,215.5 		"/>
		<path id="XMLID_10316_" fill="#221F20" d="M192.2,206.5l0.3,3.2l7.3-0.6l3.2-4.7l-3.9-1.6c0,0-1.7,0.2-3.6,1.3
			C193.5,205.1,192.2,206.5,192.2,206.5z"/>
		<path id="XMLID_10315_" fill="#221F20" d="M189.2,216.4l-3.5,3.3c0,0,0.4,3.8,1.2,7.2c0,0,2.6,1.5,4.4,1.7c0,0,1-4.7,1.8-6.2
			C193.1,222.5,189.9,217.8,189.2,216.4z"/>
		<path id="XMLID_10314_" fill="#221F20" d="M197.7,236.8c0,0-0.6-2.1-0.7-2.6c0,0,5.2-0.7,6.7-1.3c0,0,3.4,2,4.6,2.4
			c0,0-1.3,1.4-2.5,2.2C205.8,237.5,200.6,238.1,197.7,236.8z"/>
		<path id="XMLID_10313_" fill="#221F20" d="M220,221.4c0,0-0.9,2.8-3.1,4.4c0,0-0.5,3.7-1.7,5.8c0,0,0.4,0,1.5-0.4c0,0,0.8-1,2.3-4
			c1.4-2.9,1.4-4,1.4-4L220,221.4z"/>
		<path id="XMLID_10312_" fill="#221F20" d="M210.8,205.7c0,0,1.8,1.8,3.4,5.3c0,0,3.2,1.4,4.4,2.5c0,0-0.1-1.2-0.9-3.4
			c0,0-3.1-4-4.8-4.9C213,205.2,212,205.3,210.8,205.7z"/>
	</g>
</g>
<g id="XMLID_1_">
</g>
<g id="XMLID_2_">
</g>
<g id="XMLID_3_">
</g>
<g id="XMLID_4_">
</g>
<g id="XMLID_5_">
</g>
<g id="XMLID_6_">
</g>
</svg>
