<?xml version="1.0" encoding="utf-8"?>
<!-- Generator: Adobe Illustrator 19.0.0, SVG Export Plug-In . SVG Version: 6.00 Build 0)  -->
<svg version="1.2" baseProfile="tiny" id="图层_1"
	 xmlns="http://www.w3.org/2000/svg" xmlns:xlink="http://www.w3.org/1999/xlink" x="0px" y="0px" viewBox="0 0 283.5 283.5"
	 xml:space="preserve">
<g id="XMLID_1168_">
	<g id="XMLID_1268_">
		<path id="XMLID_1270_" fill="#2F3340" d="M264.3,188L188,264.3c-25.6,25.6-67,25.6-92.6,0L19.2,188c-25.6-25.6-25.6-67,0-92.6
			l76.3-76.3c25.6-25.6,67-25.6,92.6,0l76.3,76.3C289.9,121,289.9,162.5,264.3,188z"/>
	</g>
	<g id="XMLID_1190_">
		<g id="XMLID_1264_">
			<path id="XMLID_1267_" fill="#1E427F" d="M154.4,185.1c-1.1,4.5,2.2,7.5,0.9,13.8c-1.5,7-1.2,10.3,0.2,12.5
				c3.2,5.2,8.3,4.1,10.2,0.6c5.9-11-1.5-13.3-0.3-24.4c0.6-5.1-2.3-9-6-7.9C155.8,180.9,155,182.7,154.4,185.1z"/>
			<path id="XMLID_1266_" fill="#F2D126" d="M168,204c0-1.4-0.3-2.6-0.6-3.9c-2.8-2.6-3.8-3.5-9.2-4.1c-0.8-0.1-1.7,0.1-2.5,0.1
				c0,0.8-0.1,1.7-0.3,2.7c-0.1,0.3-0.1,0.5-0.2,0.8c0.6-0.1,1.4-0.2,2.3-0.3C161.4,199,165.9,202.3,168,204z"/>
			<path id="XMLID_1265_" fill="#F2D126" d="M166.4,197.1c-0.4-1.2-0.7-2.5-0.9-3.9c-2.6-1.6-5.3-2.7-7.1-2.7
				c-1.1,0-2.4,0.1-3.5,0.2c0.3,1.1,0.6,2.2,0.7,3.4c0.6-0.1,1.3-0.1,2.1-0.2C160.6,193.5,164.1,195.4,166.4,197.1z"/>
		</g>
		<path id="XMLID_1231_" fill="#E7B293" d="M124.7,157.9c0,0,3.5,22.1,4.6,27.4c1.6,7.8,2,11.6,1.5,20.8c-0.5,9.1,9.5,42.2,9.5,49.4
			c0,0,2.5,5.5,5.5,0.4c0,0-0.7-27.4,0.7-38.8c1-8-1.9-19.3-2.7-24.3c-0.7-5,1.2-34,1.2-34L124.7,157.9z"/>
		<path id="XMLID_1230_" fill="#E7B293" d="M148.7,151.9c0,0,0.1,17.1,1.4,27.4c1.3,10.2-0.2,14.5,5.8,17.4c6,2.9,8.5-5.6,9-15.9
			c0.5-10.3,2-28.5,2-28.5L148.7,151.9z"/>
		<path id="XMLID_1228_" fill="#F2D126" d="M140.3,255.4c0,0,0.6,1.4,1.6,2.1c0.2,0.1,0.4,0.2,0.6,0.3c0.9,0.4,2.1,0.1,3.4-2
			c0,0-0.7-27.4,0.7-38.8c0.4-3,0.2-6.5-0.2-10c-4.6,0.1-10.8,0.8-15.4,1.4C131.7,220,140.2,248.8,140.3,255.4z"/>
		<path id="XMLID_1227_" fill="#170E21" d="M150.3,265.1l-0.3,1.7c0,0-2.3,2.8-8.6,2.4c-6.4-0.4-7.3-3.1-7.3-3.1l-0.2-1.5
			L150.3,265.1z"/>
		<path id="XMLID_1226_" fill="#1E427F" d="M139.5,252.5c1.2-1.4,5.4-3.5,7.4-0.1c0,0,1.1,3.2,2,5c0.8,1.7,2.2,3.8,1.6,7.4
			c-0.5,3.5-12.1,4.9-16.1,0.6C132.3,263.2,138.3,253.9,139.5,252.5z"/>
		<path id="XMLID_1225_" fill="#F2D126" d="M136.7,256.8c2-1.5,5.4-3,10.2-1.9c0.3,0.1,0.6,0.2,0.9,0.2c0.3,0.8,0.7,1.6,1,2.3
			c0.7,1.5,1.9,3.4,1.7,6.2c-0.5-2-1.5-4.7-3.7-5.5c-4.5-1.7-8.7-0.4-11.8,1.8C135.5,258.9,136.1,257.8,136.7,256.8z"/>
		<path id="XMLID_1223_" fill="#F1F2F1" d="M121.1,130.2l6.7,50.7c8.8,2.2,16.3-0.7,16.3-0.7c0.9-11.1,1.5-19,2-24.2l3,17.3
			c9.3-6.3,16.8-1.4,16.8-1.4l3.1-42.5L121.1,130.2z"/>
		<linearGradient id="XMLID_8_" gradientUnits="userSpaceOnUse" x1="153.3621" y1="38.8841" x2="156.2325" y2="41.0734">
			<stop  offset="0" style="stop-color:#A26A4E"/>
			<stop  offset="1" style="stop-color:#E7B293"/>
		</linearGradient>
		<path id="XMLID_1222_" fill="url(#XMLID_8_)" d="M155.3,37.2c0,0,1.6-2.2,3.1,0c1.5,2.2-1.2,5.3-1.2,5.3s-0.1,1.2-0.5,1.7
			c-0.7,1-2.6,0.9-2.6,0.9L155.3,37.2z"/>
		<linearGradient id="XMLID_9_" gradientUnits="userSpaceOnUse" x1="136.8674" y1="39.3987" x2="132.7424" y2="41.4855">
			<stop  offset="0" style="stop-color:#A26A4E"/>
			<stop  offset="1" style="stop-color:#E7B293"/>
		</linearGradient>
		<path id="XMLID_1221_" fill="url(#XMLID_9_)" d="M135,37.5c0,0-1.9-2.5-3.5-0.3c-1.5,2.2,1.2,5.3,1.2,5.3s0.1,1.2,0.5,1.7
			c0.7,1,2.6,0.9,2.6,0.9L135,37.5z"/>
		<path id="XMLID_1220_" fill="#3D332E" d="M128.9,21.4c0,0,18.8-14.8,25.6-2c0,0,4.4,2.2,4.3,7.9c-0.1,5.7-2,7.7-2.9,11.6
			c0,0-10.8,6.5-22.5,1.1c-1.8-8.8-2.8-12-3-14.1C130.4,23.8,129.2,22.1,128.9,21.4z"/>
		<path id="XMLID_1219_" fill="#E7B293" d="M182.8,65.3c0,0,5.6,5.1,8.2,7.6c2.6,2.5,5.1,4.2,4.2,8.4c-0.9,4.1-5.8,4.5-8.1,3.2
			c-2.3-1.3-8-3.6-8-3.6s-4.7-7-2.5-11.1C178.8,65.7,182.8,65.3,182.8,65.3z"/>
		<path id="XMLID_1218_" fill="#E7B293" d="M101.4,70.8c0,0-3.6,5.8-8.7,10.7c-5.1,4.9-9.9,8.7-1.5,12.7c5.7,2.7,17.2-11.8,24.2-16
			L101.4,70.8z"/>
		<linearGradient id="XMLID_10_" gradientUnits="userSpaceOnUse" x1="144.4693" y1="38.861" x2="144.4693" y2="58.5554">
			<stop  offset="0" style="stop-color:#A26A4E"/>
			<stop  offset="1" style="stop-color:#E7B293"/>
		</linearGradient>
		<path id="XMLID_1217_" fill="url(#XMLID_10_)" d="M166.2,58.6c0,0-7.7,0-10.3-5.9c-2.6-5.9-3-15-3-15h-15.6c0,0-0.7,15.1-6.3,17.6
			c-5.5,2.5-8.4,2.5-8.4,2.5c0.4,0.4,4.1,14.7,23.8,13.7C166.5,70.5,166,59,166.2,58.6z"/>
		<path id="XMLID_1216_" fill="#E7B293" d="M191.9,120c0,0,0-0.7-0.9,2.6c-0.9,3.3-6.5,7.6-4.6,10c3.2,4.2-1.9,7.6,7.6,8
			c2.2,0.1,3.4-4.2,4-6.5c0.7-2.3,0.5-8.5,0.5-8.5S196.8,117.8,191.9,120z"/>
		<path id="XMLID_1214_" fill="#E7B293" d="M193.8,75.6c0,0,5,4.1,4.7,12.4c-0.6,14.4-0.4,32.9-0.1,38l-6,2.4c0,0-0.8-10.8-2.4-17.1
			c-1.6-6.3-3.5-9.2-4.3-17.8c-0.3-3.7-0.6-10-0.6-10L193.8,75.6z"/>
		<path id="XMLID_1213_" fill="#E7B293" d="M155.7,35.7L154.1,46l-6.2,5.1h-6.4l-6-4.6l-2-14.6c0,0-1.4-10.5,5.4-11.9
			C150.8,17.5,157.5,19.6,155.7,35.7z"/>
		<path id="XMLID_1212_" fill="#E7B293" d="M97.8,87.7c0,0-2.1-4.3-6.1-3.1c-4,1.2-5.4,3-6.5,6.8c-1.4,4.9,2.9,9.7,3.3,14.6
			c0.5,4.9,8.9,3.4,9.2-1c0.3-3.4-1.4-5.3,0-9.4C99.2,91.5,97.8,87.7,97.8,87.7z"/>
		<path id="XMLID_1211_" fill="#E7B293" d="M89.2,104.4c-1.9,0.8-2.4,2.5-1.6,4.7c0.8,2.1,0.7,3.5,1.3,4.8c0.5,1.3,3,0.1,4.5,0.5
			c1.5,0.4,3.4,1.1,4.2,0.4c0.8-0.6,1.9,0.6,2.8,0.1c0.8-0.6,0.5-1.4,1.3-1.7c0.7-0.2,1.7-0.7,1.9-1.9c0.2-1.2-1.2-4.1-1.8-5.3
			c-0.6-1.2-3.4-1.7-4.2-2.5C96.9,102.7,91.2,103.6,89.2,104.4z"/>
		<path id="XMLID_1197_" fill="#3D332E" d="M154.1,20.4c0,0-0.8,3.5-3.7,4.1c-9.3,2.1-20.5-2.1-20.5-2.1s8.3-6.4,17.2-5.3
			C150.8,17.6,154.1,20.4,154.1,20.4z"/>
		<g id="XMLID_1191_">
			<path id="XMLID_1196_" fill="#1E427F" d="M130.2,56.8c-0.4-0.7-0.8-1.5-1-2.2c-6.9,0.5-11.5,1.1-14.1,1.9
				c-4.7,1.5-15.8,17.2-15.8,17.2c0.7,4.9,4.8,8.2,9.3,9.9l8.1-5.7c0.4,3.3,0.8,6.6,1.1,9.8l14.3-0.2L130.2,56.8z"/>
			<path id="XMLID_1195_" fill="#1E427F" d="M143.6,131.2c14.8-0.2,25.5-1.9,25.5-1.9c0-11.9,0.8-23.6,1.7-32.8l-28.7,0.5
				L143.6,131.2z"/>
			<path id="XMLID_1194_" fill="#1E427F" d="M118.7,97.3c1.8,19,2.4,32.8,2.4,32.8c4.6,0.5,9.1,0.8,13.4,0.9l-2-34L118.7,97.3z"/>
			<path id="XMLID_1193_" fill="#1E427F" d="M171.8,87c0.6-5,1.1-8.1,1.1-8.1l6.7,2.1c5.9-2.9,5.6-13.9,5.6-13.9s-5.4-5.1-13-9.7
				c-2.5-1.5-8.2-1.5-12-1.7c-1.3,3.6-5.6,9.9-15.6,9.3c-1.4-0.1-2.7-0.3-3.9-0.6l1,23L171.8,87z"/>
			<path id="XMLID_1192_" fill="#F2D126" d="M141.7,87.4l-1-23c-5.6-1.4-8.8-4.6-10.5-7.6l1.8,30.8l-14.3,0.2c0.4,3.3,0.7,6.5,1,9.5
				l13.9-0.2l2,34c3.1,0.1,6.2,0.1,9.1,0.1l-1.5-34.3l28.7-0.5c0.4-3.6,0.7-6.8,1-9.5L141.7,87.4z"/>
		</g>
	</g>
	<g id="XMLID_1169_">
		<path id="XMLID_1188_" fill="#F1F2F1" d="M163.6,126.9c1.9,9.6-4.4,18.9-14,20.8c-9.6,1.9-18.9-4.4-20.8-14
			c-1.9-9.6,4.4-18.9,14-20.8C152.4,111,161.7,117.3,163.6,126.9z"/>
		<polygon id="XMLID_1187_" fill="#221F20" points="146.8,124.9 143,131.8 148.2,136.8 155.1,133.3 153.6,125.8 		"/>
		<path id="XMLID_1186_" fill="#221F20" d="M135.2,116.8l0.3,3.2l7.3-0.6l3.2-4.7L142,113c0,0-1.7,0.2-3.6,1.3
			C136.4,115.4,135.2,116.8,135.2,116.8z"/>
		<path id="XMLID_1185_" fill="#221F20" d="M132.2,126.7l-3.5,3.3c0,0,0.4,3.8,1.2,7.2c0,0,2.6,1.5,4.4,1.7c0,0,1-4.7,1.8-6.2
			C136,132.8,132.9,128.1,132.2,126.7z"/>
		<path id="XMLID_1184_" fill="#221F20" d="M140.7,147.1c0,0-0.6-2.1-0.7-2.6c0,0,5.2-0.7,6.7-1.3c0,0,3.4,2,4.6,2.4
			c0,0-1.3,1.4-2.5,2.2C148.8,147.8,143.6,148.4,140.7,147.1z"/>
		<path id="XMLID_1171_" fill="#221F20" d="M163,131.7c0,0-0.9,2.8-3.1,4.4c0,0-0.5,3.7-1.7,5.8c0,0,0.4,0,1.5-0.4c0,0,0.8-1,2.3-4
			c1.4-2.9,1.4-4,1.4-4L163,131.7z"/>
		<path id="XMLID_1170_" fill="#221F20" d="M153.8,116c0,0,1.8,1.8,3.4,5.3c0,0,3.2,1.4,4.4,2.5c0,0-0.1-1.2-0.9-3.4
			c0,0-3.1-4-4.8-4.9C156,115.5,155,115.6,153.8,116z"/>
	</g>
</g>
<g id="XMLID_1_">
</g>
<g id="XMLID_2_">
</g>
<g id="XMLID_3_">
</g>
<g id="XMLID_4_">
</g>
<g id="XMLID_5_">
</g>
<g id="XMLID_6_">
</g>
</svg>
