<?xml version="1.0" encoding="utf-8"?>
<!-- Generator: Adobe Illustrator 19.0.0, SVG Export Plug-In . SVG Version: 6.00 Build 0)  -->
<svg version="1.2" baseProfile="tiny" xmlns="http://www.w3.org/2000/svg" xmlns:xlink="http://www.w3.org/1999/xlink" x="0px"
	 y="0px" viewBox="0 0 283.5 283.5" xml:space="preserve">
<g id="图层_2">
	<path id="XMLID_127_" fill-rule="evenodd" fill="#F39D45" d="M141.7,255.1c62.5,0,113.4-50.9,113.4-113.4
		c0-62.5-50.9-113.4-113.4-113.4c-62.4,0-113.4,50.9-113.4,113.4C28.3,204.2,79.3,255.1,141.7,255.1z"/>
	<path id="XMLID_126_" fill-rule="evenodd" fill="#FBE7B0" d="M28.3,141.7c0-62.6,50.8-113.4,113.4-113.4s113.4,50.8,113.4,113.4
		H28.3z"/>
	<g id="XMLID_270_">
		<rect id="XMLID_125_" x="173" y="93.4" fill-rule="evenodd" fill="#EA5762" width="16.1" height="4.4"/>
		<rect id="XMLID_124_" x="97.3" y="93.4" fill-rule="evenodd" fill="#EA5762" width="16.1" height="4.4"/>
		<rect id="XMLID_123_" x="142.3" y="99.5" fill-rule="evenodd" fill="#5A5657" width="0.5" height="4.3"/>
		<path id="XMLID_122_" fill-rule="evenodd" fill="#EA5762" d="M165.6,76.3h-11h-11.7h-21.5c-4.4,0-8.1,3.6-8.1,8l0,18.5
			c0,1.4,1.2,2.6,2.6,2.6c1.1,0,2-0.7,2.4-1.6h7.8l0.4,0l0.4,0h15.6v-4.3h-18.1c0,0,0.1-11.7,0.1-14.1l18.5,0v0l20.7,0
			c0,2.6,0.2,14.1,0.2,14.1l-20.9,0v4.3h17.7l0.4,0l0.4,0h7.4c0.4,0.9,1.3,1.6,2.4,1.6c1.1,0,2-0.7,2.4-1.6h0.1v-0.3
			c0.1-0.2,0.1-0.4,0.1-0.7V84.3C173.7,79.9,170,76.3,165.6,76.3z"/>
		<path id="XMLID_121_" fill-rule="evenodd" fill="#5EA4CD" d="M93.3,97.1H71.6c-2.3,0-4.1,1.8-4.1,4.1v21.4v60.3V203
			c0,2.3,1.8,4.1,4.1,4.1h20.1h50.7h49.4h20.1c2.3,0,4.1-1.8,4.1-4.1v-20.1v-61.6v-20.1c0-2.3-1.8-4.1-4.1-4.1h-20.1h-49.4v0H93.3z"
			/>
		<path id="XMLID_120_" fill-rule="evenodd" fill="#EA5762" d="M88.1,98.2c0-0.4,0-0.7,0-1.1H70.7c-1.8,0-3.3,1.5-3.3,3.3l0,17
			c0.4,0,0.9,0.1,1.3,0.1C79.4,117.5,88.1,108.8,88.1,98.2z"/>
		<path id="XMLID_119_" fill-rule="evenodd" fill="#EA5762" d="M216,117.7v-17.1c0-1.9-1.6-3.5-3.5-3.5h-17.1
			C195.4,108.5,204.6,117.7,216,117.7z"/>
		<path id="XMLID_118_" fill-rule="evenodd" fill="#EA5762" d="M216,203.6v-17.1c-11.4,0-20.6,9.2-20.6,20.6h17.1
			C214.4,207.1,216,205.6,216,203.6z"/>
		<path id="XMLID_117_" fill-rule="evenodd" fill="#EA5762" d="M67.5,186.5v17.1c0,1.9,1.6,3.5,3.5,3.5h17.1
			C88.1,195.8,78.8,186.5,67.5,186.5z"/>
		<rect id="XMLID_116_" x="101" y="97.1" fill-rule="evenodd" fill="#EA5762" width="8.8" height="110"/>
		<rect id="XMLID_115_" x="177.2" y="97.1" fill-rule="evenodd" fill="#EA5762" width="8.9" height="110"/>
		<rect id="XMLID_114_" x="93.1" y="145.7" fill-rule="evenodd" fill="#4E4D4D" width="25.2" height="15.3"/>
		<rect id="XMLID_113_" x="169" y="145.7" fill-rule="evenodd" fill="#4E4D4D" width="25.2" height="15.2"/>
	</g>
</g>
<g id="图层_1">
	<path id="XMLID_192_" fill-rule="evenodd" fill="#63A1C6" d="M141.3,255.3c62.5,0,113.4-50.9,113.4-113.4
		c0-62.5-50.9-113.4-113.4-113.4c-62.4,0-113.4,50.9-113.4,113.4C27.9,204.3,78.9,255.3,141.3,255.3z"/>
	<path id="XMLID_191_" fill-rule="evenodd" fill="#97CAE8" d="M27.9,141.9c0-62.6,50.8-113.4,113.4-113.4s113.4,50.8,113.4,113.4
		H27.9z"/>
	<g id="XMLID_194_">
		<path id="XMLID_190_" fill-rule="evenodd" fill="#FBE7B0" d="M124.7,169.8L124.7,169.8c4.5,2.6,6,8.3,3.4,12.8l-52.6,91.1
			c-2.6,4.5-8.3,6-12.8,3.4l0,0c-4.5-2.6-6-8.3-3.4-12.8l52.6-91.1C114.5,168.8,120.2,167.3,124.7,169.8z"/>
		<g id="XMLID_195_">
			<path id="XMLID_189_" fill-rule="evenodd" fill="#EA5762" d="M133.3,234.6c-0.1,0.3,1.7-2.8-0.3,0.7c-2,3.5-22.6,3.5-41.7-7.5
				c-19.1-11-29.4-28.8-27.3-32.3c2-3.5,0.3-0.5,0.5-0.7l0,0L166.9,49.1L187.6,61l20.6,11.9L133.3,234.6L133.3,234.6z"/>
			<path id="XMLID_188_" fill-rule="evenodd" fill="#F3A7AB" d="M175.9,52.6L175.9,52.6c2.5,1.4,3.2,4.6,1.5,7L78,202.2
				c-1.7,2.4-5.1,3.2-7.6,1.7l0,0c-2.5-1.4-3.2-4.6-1.5-7l99.5-142.7C170,51.9,173.4,51.1,175.9,52.6z"/>
			
				<ellipse id="XMLID_187_" transform="matrix(0.5 -0.866 0.866 0.5 40.962 192.9302)" fill-rule="evenodd" fill="#F3A7AB" cx="187.6" cy="61" rx="8.6" ry="23.8"/>
			<path id="XMLID_202_" fill="#FBDCB9" d="M153.2,68.6c8.1,4.9,17,8.8,26.1,11.1c8.4,2.1,16.9,2.7,25.2,1.2l-10.5,22.7
				c-6.7-0.1-13.4-1.1-20-2.7c-11.8-2.9-23.1-8.1-33.4-14.4L153.2,68.6L153.2,68.6z M119.7,221.3v-22.5c0.6,0.2,1.2,0.3,1.8,0.5
				c9.3,2.3,18.8,2.8,27.9,0.6l-10.8,23.3C132.2,223.2,125.9,222.6,119.7,221.3L119.7,221.3z M119.7,175.9v-24.1
				c6.7,3.5,13.7,6.4,21,8.2c8.9,2.2,18.1,2.8,26.9,0.8l-10.7,23.1c-7.2,0-14.4-0.9-21.5-2.7C130,179.8,124.8,178,119.7,175.9
				L119.7,175.9z M119.7,126.3v-10.1l7.7-11c10.1,7.2,21.9,13.3,34.2,16.4c7.7,1.9,15.7,2.6,23.4,1.5l-10.4,22.4
				c-6.2-0.2-12.3-1.1-18.3-2.7C143.2,139.6,130.7,133.6,119.7,126.3z M119.7,116.2v10.1c-1.6-1.1-3.2-2.2-4.8-3.3L119.7,116.2
				L119.7,116.2z M119.7,151.7v24.1c-10.8-4.5-20.9-10.7-29.7-17.4l12.6-17.8C107.8,144.7,113.5,148.5,119.7,151.7L119.7,151.7z
				 M119.7,198.8c-14.2-3.9-27.8-11.8-38.7-20.7c-1-0.8-2.1-1.7-3-2.6l-12.6,17.9c0.6,0.5,1.3,1.1,1.9,1.6
				c13.6,11.1,30.7,20.9,48.8,25.4c1.2,0.3,2.4,0.6,3.6,0.8V198.8z"/>
			<path id="XMLID_197_" fill="#FDECDA" d="M156.7,70.7c3.1,1.7,6.3,3.3,9.5,4.7l-12.7,18.2c-3.2-1.5-6.3-3.2-9.4-4.9L156.7,70.7
				L156.7,70.7z M140,113.1l-12.5,18c-3.1-1.7-6.1-3.6-8.9-5.5l12.5-17.9C133.8,109.6,136.9,111.4,140,113.1L140,113.1z
				 M114.9,149.1L102.4,167c-3-1.8-5.9-3.8-8.7-5.8l12.5-17.9C109,145.3,111.9,147.3,114.9,149.1L114.9,149.1z M90.1,184.8L78,202.2
				c-0.1,0.2-0.2,0.3-0.4,0.5c-2.9-2-5.8-4-8.4-6.2l12.5-17.9C84.3,180.7,87.1,182.8,90.1,184.8z"/>
			
				<ellipse id="XMLID_175_" transform="matrix(0.5001 -0.866 0.866 0.5001 41.8634 195.4754)" fill-rule="evenodd" fill="#EA5762" cx="190.2" cy="61.5" rx="7.6" ry="21.3"/>
		</g>
	</g>
	<g id="XMLID_1_">
	</g>
	<g id="XMLID_2_">
	</g>
	<g id="XMLID_3_">
	</g>
	<g id="XMLID_4_">
	</g>
	<g id="XMLID_5_">
	</g>
	<g id="XMLID_6_">
	</g>
</g>
</svg>
