<?xml version="1.0" encoding="utf-8"?>
<!-- Generator: Adobe Illustrator 19.0.0, SVG Export Plug-In . SVG Version: 6.00 Build 0)  -->
<svg version="1.2" baseProfile="tiny" xmlns="http://www.w3.org/2000/svg" xmlns:xlink="http://www.w3.org/1999/xlink" x="0px"
	 y="0px" viewBox="0 0 283.5 283.5" xml:space="preserve">
<g id="图层_2">
	<path id="XMLID_127_" fill-rule="evenodd" fill="#F39D45" d="M141.7,255.1c62.5,0,113.4-50.9,113.4-113.4
		c0-62.5-50.9-113.4-113.4-113.4c-62.4,0-113.4,50.9-113.4,113.4C28.3,204.2,79.3,255.1,141.7,255.1z"/>
	<path id="XMLID_126_" fill-rule="evenodd" fill="#FBE7B0" d="M28.3,141.7c0-62.6,50.8-113.4,113.4-113.4s113.4,50.8,113.4,113.4
		H28.3z"/>
	<g id="XMLID_270_">
		<rect id="XMLID_125_" x="173" y="93.4" fill-rule="evenodd" fill="#EA5762" width="16.1" height="4.4"/>
		<rect id="XMLID_124_" x="97.3" y="93.4" fill-rule="evenodd" fill="#EA5762" width="16.1" height="4.4"/>
		<rect id="XMLID_123_" x="142.3" y="99.5" fill-rule="evenodd" fill="#5A5657" width="0.5" height="4.3"/>
		<path id="XMLID_122_" fill-rule="evenodd" fill="#EA5762" d="M165.6,76.3h-11h-11.7h-21.5c-4.4,0-8.1,3.6-8.1,8l0,18.5
			c0,1.4,1.2,2.6,2.6,2.6c1.1,0,2-0.7,2.4-1.6h7.8l0.4,0l0.4,0h15.6v-4.3h-18.1c0,0,0.1-11.7,0.1-14.1l18.5,0v0l20.7,0
			c0,2.6,0.2,14.1,0.2,14.1l-20.9,0v4.3h17.7l0.4,0l0.4,0h7.4c0.4,0.9,1.3,1.6,2.4,1.6c1.1,0,2-0.7,2.4-1.6h0.1v-0.3
			c0.1-0.2,0.1-0.4,0.1-0.7V84.3C173.7,79.9,170,76.3,165.6,76.3z"/>
		<path id="XMLID_121_" fill-rule="evenodd" fill="#5EA4CD" d="M93.3,97.1H71.6c-2.3,0-4.1,1.8-4.1,4.1v21.4v60.3V203
			c0,2.3,1.8,4.1,4.1,4.1h20.1h50.7h49.4h20.1c2.3,0,4.1-1.8,4.1-4.1v-20.1v-61.6v-20.1c0-2.3-1.8-4.1-4.1-4.1h-20.1h-49.4v0H93.3z"
			/>
		<path id="XMLID_120_" fill-rule="evenodd" fill="#EA5762" d="M88.1,98.2c0-0.4,0-0.7,0-1.1H70.7c-1.8,0-3.3,1.5-3.3,3.3l0,17
			c0.4,0,0.9,0.1,1.3,0.1C79.4,117.5,88.1,108.8,88.1,98.2z"/>
		<path id="XMLID_119_" fill-rule="evenodd" fill="#EA5762" d="M216,117.7v-17.1c0-1.9-1.6-3.5-3.5-3.5h-17.1
			C195.4,108.5,204.6,117.7,216,117.7z"/>
		<path id="XMLID_118_" fill-rule="evenodd" fill="#EA5762" d="M216,203.6v-17.1c-11.4,0-20.6,9.2-20.6,20.6h17.1
			C214.4,207.1,216,205.6,216,203.6z"/>
		<path id="XMLID_117_" fill-rule="evenodd" fill="#EA5762" d="M67.5,186.5v17.1c0,1.9,1.6,3.5,3.5,3.5h17.1
			C88.1,195.8,78.8,186.5,67.5,186.5z"/>
		<rect id="XMLID_116_" x="101" y="97.1" fill-rule="evenodd" fill="#EA5762" width="8.8" height="110"/>
		<rect id="XMLID_115_" x="177.2" y="97.1" fill-rule="evenodd" fill="#EA5762" width="8.9" height="110"/>
		<rect id="XMLID_114_" x="93.1" y="145.7" fill-rule="evenodd" fill="#4E4D4D" width="25.2" height="15.3"/>
		<rect id="XMLID_113_" x="169" y="145.7" fill-rule="evenodd" fill="#4E4D4D" width="25.2" height="15.2"/>
	</g>
</g>
<g id="图层_1">
	<circle id="XMLID_81_" fill-rule="evenodd" fill="#F39D45" cx="141.7" cy="142" r="113.4"/>
	<path id="XMLID_80_" fill-rule="evenodd" fill="#FBE7B0" d="M28.3,142c0-62.6,50.8-113.4,113.4-113.4
		c62.6,0,113.4,50.8,113.4,113.4H28.3z"/>
	<g id="XMLID_1_">
		<path id="XMLID_79_" fill-rule="evenodd" fill="#91AD44" d="M139.6,181c-11.1,0-7.1,6.7-24.7,12.6c-17.2,5.8-38.9,2.1-50.9-12.9
			c-8.5-10.7-10.4-48.8,5.7-64.8c24.4-24.4,115.7-24,139.7,0c16,16,14.2,54.1,5.7,64.8c-12,15.1-33.7,18.7-50.9,12.9
			C146.7,187.7,150.7,181,139.6,181z"/>
		<path id="XMLID_78_" fill="#8FA126" d="M161.6,261.2c-2.1,0.7-4.4-0.5-5.1-2.6c-0.7-2.1,0.5-4.4,2.6-5.1
			c14.7-6.4,25.4-18.7,22.7-36.8c-0.6-2.1,0.6-4.4,2.7-5c2.1-0.6,4.4,0.6,5,2.7C196.7,237.6,183.6,254.3,161.6,261.2z"/>
		<path id="XMLID_77_" fill="#8FA126" d="M209.4,244.4c-8.2,4.2-17.3,6.1-26.1,5.8c-1.1,0-2.2-0.1-3.2-0.2l1.2-11.9
			c0.8,0.1,1.7,0.1,2.5,0.2c7.2,0.3,14.7-1.4,21.2-5L209.4,244.4z"/>
		<path id="XMLID_76_" fill="#EA5762" d="M243.1,25.9v156.4l0,0.3c-0.1,2.2-0.2,4.3-0.4,6.4c-2.3,23.6-12.4,40.9-26.1,52.1
			c-3.8,3.1-7.9,5.8-12.2,8l-6-15c2.8-1.5,5.5-3.3,8-5.4c10.6-8.7,18.4-22.3,20.3-41.3c0.2-1.7,0.3-3.4,0.4-5.1h0V25.9H243.1z"/>
		<path id="XMLID_75_" fill-rule="evenodd" fill="#8FA126" d="M218.5,128.4h24.6c3.3,0,5.9,2.7,5.9,5.9v1.9c0,3.3-2.7,5.9-5.9,5.9
			h-24.6c-3.3,0-5.9-2.7-5.9-5.9v-1.9C212.6,131,215.3,128.4,218.5,128.4z"/>
		<path id="XMLID_74_" fill-rule="evenodd" fill="#8FA126" d="M227,22.1h16.1c0.9,0,1.6,0.7,1.6,1.6v37.6c0,0.9-0.7,1.6-1.6,1.6H227
			c-0.9,0-1.6-0.7-1.6-1.6V23.6C225.4,22.8,226.1,22.1,227,22.1z"/>
		<path id="XMLID_73_" fill-rule="evenodd" fill="#AEDBE9" d="M73.6,128.4C62.4,141.3,63,169,71.7,177.7c9.9,9.9,35.4,14.2,47,5.7
			c11.1-8.1,10.9-25,20.9-25c10,0,9.8,16.9,20.9,25c11.6,8.5,37.1,4.2,47-5.7c8.7-8.7,9.2-36.4-1.9-49.3
			C190.1,110.3,89.1,110.3,73.6,128.4z"/>
		<g id="XMLID_272_">
			<path id="XMLID_72_" fill-rule="evenodd" fill="#D7EEF8" d="M74.4,180l106.5-61.7c9.4,1.8,17.1,4.3,21.8,7.6l-58.6,34
				c-1.2-0.9-2.7-1.4-4.5-1.4c-5.2,0-7.6,4.5-10.3,10l-33.2,19.2C88,186.7,79.9,184,74.4,180z"/>
			<path id="XMLID_71_" fill-rule="evenodd" fill="#D7EEF8" d="M66,165.2l86.3-50c5.3,0.2,10.4,0.6,15.4,1.2l-98.9,57.3
				C67.6,171.2,66.7,168.3,66,165.2z"/>
			<path id="XMLID_70_" fill-rule="evenodd" fill="#D7EEF8" d="M149.3,167.1l59.4-34.4c1.4,2.5,2.5,5.2,3.4,8.1l-58.7,34
				C151.7,172.3,150.5,169.6,149.3,167.1z"/>
		</g>
		<path id="XMLID_37_" fill-rule="evenodd" fill="#89C0D1" d="M125.7,175.3c4.7-8,6.6-16.9,13.9-16.9c6.4,0,8.6,6.9,12.3,14.1
			c-4.2-10.3-5-23.5-12.3-23.5C131.7,148.9,131.1,164.7,125.7,175.3z"/>
	</g>
	<g id="XMLID_2_">
	</g>
	<g id="XMLID_3_">
	</g>
	<g id="XMLID_4_">
	</g>
	<g id="XMLID_5_">
	</g>
	<g id="XMLID_6_">
	</g>
	<g id="XMLID_7_">
	</g>
</g>
</svg>
