<?xml version="1.0" standalone="no"?><!DOCTYPE svg PUBLIC "-//W3C//DTD SVG 1.1//EN" "http://www.w3.org/Graphics/SVG/1.1/DTD/svg11.dtd"><svg t="1530241177691" class="icon" style="" viewBox="0 0 1024 1024" version="1.1" xmlns="http://www.w3.org/2000/svg" p-id="77368" xmlns:xlink="http://www.w3.org/1999/xlink" width="64" height="64"><defs><style type="text/css"></style></defs><path d="M512 512m-512 0a512 512 0 1 0 1024 0 512 512 0 1 0-1024 0Z" fill="#51C492" p-id="77369"></path><path d="M271.36 640h481.28c23.04 0 40.96 17.92 40.96 40.96 0 23.04-17.92 40.96-40.96 40.96H271.36c-23.04 0-40.96-17.92-40.96-40.96 0-23.04 17.92-40.96 40.96-40.96zM355.84 512l235.52-235.52 64 64-235.52 235.52-69.12 5.12 5.12-69.12z m250.88-253.44l17.92-17.92c10.24-10.24 25.6-10.24 35.84 0l28.16 28.16c10.24 10.24 10.24 25.6 0 35.84l-17.92 17.92-64-64z" fill="#FFFFFF" p-id="77370"></path></svg>