<?xml version="1.0" standalone="no"?><!DOCTYPE svg PUBLIC "-//W3C//DTD SVG 1.1//EN" "http://www.w3.org/Graphics/SVG/1.1/DTD/svg11.dtd"><svg t="1528420633574" class="icon" style="" viewBox="0 0 1024 1024" version="1.1" xmlns="http://www.w3.org/2000/svg" p-id="1447" xmlns:xlink="http://www.w3.org/1999/xlink" width="64" height="64"><defs><style type="text/css"></style></defs><path d="M762.498194 141.103692c-14.305821-9.658987-33.714869-5.876847-43.36874 8.398274-9.658987 14.295588-5.897314 33.714869 8.398274 43.373857 106.3604 71.852468 169.859619 191.277418 169.859619 319.445496 0 212.414831-172.807764 385.217479-385.217479 385.217479S126.951367 724.735126 126.951367 512.320295c0-128.169101 63.49922-247.593028 169.854503-319.445496 14.295588-9.658987 18.057261-29.078269 8.398274-43.373857-9.658987-14.275121-29.068036-18.057261-43.363623-8.398274C138.262994 224.597291 64.48364 363.369891 64.48364 512.320295c0 246.851131 200.828958 447.685205 447.685205 447.685205S959.855074 759.172449 959.855074 512.320295C959.855074 363.369891 886.075721 224.597291 762.498194 141.103692z" p-id="1448" fill="#01a862"></path><path d="M400.692938 64.635089c-17.248849 0-31.234375 13.980409-31.234375 31.234375l0 30.470989c0 17.253966 13.985526 31.234375 31.234375 31.234375 17.248849 0 31.233352-13.980409 31.233352-31.234375L431.92629 95.869465C431.92629 78.615499 417.941787 64.635089 400.692938 64.635089z" p-id="1449" fill="#01a862"></path><path d="M623.645776 64.635089c-17.248849 0-31.234375 13.980409-31.234375 31.234375l0 30.470989c0 17.253966 13.985526 31.234375 31.234375 31.234375s31.234375-13.980409 31.234375-31.234375L654.880151 95.869465C654.880151 78.615499 640.894625 64.635089 623.645776 64.635089z" p-id="1450" fill="#01a862"></path><path d="M425.690262 227.656977c11.209296 18.047028 41.97602 48.589648 86.157265 48.589648 43.958164 0 75.100442-30.308283 86.574774-48.223305 9.302877-14.528901 5.068436-33.846876-9.455349-43.149752-14.544251-9.323343-33.846876-5.053086-43.149752 9.455349-0.121773 0.193405-13.379729 19.449981-33.968649 19.449981-20.008706 0-32.443923-18.127869-33.277918-19.36914-9.17087-14.437827-28.285207-18.819624-42.829458-9.760295C421.084361 193.749726 416.584883 213.006302 425.690262 227.656977z" p-id="1451" fill="#01a862"></path><path d="M271.773753 513.306762c-12.378935 12.017708-12.668531 31.7931-0.650823 44.166919l151.904689 156.423609c5.881964 6.060019 13.96506 9.475815 22.408359 9.475815s16.526395-3.415796 22.408359-9.475815l285.370423-293.854655c12.017708-12.373819 11.728112-32.149211-0.650823-44.166919-12.373819-12.007475-32.144094-11.712763-44.166919 0.650823L445.435978 647.301546 315.940672 513.957585C303.922964 501.604232 284.152688 501.299287 271.773753 513.306762z" p-id="1452" fill="#01a862"></path></svg>