<?xml version="1.0" standalone="no"?><!DOCTYPE svg PUBLIC "-//W3C//DTD SVG 1.1//EN" "http://www.w3.org/Graphics/SVG/1.1/DTD/svg11.dtd"><svg t="1528420695892" class="icon" style="" viewBox="0 0 1024 1024" version="1.1" xmlns="http://www.w3.org/2000/svg" p-id="1628" xmlns:xlink="http://www.w3.org/1999/xlink" width="64" height="64"><defs><style type="text/css"></style></defs><path d="M869.62198 290.936185c-17.316387 0-31.355125 14.039761-31.355125 31.355125l0 501.688143c0 40.342824-32.8205 73.163323-73.163323 73.163323L252.963339 897.142777c-40.342824 0-73.163323-32.8205-73.163323-73.163323l0-606.206592c0-40.342824 32.8205-73.163323 73.163323-73.163323l407.621744 0c17.316387 0 31.355125-14.039761 31.355125-31.355125s-14.039761-31.355125-31.355125-31.355125L252.963339 81.899288c-74.92341 0-135.873574 60.950164-135.873574 135.873574l0 606.206592c0 74.92341 60.950164 135.873574 135.873574 135.873574l512.140193 0c74.92341 0 135.873574-60.950164 135.873574-135.873574L900.977106 322.292334C900.978129 304.975946 886.938368 290.936185 869.62198 290.936185z" p-id="1629" fill="#01a862"></path><path d="M535.946388 467.382826c6.01704 5.496178 13.59053 8.205892 21.143553 8.205892 8.502651 0 16.97358-3.434216 23.159466-10.201339L898.602012 116.986411c11.682064-12.779048 10.783601-32.615838-1.995447-44.297902-12.784164-11.676947-32.615838-10.783601-44.303019 2.000564L533.950941 423.084924C522.269901 435.863972 523.167341 455.700763 535.946388 467.382826z" p-id="1630" fill="#01a862"></path><path d="M355.315448 594.978876l0 30.589692c0 17.316387 14.039761 31.355125 31.355125 31.355125 17.316387 0 31.355125-14.039761 31.355125-31.355125l0-30.589692c0-17.316387-14.039761-31.355125-31.355125-31.355125C369.355209 563.623751 355.315448 577.663512 355.315448 594.978876z" p-id="1631" fill="#01a862"></path><path d="M631.396297 656.924717c17.316387 0 31.355125-14.039761 31.355125-31.355125l0-30.589692c0-17.316387-14.039761-31.355125-31.355125-31.355125-17.316387 0-31.355125 14.039761-31.355125 31.355125l0 30.589692C600.041172 642.884956 614.07991 656.924717 631.396297 656.924717z" p-id="1632" fill="#01a862"></path><path d="M589.507258 705.233979c-14.600533-9.344832-33.978882-5.082762-43.317575 9.492188-0.122797 0.199545-13.431917 19.525706-34.101679 19.525706-20.067035 0-32.549324-18.167778-33.401738-19.443841-9.211802-14.488992-28.395724-18.877953-43.001373-9.803273-14.713097 9.140171-19.22997 28.472472-10.089799 43.180452 11.253298 18.117636 42.138726 48.77896 86.49291 48.77896 44.129056 0 75.393107-30.432103 86.911442-48.411593C608.339162 733.966371 604.088348 714.572672 589.507258 705.233979z" p-id="1633" fill="#01a862"></path></svg>