<?xml version="1.0" standalone="no"?><!DOCTYPE svg PUBLIC "-//W3C//DTD SVG 1.1//EN" "http://www.w3.org/Graphics/SVG/1.1/DTD/svg11.dtd"><svg t="1528420709834" class="icon" style="" viewBox="0 0 1024 1024" version="1.1" xmlns="http://www.w3.org/2000/svg" p-id="1809" xmlns:xlink="http://www.w3.org/1999/xlink" width="64" height="64"><defs><style type="text/css"></style></defs><path d="M762.510474 141.113925c-14.285355-9.653871-33.714869-5.90243-43.363623 8.393157-9.658987 14.295588-5.907547 33.709753 8.388041 43.367717 106.359376 71.861678 169.863712 191.280488 169.863712 319.443449 0 212.413807-172.811858 385.220548-385.220548 385.220548S126.963647 724.732056 126.963647 512.318248c0-128.168078 63.49922-247.586888 169.858596-319.443449 14.295588-9.658987 18.057261-29.073152 8.398274-43.363623-9.648754-14.295588-29.073152-18.052145-43.363623-8.398274C138.275273 224.602408 64.496943 363.373984 64.496943 512.318248c0 246.854201 200.827935 447.687252 447.682136 447.687252S959.866331 759.173472 959.866331 512.318248C959.866331 363.373984 886.082884 224.607524 762.510474 141.113925z" p-id="1810" fill="#01a862"></path><path d="M400.706241 64.636113c-17.248849 0-31.233352 13.984503-31.233352 31.233352l0 30.476105c0 17.248849 13.984503 31.233352 31.233352 31.233352s31.233352-13.984503 31.233352-31.233352L431.939593 95.869465C431.939593 78.621639 417.954067 64.636113 400.706241 64.636113z" p-id="1811" fill="#01a862"></path><path d="M623.657033 64.636113c-17.248849 0-31.233352 13.984503-31.233352 31.233352l0 30.476105c0 17.248849 13.985526 31.233352 31.233352 31.233352s31.233352-13.984503 31.233352-31.233352L654.890384 95.869465C654.891408 78.621639 640.905882 64.636113 623.657033 64.636113z" p-id="1812" fill="#01a862"></path><path d="M425.702542 227.656977c11.209296 18.047028 41.974997 48.588625 86.157265 48.588625 43.958164 0 75.100442-30.3134 86.573751-48.223305 9.302877-14.528901 5.068436-33.846876-9.455349-43.149752-14.544251-9.29776-33.846876-5.063319-43.149752 9.455349-0.121773 0.198521-13.379729 19.449981-33.968649 19.449981-20.008706 0-32.443923-18.127869-33.276894-19.373233-9.165754-14.427594-28.285207-18.799158-42.829458-9.760295C421.09664 193.749726 416.598186 213.006302 425.702542 227.656977z" p-id="1813" fill="#01a862"></path><path d="M262.310218 547.883255c0 17.248849 13.984503 31.233352 31.233352 31.233352l437.276135 0c17.253966 0 31.233352-13.984503 31.233352-31.233352s-13.979386-31.233352-31.233352-31.233352L293.543569 516.649903C276.29472 516.649903 262.310218 530.634406 262.310218 547.883255z" p-id="1814" fill="#01a862"></path></svg>