<?xml version="1.0" standalone="no"?><!DOCTYPE svg PUBLIC "-//W3C//DTD SVG 1.1//EN" "http://www.w3.org/Graphics/SVG/1.1/DTD/svg11.dtd"><svg t="1527146317863" class="icon" style="" viewBox="0 0 1024 1024" version="1.1" xmlns="http://www.w3.org/2000/svg" p-id="6754" xmlns:xlink="http://www.w3.org/1999/xlink" width="64" height="64"><defs><style type="text/css"></style></defs><path d="M749.258831 102.636308a466.707692 466.707692 0 0 1 172.110769 172.110769C963.511138 347.372308 984.621292 426.456615 984.621292 512s-21.110154 164.627692-63.251692 237.252923a466.707692 466.707692 0 0 1-172.110769 172.110769A464.265846 464.265846 0 0 1 512.005908 984.615385a464.265846 464.265846 0 0 1-237.252923-63.251693A466.707692 466.707692 0 0 1 102.642215 749.252923 464.265846 464.265846 0 0 1 39.390523 512c0-85.543385 21.110154-164.627692 63.251692-237.252923a466.707692 466.707692 0 0 1 172.11077-172.110769A464.265846 464.265846 0 0 1 512.005908 39.384615c85.543385 0 164.627692 21.110154 237.252923 63.251693z m-215.04 675.209846a39.069538 39.069538 0 0 0 11.972923-28.593231c0-11.027692-4.017231-20.48-12.051692-28.199385a39.305846 39.305846 0 0 0-28.120616-11.500307 39.305846 39.305846 0 0 0-28.199384 11.500307 37.572923 37.572923 0 0 0-11.972924 28.199385c0 11.027692 3.938462 20.558769 11.972924 28.593231a38.596923 38.596923 0 0 0 28.199384 11.972923 38.596923 38.596923 0 0 0 28.120616-11.972923z m143.044923-377.540923c2.363077-43.086769-11.736615-80.896-42.535385-113.506462a160.531692 160.531692 0 0 0-123.667692-51.751384 159.113846 159.113846 0 0 0-116.736 48.521846 159.113846 159.113846 0 0 0-48.443077 116.736c0 9.216 3.150769 17.092923 9.688615 23.552a32.059077 32.059077 0 0 0 23.473231 9.688615 32.059077 32.059077 0 0 0 23.630769-9.688615 32.059077 32.059077 0 0 0 9.609847-23.552c0-27.096615 9.688615-50.333538 29.144615-69.710769A96.098462 96.098462 0 0 1 512.005908 301.528615c29.538462 0 54.429538 10.476308 74.830769 31.428923 17.171692 18.432 25.206154 39.620923 23.945846 63.645539 0 9.216-0.787692 16.620308-2.363077 22.134154-1.496615 5.513846-7.089231 15.123692-16.541538 28.672a386.126769 386.126769 0 0 1-42.06277 48.049231c-23.315692 22.685538-41.353846 43.323077-53.956923 61.755076-12.603077 18.510769-19.849846 37.809231-21.661538 58.210462a30.483692 30.483692 0 0 0 6.852923 24.418462c5.907692 7.089231 13.390769 11.264 22.685538 12.445538h3.623385c8.664615 0 16.068923-2.914462 22.212923-8.743385a35.446154 35.446154 0 0 0 11.027692-20.795077c1.260308-17.801846 20.007385-44.583385 56.32-80.344615 30.72-31.350154 51.515077-57.028923 62.306462-77.036308s16.777846-41.747692 18.038154-65.063384z" p-id="6755" fill="#01a862"></path></svg>