<?xml version="1.0" standalone="no"?><!DOCTYPE svg PUBLIC "-//W3C//DTD SVG 1.1//EN" "http://www.w3.org/Graphics/SVG/1.1/DTD/svg11.dtd"><svg t="1526539547534" class="icon" style="" viewBox="0 0 1024 1024" version="1.1" xmlns="http://www.w3.org/2000/svg" p-id="1387" xmlns:xlink="http://www.w3.org/1999/xlink" width="64" height="64"><defs><style type="text/css"></style></defs><path d="M780 652.2m-168.7 0a168.7 168.7 0 1 0 337.4 0 168.7 168.7 0 1 0-337.4 0Z" fill="#29A3EC" p-id="1388"></path><path d="M780 830.8c-98.5 0-178.7-80.2-178.7-178.7 0-47.7 18.6-92.6 52.3-126.3 33.7-33.7 78.6-52.3 126.4-52.3 47.7 0 92.6 18.6 126.3 52.3 33.7 33.7 52.3 78.6 52.3 126.4 0 17.9-2.7 35.8-8 53.1-1.6 5.3-7.2 8.2-12.5 6.6-5.3-1.6-8.2-7.2-6.6-12.5 4.7-15.4 7.2-31.3 7.2-47.3 0-42.4-16.5-82.3-46.4-112.2-29.9-30-69.8-46.5-112.2-46.5-42.4 0-82.3 16.5-112.2 46.4-30 29.9-46.5 69.8-46.5 112.2 0 87.5 71.2 158.7 158.7 158.7 44.2 0 85.2-17.7 115.5-49.9 3.8-4 10.1-4.2 14.1-0.4 4 3.8 4.2 10.1 0.4 14.1-34.1 36.4-80.3 56.3-130.1 56.3z" fill="#5A3392" p-id="1389"></path><path d="M780 652.2m-139.1 0a139.1 139.1 0 1 0 278.2 0 139.1 139.1 0 1 0-278.2 0Z" fill="#3CDEF6" p-id="1390"></path><path d="M925.7 736m-10 0a10 10 0 1 0 20 0 10 10 0 1 0-20 0Z" fill="#5A3392" p-id="1391"></path><path d="M245 652.2m-168.7 0a168.7 168.7 0 1 0 337.4 0 168.7 168.7 0 1 0-337.4 0Z" fill="#29A3EC" p-id="1392"></path><path d="M245 830.8c-98.5 0-178.7-80.2-178.7-178.7 0-47.7 18.6-92.6 52.3-126.3 33.7-33.7 78.6-52.3 126.4-52.3 47.7 0 92.6 18.6 126.3 52.3 33.7 33.7 52.3 78.6 52.3 126.4 0 17.9-2.7 35.8-8 53.1-1.6 5.3-7.2 8.2-12.5 6.6-5.3-1.6-8.2-7.2-6.6-12.5 4.7-15.4 7.2-31.3 7.2-47.3 0-42.4-16.5-82.3-46.4-112.2-29.9-30-69.8-46.5-112.2-46.5-42.4 0-82.3 16.5-112.2 46.4-30 29.9-46.5 69.8-46.5 112.2 0 87.5 71.2 158.7 158.7 158.7 44.2 0 85.2-17.7 115.5-49.9 3.8-4 10.1-4.2 14.1-0.4s4.2 10.1 0.4 14.1c-34.1 36.4-80.3 56.3-130.1 56.3z" fill="#5A3392" p-id="1393"></path><path d="M245 652.2m-139.1 0a139.1 139.1 0 1 0 278.2 0 139.1 139.1 0 1 0-278.2 0Z" fill="#3CDEF6" p-id="1394"></path><path d="M240.6 773.4c-5.5 0-10-4.5-10-10s4.5-10 10-10c16.3 0 32-3.2 46.9-9.6 5.1-2.2 11 0.2 13.1 5.2s-0.2 11-5.2 13.1c-17.4 7.5-35.8 11.3-54.8 11.3z" fill="#FFFFFF" p-id="1395"></path><path d="M245 652.2m-21.7 0a21.7 21.7 0 1 0 43.4 0 21.7 21.7 0 1 0-43.4 0Z" fill="#5A3392" p-id="1396"></path><path d="M780.3 651.8m-21.7 0a21.7 21.7 0 1 0 43.4 0 21.7 21.7 0 1 0-43.4 0Z" fill="#5A3392" p-id="1397"></path><path d="M779.9 661.9c-1 0-2.1-0.2-3.2-0.5-35.5-11.8-81.3-79.9-139.9-208-42.3-92.5-75.5-183.1-75.8-184-1.9-5.2 0.8-10.9 6-12.8 5.2-1.9 10.9 0.8 12.8 6 0.3 0.9 33.3 90.8 75.2 182.6 72.6 158.7 111.3 191.7 127.9 197.2 5.2 1.7 8.1 7.4 6.3 12.6-1.2 4.2-5.1 6.9-9.3 6.9z" fill="#5A3392" p-id="1398"></path><path d="M486.5 651.8m-50.1 0a50.1 50.1 0 1 0 100.2 0 50.1 50.1 0 1 0-100.2 0Z" fill="#EE746C" p-id="1399"></path><path d="M486.5 711.9c-33.1 0-60.1-27-60.1-60.1s27-60.1 60.1-60.1 60.1 27 60.1 60.1-27 60.1-60.1 60.1z m0-100.2c-22.1 0-40.1 18-40.1 40.1s18 40.1 40.1 40.1 40.1-18 40.1-40.1-18-40.1-40.1-40.1z" fill="#5A3392" p-id="1400"></path><path d="M487.5 649.6m-35.9 0a35.9 35.9 0 1 0 71.8 0 35.9 35.9 0 1 0-71.8 0Z" fill="#FB9761" p-id="1401"></path><path d="M486.5 661.8H248c-3.5 0-6.8-1.8-8.6-4.8-1.8-3-1.9-6.7-0.3-9.8l130.7-248.3c1.8-3.4 5.4-5.5 9.2-5.3 3.8 0.1 7.3 2.5 8.8 6l107.8 248.3c1.3 3.1 1 6.7-0.8 9.5-1.8 2.7-4.9 4.4-8.3 4.4z m-221.9-20h206.7l-93.4-215.2-113.3 215.2z" fill="#5A3392" p-id="1402"></path><path d="M486.5 661.9c-4.5 0-8.5-3-9.7-7.5-1.4-5.4 1.9-10.8 7.2-12.2 0.2 0 20.4-5.4 44.3-22.2 31.8-22.3 54.7-53.2 68.2-91.9 21.7-62.2 52.2-68.5 55.7-69l3 19.8s0.1 0 0.3-0.1c-0.2 0-22.5 5.4-40 55.9-18.7 53.6-51.8 85.2-76.3 102.2-26.7 18.6-49.1 24.4-50 24.7-1.1 0.2-1.9 0.3-2.7 0.3z" fill="#5A3392" p-id="1403"></path><path d="M526 750.9c-3.7 0-7.3-2.1-9-5.7l-41.7-88c-2.4-5-0.2-11 4.8-13.3 5-2.4 11-0.2 13.3 4.8l41.7 88c2.4 5 0.2 11-4.8 13.3-1.4 0.6-2.9 0.9-4.3 0.9z" fill="#5A3392" p-id="1404"></path><path d="M561.5 750.9h-74c-5.5 0-10-4.5-10-10s4.5-10 10-10h74c5.5 0 10 4.5 10 10s-4.5 10-10 10zM450.2 570.2c-4.2 0-8.1-2.6-9.5-6.8-1.8-5.2 1.1-10.9 6.3-12.7 0.7-0.2 74.9-25.7 107.2-73.2 37-54.3 88.3-58 90.5-58.1h0.6l118.5-0.5 23.6-49.8H651.2c-5.5 0-10-4.5-10-10s4.5-10 10-10h151.9c3.4 0 6.6 1.8 8.4 4.6 1.8 2.9 2.1 6.5 0.6 9.6l-33 69.8c-1.6 3.5-5.1 5.7-9 5.7l-124.5 0.5c-3.7 0.3-44.4 4.7-74.9 49.4-15.3 22.4-39.7 42.9-72.7 60.7-24.2 13.1-43.9 19.8-44.7 20.1-1 0.5-2 0.7-3.1 0.7z" fill="#5A3392" p-id="1405"></path><path d="M458.1 408.5H329.3v-48.2h80.6c26.6 0 48.2 21.6 48.2 48.2z" fill="#EE746C" p-id="1406"></path><path d="M458.1 418.5H329.3c-5.5 0-10-4.5-10-10v-48.2c0-5.5 4.5-10 10-10h80.6c32.1 0 58.2 26.1 58.2 58.2 0 5.5-4.5 10-10 10z m-118.8-20h107.5c-4.4-16.2-19.3-28.2-36.9-28.2h-70.6v28.2z" fill="#5A3392" p-id="1407"></path><path d="M390.7 736m-10 0a10 10 0 1 0 20 0 10 10 0 1 0-20 0Z" fill="#5A3392" p-id="1408"></path><path d="M208.6 759.5m-10 0a10 10 0 1 0 20 0 10 10 0 1 0-20 0Z" fill="#FFFFFF" p-id="1409"></path><path d="M775.9 773.4c-5.5 0-10-4.5-10-10s4.5-10 10-10c16.3 0 32-3.2 46.9-9.6 5.1-2.2 11 0.2 13.1 5.2 2.2 5.1-0.2 11-5.2 13.1-17.4 7.5-35.8 11.3-54.8 11.3z" fill="#FFFFFF" p-id="1410"></path><path d="M743.9 759.5m-10 0a10 10 0 1 0 20 0 10 10 0 1 0-20 0Z" fill="#FFFFFF" p-id="1411"></path></svg>