<?xml version="1.0" standalone="no"?><!DOCTYPE svg PUBLIC "-//W3C//DTD SVG 1.1//EN" "http://www.w3.org/Graphics/SVG/1.1/DTD/svg11.dtd"><svg t="1526539670939" class="icon" style="" viewBox="0 0 1024 1024" version="1.1" xmlns="http://www.w3.org/2000/svg" p-id="2007" xmlns:xlink="http://www.w3.org/1999/xlink" width="64" height="64"><defs><style type="text/css"></style></defs><path d="M492.4 201.1h39v180.3h-39z" fill="#EE746C" p-id="2008"></path><path d="M531.4 391.4h-39c-5.5 0-10-4.5-10-10V201.1c0-5.5 4.5-10 10-10h39c5.5 0 10 4.5 10 10v180.3c0 5.5-4.5 10-10 10z m-29-20h19V211.1h-19v160.3z" fill="#5A3392" p-id="2009"></path><path d="M890.5 649H134.3l-51.7-77.2h859.7z" fill="#29A3EC" p-id="2010"></path><path d="M890.5 659H134.3c-3.3 0-6.5-1.7-8.3-4.4l-51.7-77.2c-2.1-3.1-2.3-7-0.5-10.3 1.7-3.3 5.1-5.3 8.8-5.3h859.7c3.7 0 7.1 2 8.8 5.3 1.7 3.3 1.5 7.2-0.5 10.3l-51.8 77.2c-1.9 2.7-5 4.4-8.3 4.4z m-750.9-20h745.5l38.4-57.2H101.3l38.3 57.2z" fill="#5A3392" p-id="2011"></path><path d="M859.9 629.4H161.7l-27-40.1h752.1z" fill="#3CDEF6" p-id="2012"></path><path d="M263.4 381.4h512.1v33H263.4z" fill="#29A3EC" p-id="2013"></path><path d="M775.5 424.4H263.4c-5.5 0-10-4.5-10-10v-33c0-5.5 4.5-10 10-10h512.1c5.5 0 10 4.5 10 10v33c0 5.5-4.5 10-10 10z m-502.1-20h492.1v-13H273.4v13z" fill="#5A3392" p-id="2014"></path><path d="M698.1 572.2c0 102.5-83.1 185.7-185.7 185.7s-185.7-83.1-185.7-185.7 83.1-215.7 185.7-215.7 185.7 113.2 185.7 215.7z" fill="#29A3EC" p-id="2015"></path><path d="M512.4 767.9c-52.3 0-101.4-20.4-138.4-57.3-37-37-57.3-86.1-57.3-138.4 0-53 20.6-108.6 56.6-152.7 18.2-22.3 39.1-40 62-52.5 24.8-13.6 50.7-20.5 77.1-20.5 26.4 0 52.3 6.9 77.1 20.5 22.9 12.6 43.7 30.3 62 52.6 36 44 56.6 99.7 56.6 152.6 0 107.9-87.8 195.7-195.7 195.7z m0-401.4c-45.1 0-88.9 23.3-123.6 65.7-32.6 39.9-52.1 92.3-52.1 140 0 47 18.3 91.1 51.4 124.3 33.2 33.2 77.3 51.4 124.3 51.4 96.9 0 175.7-78.8 175.7-175.7 0-47.7-19.5-100-52.1-140-34.7-42.4-78.6-65.7-123.6-65.7z" fill="#5A3392" p-id="2016"></path><path d="M664.1 569.5c0 83.8-67.9 151.7-151.7 151.7s-151.7-67.9-151.7-151.7 67.9-176.2 151.7-176.2 151.7 92.4 151.7 176.2z" fill="#3CDEF6" p-id="2017"></path><path d="M519.4 704.7c-5 0-9.3-3.8-9.9-8.9-0.6-5.5 3.3-10.4 8.8-11.1 26-3 50.6-13.1 71-29.1 4.3-3.4 10.6-2.7 14 1.7s2.7 10.6-1.7 14c-23.3 18.4-51.3 29.9-81 33.3-0.4 0.1-0.8 0.1-1.2 0.1z" fill="#FFFFFF" p-id="2018"></path><path d="M195.4 676.7m-60.7 0a60.7 60.7 0 1 0 121.4 0 60.7 60.7 0 1 0-121.4 0Z" fill="#EE746C" p-id="2019"></path><path d="M195.4 747.4c-39 0-70.7-31.7-70.7-70.7s31.7-70.7 70.7-70.7 70.7 31.7 70.7 70.7-31.7 70.7-70.7 70.7z m0-121.4c-28 0-50.7 22.7-50.7 50.7s22.7 50.7 50.7 50.7 50.7-22.7 50.7-50.7-22.7-50.7-50.7-50.7z" fill="#5A3392" p-id="2020"></path><path d="M195.4 676.7m-37.8 0a37.8 37.8 0 1 0 75.6 0 37.8 37.8 0 1 0-75.6 0Z" fill="#FB9761" p-id="2021"></path><path d="M835.5 676.7m-60.7 0a60.7 60.7 0 1 0 121.4 0 60.7 60.7 0 1 0-121.4 0Z" fill="#EE746C" p-id="2022"></path><path d="M835.5 747.4c-39 0-70.7-31.7-70.7-70.7s31.7-70.7 70.7-70.7 70.7 31.7 70.7 70.7-31.7 70.7-70.7 70.7z m0-121.4c-28 0-50.7 22.7-50.7 50.7s22.7 50.7 50.7 50.7 50.7-22.7 50.7-50.7-22.7-50.7-50.7-50.7z" fill="#5A3392" p-id="2023"></path><path d="M580 486.7H446c-5.5 0-10-4.5-10-10s4.5-10 10-10h134c5.5 0 10 4.5 10 10s-4.5 10-10 10z" fill="#5A3392" p-id="2024"></path><path d="M835.5 676.7m-37.8 0a37.8 37.8 0 1 0 75.6 0 37.8 37.8 0 1 0-75.6 0Z" fill="#FB9761" p-id="2025"></path><path d="M614.067181 638.960256a10 10 0 1 0 19.864956-2.32024 10 10 0 1 0-19.864956 2.32024Z" fill="#FFFFFF" p-id="2026"></path></svg>