<?xml version="1.0" standalone="no"?><!DOCTYPE svg PUBLIC "-//W3C//DTD SVG 1.1//EN" "http://www.w3.org/Graphics/SVG/1.1/DTD/svg11.dtd"><svg t="1526539680020" class="icon" style="" viewBox="0 0 1024 1024" version="1.1" xmlns="http://www.w3.org/2000/svg" p-id="2160" xmlns:xlink="http://www.w3.org/1999/xlink" width="64" height="64"><defs><style type="text/css"></style></defs><path d="M84.999673 630.775509a110.2 440.4 75.001 1 0 850.791446-227.952966 110.2 440.4 75.001 1 0-850.791446 227.952966Z" fill="#EE746C" p-id="2161"></path><path d="M219 682.8c-61.9 0-132.9-9.1-143.6-49.4-11.4-42.7 53.1-88.8 109.2-120 75.7-42 180.3-82 294.7-112.7 114.4-30.6 225-48.3 311.6-49.8 64.2-1.1 143.2 6.6 154.6 49.3 11.4 42.7-53.1 88.8-109.2 120-75.7 42-180.3 82-294.7 112.7-114.4 30.6-225 48.3-311.6 49.8-3.7 0-7.3 0.1-11 0.1z m262.9-272.4l2.6 9.7C371.6 450.3 268.6 489.7 194.3 531c-35.6 19.8-62.5 38.8-79.8 56.5-11 11.2-23.4 27.5-19.8 40.8 3.6 13.3 22.4 21.2 37.6 25.4 23.9 6.7 56.7 9.7 97.4 9 84.9-1.4 193.9-18.8 306.7-49.1 112.9-30.2 215.9-69.6 290.2-110.9 35.6-19.8 62.5-38.8 79.8-56.5 11-11.2 23.4-27.5 19.8-40.8-3.6-13.3-22.4-21.2-37.6-25.4-23.9-6.7-56.7-9.7-97.4-9-84.9 1.4-193.9 18.8-306.7 49.1l-2.6-9.7z" fill="#5A3392" p-id="2162"></path><path d="M135.027007 619.791868a79.1 388.3 75.001 1 0 750.141505-200.985778 79.1 388.3 75.001 1 0-750.141505 200.985778Z" fill="#FB9761" p-id="2163"></path><path d="M750.5 526.1c-3.8 0-7.4-2.2-9.1-5.9-2.3-5 0-11 5-13.2 52.8-23.9 90.3-46.5 108.5-65.4 3.8-4 10.2-4.1 14.1-0.3 4 3.8 4.1 10.2 0.3 14.1-19.9 20.8-59.6 44.9-114.7 69.8-1.3 0.6-2.7 0.9-4.1 0.9z" fill="#FFFFFF" p-id="2164"></path><path d="M307 487.2l-27.8-103.6C251.8 281.1 312.6 175.8 415 148.3s207.7 33.3 235.2 135.8L678 387.8" fill="#29A3EC" p-id="2165"></path><path d="M307 497.2c-4.4 0-8.5-2.9-9.7-7.4l-27.8-103.6c-13.9-52.2-6.8-106.6 20.2-153.4 27-46.7 70.5-80.2 122.6-94.2 52.1-14 106.5-6.8 153.3 20.1 46.7 27 80.2 70.6 94.2 122.7l27.8 103.7c1.4 5.3-1.7 10.8-7.1 12.2-5.3 1.4-10.8-1.7-12.2-7.1l-27.8-103.7c-12.6-47-42.7-86.3-84.9-110.6-42.1-24.3-91.2-30.8-138.1-18.2C320.7 184 262.9 284 288.9 381l27.8 103.6c1.4 5.3-1.7 10.8-7.1 12.2-0.9 0.3-1.7 0.4-2.6 0.4z" fill="#5A3392" p-id="2166"></path><path d="M633.1 368.8l-22.2-82.9c-22-81.9-106.2-130.6-188.1-108.6-81.9 22-130.6 106.2-108.6 188.1l22.2 82.9s175.4 6 296.7-79.5z" fill="#3CDEF6" p-id="2167"></path><path d="M545.3 245.2c-2.2 0-4.5-0.7-6.3-2.3-22.9-18.7-50.6-29.8-80-32.1-5.5-0.4-9.6-5.2-9.2-10.7s5.2-9.6 10.7-9.2c33.5 2.5 65.1 15.2 91.2 36.5 4.3 3.5 4.9 9.8 1.4 14.1-2 2.4-4.9 3.7-7.8 3.7z" fill="#FFFFFF" p-id="2168"></path><path d="M645.1 392.3C604 420 553.9 442.9 498 457.9c-54.8 14.7-108.6 20-157.3 16.9" fill="#29A3EC" p-id="2169"></path><path d="M367.6 485.6c-9.3 0-18.5-0.3-27.5-0.9-5.5-0.4-9.7-5.1-9.3-10.6 0.4-5.5 5.1-9.7 10.6-9.3 48.8 3.1 102.1-2.6 154.1-16.6 53-14.2 102.9-36.4 144.1-64.2a9.99 9.99 0 0 1 13.9 2.7 9.99 9.99 0 0 1-2.7 13.9c-43 29-94.9 52.2-150.1 67-44.6 11.9-90.1 18-133.1 18z" fill="#5A3392" p-id="2170"></path><path d="M737.243614 454.194691a22 22 0 1 0 42.500935-11.387297 22 22 0 1 0-42.500935 11.387297Z" fill="#5A3392" p-id="2171"></path><path d="M619.345358 506.493934a22 22 0 1 0 42.500935-11.387296 22 22 0 1 0-42.500935 11.387296Z" fill="#5A3392" p-id="2172"></path><path d="M498.845691 549.090468a22 22 0 1 0 42.500935-11.387296 22 22 0 1 0-42.500935 11.387296Z" fill="#5A3392" p-id="2173"></path><path d="M373.14471 572.389017a22 22 0 1 0 42.500935-11.387296 22 22 0 1 0-42.500935 11.387296Z" fill="#5A3392" p-id="2174"></path><path d="M244.843982 586.091483a22 22 0 1 0 42.500935-11.387297 22 22 0 1 0-42.500935 11.387297Z" fill="#5A3392" p-id="2175"></path><path d="M781.5 835.8c-3.6 0-7-1.9-8.8-5.2L670.3 641.7c-2.6-4.9-0.8-10.9 4-13.6 4.9-2.6 10.9-0.8 13.6 4L790.3 821c2.6 4.9 0.8 10.9-4 13.6-1.5 0.8-3.2 1.2-4.8 1.2zM605.1 862.4c-4.4 0-8.5-2.9-9.7-7.4l-48.9-182.5c-1.4-5.3 1.7-10.8 7.1-12.2 5.3-1.4 10.8 1.7 12.2 7.1l48.9 182.5c1.4 5.3-1.7 10.8-7.1 12.2-0.8 0.2-1.6 0.3-2.5 0.3zM439 927.6c-5.4 0-9.8-4.3-10-9.7l-5.7-214.8c-0.1-5.5 4.2-10.1 9.7-10.3 5.5-0.2 10.1 4.2 10.3 9.7l5.7 214.8c0.1 5.5-4.2 10.1-9.7 10.3h-0.3z" fill="#5A3392" p-id="2176"></path><path d="M557.126936 260.63349a9.8 9.8 0 1 0 18.932234-5.072523 9.8 9.8 0 1 0-18.932234 5.072523Z" fill="#FFFFFF" p-id="2177"></path></svg>