<?xml version="1.0" standalone="no"?><!DOCTYPE svg PUBLIC "-//W3C//DTD SVG 1.1//EN" "http://www.w3.org/Graphics/SVG/1.1/DTD/svg11.dtd"><svg t="1526539607956" class="icon" style="" viewBox="0 0 1024 1024" version="1.1" xmlns="http://www.w3.org/2000/svg" p-id="1696" xmlns:xlink="http://www.w3.org/1999/xlink" width="64" height="64"><defs><style type="text/css"></style></defs><path d="M777.2 488.8H580.9V292.5" fill="#E2FBFF" p-id="1697"></path><path d="M777.2 478.8c-2.4 0-4.8-0.8-6.7-2.6L574.2 299.9c-4.1-3.7-4.4-10-0.8-14.1 3.7-4.1 10-4.4 14.1-0.8l196.3 176.3c4.1 3.7 4.4 10 0.8 14.1-1.9 2.3-4.7 3.4-7.4 3.4z" fill="#5A3392" p-id="1698"></path><path d="M334.8 483.4h-128v-63.3c0-41.2 25.3-78.2 63.6-93.1l64.4-25.2v181.6z" fill="#29A3EC" p-id="1699"></path><path d="M334.8 493.4h-128c-5.5 0-10-4.5-10-10v-63.3c0-22.2 6.6-43.7 19.2-62.1 12.5-18.4 30.1-32.3 50.8-40.4l64.4-25.2c3.1-1.2 6.6-0.8 9.3 1.1 2.7 1.9 4.4 5 4.4 8.3v181.6c-0.1 5.5-4.6 10-10.1 10z m-118-20h108V316.5L274 336.3c-16.9 6.6-31.3 18-41.5 33-10.3 15-15.7 32.6-15.7 50.8v53.3z" fill="#5A3392" p-id="1700"></path><path d="M947.4 685.1H168.6l-90-124.4V437.9h667.7l201.1 80z" fill="#EE746C" p-id="1701"></path><path d="M947.4 695.1H168.6c-3.2 0-6.2-1.5-8.1-4.1l-90-124.4c-1.2-1.7-1.9-3.8-1.9-5.9V437.9c0-5.5 4.5-10 10-10h667.7c1.3 0 2.5 0.2 3.7 0.7l201.1 80c3.8 1.5 6.3 5.2 6.3 9.3v167.2c0 5.5-4.5 10-10 10z m-773.7-20h763.7V524.7l-193-76.8H88.6v109.6l85.1 117.6z" fill="#5A3392" p-id="1702"></path><path d="M904.9 674.3h-699l-80.2-105.6v-94.9H751l153.9 56.7z" fill="#FB9761" p-id="1703"></path><path d="M784.9 707.5m-112.1 0a112.1 112.1 0 1 0 224.2 0 112.1 112.1 0 1 0-224.2 0Z" fill="#29A3EC" p-id="1704"></path><path d="M785 707.5m-93 0a93 93 0 1 0 186 0 93 93 0 1 0-186 0Z" fill="#3CDEF6" p-id="1705"></path><path d="M784.9 829.6c-39.6 0-76.9-19.3-99.8-51.7-3.2-4.5-2.1-10.7 2.4-13.9 4.5-3.2 10.7-2.1 13.9 2.4 19.2 27.1 50.4 43.3 83.4 43.3 56.3 0 102.1-45.8 102.1-102.1s-45.8-102.1-102-102.1c-56.3 0-102.1 45.8-102.1 102.1 0 5.5-4.5 10-10 10s-10-4.5-10-10c0-67.3 54.8-122.1 122.1-122.1s122 54.8 122 122.1-54.7 122-122 122z" fill="#5A3392" p-id="1706"></path><path d="M785 780.8c-19.2 0-37.3-7.4-51.1-20.7-4-3.9-4-10.2-0.2-14.1 3.9-4 10.2-4 14.1-0.2 10 9.7 23.2 15.1 37.1 15.1 15.2 0 29.8-6.6 39.9-18 3.7-4.1 10-4.5 14.1-0.9 4.1 3.7 4.5 10 0.9 14.1-13.9 15.7-33.9 24.7-54.8 24.7z" fill="#FFFFFF" p-id="1707"></path><path d="M676.5 741.1m-10 0a10 10 0 1 0 20 0 10 10 0 1 0-20 0Z" fill="#5A3392" p-id="1708"></path><path d="M274 707.5m-112.1 0a112.1 112.1 0 1 0 224.2 0 112.1 112.1 0 1 0-224.2 0Z" fill="#29A3EC" p-id="1709"></path><path d="M274 707.5m-93 0a93 93 0 1 0 186 0 93 93 0 1 0-186 0Z" fill="#3CDEF6" p-id="1710"></path><path d="M274 829.6c-39.6 0-76.9-19.3-99.8-51.7-3.2-4.5-2.1-10.7 2.4-13.9 4.5-3.2 10.8-2.1 13.9 2.4 19.2 27.1 50.4 43.3 83.4 43.3 56.3 0 102.1-45.8 102.1-102.1s-45.7-102.2-102-102.2-102.1 45.8-102.1 102.1c0 5.5-4.5 10-10 10s-10-4.5-10-10c0-67.3 54.8-122.1 122.1-122.1s122.1 54.8 122.1 122.1S341.3 829.6 274 829.6z" fill="#5A3392" p-id="1711"></path><path d="M274 780.8c-19.2 0-37.3-7.4-51.1-20.7-4-3.9-4-10.2-0.2-14.1 3.9-4 10.2-4 14.1-0.2 10 9.7 23.2 15.1 37.1 15.1 15.2 0 29.8-6.6 39.9-18 3.7-4.1 10-4.5 14.1-0.9s4.5 10 0.9 14.1c-13.9 15.7-33.9 24.7-54.8 24.7z" fill="#FFFFFF" p-id="1712"></path><path d="M165.5 741.1m-10 0a10 10 0 1 0 20 0 10 10 0 1 0-20 0Z" fill="#5A3392" p-id="1713"></path><path d="M125.4 522.8c-5.5 0-10-4.5-10-10v-39c0-5.5 4.5-10 10-10h39c5.5 0 10 4.5 10 10s-4.5 10-10 10h-29v29c0 5.5-4.5 10-10 10z" fill="#FFFFFF" p-id="1714"></path><path d="M125.7 543.3m-10 0a10 10 0 1 0 20 0 10 10 0 1 0-20 0Z" fill="#FFFFFF" p-id="1715"></path><path d="M450.4 450.2h124.4v224.1H450.4z" fill="#EE746C" p-id="1716"></path><path d="M513 693.6c-5.5 0-10-4.5-10-10V437.9c0-5.5 4.5-10 10-10s10 4.5 10 10v245.7c0 5.5-4.5 10-10 10z" fill="#5A3392" p-id="1717"></path></svg>