<?xml version="1.0" standalone="no"?><!DOCTYPE svg PUBLIC "-//W3C//DTD SVG 1.1//EN" "http://www.w3.org/Graphics/SVG/1.1/DTD/svg11.dtd"><svg t="1526888253337" class="icon" style="" viewBox="0 0 1024 1024" version="1.1" xmlns="http://www.w3.org/2000/svg" p-id="12464" xmlns:xlink="http://www.w3.org/1999/xlink" width="64" height="64"><defs><style type="text/css"></style></defs><path d="M513.8204444444444 358.5137777777778m-355.10044444444446 0a355.10044444444446 355.10044444444446 0 1 0 710.2008888888889 0 355.10044444444446 355.10044444444446 0 1 0-710.2008888888889 0Z" fill="" p-id="12465"></path><path d="M514.1617777777777 366.592m-124.13155555555554 0a124.13155555555554 124.13155555555554 0 1 0 248.26311111111107 0 124.13155555555554 124.13155555555554 0 1 0-248.26311111111107 0Z" fill="#FFD100" p-id="12466"></path><path d="M505.17333333333335 774.2577777777778h19.569777777777773v205.14133333333336H505.17333333333335z" fill="" p-id="12467"></path><path d="M434.0622222222222 995.6693333333334a78.50666666666666 25.600000000000012 0 1 0 157.01333333333332 0 78.50666666666666 25.600000000000012 0 1 0-157.01333333333332 0Z" fill="" p-id="12468"></path><path d="M391.168 667.5342222222223l125.26933333333334 127.88622222222222L632.6044444444444 667.3066666666667z" fill="" p-id="12469"></path></svg>